<?xml version="1.0" encoding="UTF-8"?>
<svg width="432px" height="288px" viewBox="0 0 432 288" version="1.1" xmlns="http://www.w3.org/2000/svg" xmlns:xlink="http://www.w3.org/1999/xlink">
    <!-- Generator: Sketch 55.2 (78181) - https://sketchapp.com -->
    <title>acc</title>
    <desc>Created with Sketch.</desc>
    <g id="Page-1" stroke="none" stroke-width="1" fill="none" fill-rule="evenodd">
        <g id="acc">
            <polygon id="Fill-1" fill="#FFFFFF" points="0 288 432 288 432 0 0 0"></polygon>
            <polygon id="Fill-2" fill="#FFFFFF" points="54 252 388.8 252 388.8 34.56 54 34.56"></polygon>
            <path d="M69.218182,252 L69.218182,255.5" id="Fill-3" fill="#000000"></path>
            <path d="M69.218182,252 L69.218182,255.5" id="Stroke-4" stroke="#000000" stroke-width="0.8" stroke-linejoin="round"></path>
            <text id="0" font-family="LucidaGrande, Lucida Grande" font-size="10" font-weight="normal" fill="#000000">
                <tspan x="66.0384943" y="264.816406">0</tspan>
            </text>
            <path d="M115.410872,252 L115.410872,255.5" id="Fill-5" fill="#000000"></path>
            <path d="M115.410872,252 L115.410872,255.5" id="Stroke-6" stroke="#000000" stroke-width="0.8" stroke-linejoin="round"></path>
            <text id="1000" font-family="LucidaGrande, Lucida Grande" font-size="10" font-weight="normal" fill="#000000">
                <tspan x="102.692122" y="264.816406">1000</tspan>
            </text>
            <path d="M161.603562,252 L161.603562,255.5" id="Fill-7" fill="#000000"></path>
            <path d="M161.603562,252 L161.603562,255.5" id="Stroke-8" stroke="#000000" stroke-width="0.8" stroke-linejoin="round"></path>
            <text id="2000" font-family="LucidaGrande, Lucida Grande" font-size="10" font-weight="normal" fill="#000000">
                <tspan x="148.884812" y="264.816406">2000</tspan>
            </text>
            <path d="M207.796253,252 L207.796253,255.5" id="Fill-9" fill="#000000"></path>
            <path d="M207.796253,252 L207.796253,255.5" id="Stroke-10" stroke="#000000" stroke-width="0.8" stroke-linejoin="round"></path>
            <text id="3000" font-family="LucidaGrande, Lucida Grande" font-size="10" font-weight="normal" fill="#000000">
                <tspan x="195.077503" y="264.816406">3000</tspan>
            </text>
            <path d="M253.988943,252 L253.988943,255.5" id="Fill-11" fill="#000000"></path>
            <path d="M253.988943,252 L253.988943,255.5" id="Stroke-12" stroke="#000000" stroke-width="0.8" stroke-linejoin="round"></path>
            <text id="4000" font-family="LucidaGrande, Lucida Grande" font-size="10" font-weight="normal" fill="#000000">
                <tspan x="241.270193" y="264.816406">4000</tspan>
            </text>
            <path d="M300.181633,252 L300.181633,255.5" id="Fill-13" fill="#000000"></path>
            <path d="M300.181633,252 L300.181633,255.5" id="Stroke-14" stroke="#000000" stroke-width="0.8" stroke-linejoin="round"></path>
            <text id="5000" font-family="LucidaGrande, Lucida Grande" font-size="10" font-weight="normal" fill="#000000">
                <tspan x="287.462883" y="264.816406">5000</tspan>
            </text>
            <path d="M346.374324,252 L346.374324,255.5" id="Fill-15" fill="#000000"></path>
            <path d="M346.374324,252 L346.374324,255.5" id="Stroke-16" stroke="#000000" stroke-width="0.8" stroke-linejoin="round"></path>
            <text id="6000" font-family="LucidaGrande, Lucida Grande" font-size="10" font-weight="normal" fill="#000000">
                <tspan x="333.655574" y="264.816406">6000</tspan>
            </text>
            <text id="iter" font-family="LucidaGrande, Lucida Grande" font-size="10" font-weight="normal" fill="#000000">
                <tspan x="212.915625" y="278.488281">iter</tspan>
            </text>
            <path d="M54,247.571456 L50.5,247.571456" id="Fill-17" fill="#000000"></path>
            <path d="M54,247.571456 L50.5,247.571456" id="Stroke-18" stroke="#000000" stroke-width="0.8" stroke-linejoin="round"></path>
            <text id="0.0" font-family="LucidaGrande, Lucida Grande" font-size="10" font-weight="normal" fill="#000000">
                <tspan x="31.09375" y="249.590988">0.0</tspan>
            </text>
            <path d="M54,206.945892 L50.5,206.945892" id="Fill-19" fill="#000000"></path>
            <path d="M54,206.945892 L50.5,206.945892" id="Stroke-20" stroke="#000000" stroke-width="0.8" stroke-linejoin="round"></path>
            <text id="0.2" font-family="LucidaGrande, Lucida Grande" font-size="10" font-weight="normal" fill="#000000">
                <tspan x="31.09375" y="208.965424">0.2</tspan>
            </text>
            <path d="M54,166.320328 L50.5,166.320328" id="Fill-21" fill="#000000"></path>
            <path d="M54,166.320328 L50.5,166.320328" id="Stroke-22" stroke="#000000" stroke-width="0.8" stroke-linejoin="round"></path>
            <text id="0.4" font-family="LucidaGrande, Lucida Grande" font-size="10" font-weight="normal" fill="#000000">
                <tspan x="31.09375" y="168.33986">0.4</tspan>
            </text>
            <path d="M54,125.694764 L50.5,125.694764" id="Fill-23" fill="#000000"></path>
            <path d="M54,125.694764 L50.5,125.694764" id="Stroke-24" stroke="#000000" stroke-width="0.8" stroke-linejoin="round"></path>
            <text id="0.6" font-family="LucidaGrande, Lucida Grande" font-size="10" font-weight="normal" fill="#000000">
                <tspan x="31.09375" y="127.714296">0.6</tspan>
            </text>
            <path d="M54,85.0692 L50.5,85.0692" id="Fill-25" fill="#000000"></path>
            <path d="M54,85.0692 L50.5,85.0692" id="Stroke-26" stroke="#000000" stroke-width="0.8" stroke-linejoin="round"></path>
            <text id="0.8" font-family="LucidaGrande, Lucida Grande" font-size="10" font-weight="normal" fill="#000000">
                <tspan x="31.09375" y="87.0887316">0.8</tspan>
            </text>
            <path d="M54,44.443636 L50.5,44.443636" id="Fill-27" fill="#000000"></path>
            <path d="M54,44.443636 L50.5,44.443636" id="Stroke-28" stroke="#000000" stroke-width="0.8" stroke-linejoin="round"></path>
            <text id="1.0" font-family="LucidaGrande, Lucida Grande" font-size="10" font-weight="normal" fill="#000000">
                <tspan x="31.09375" y="46.4631676">1.0</tspan>
            </text>
            <text id="accuracy" font-family="LucidaGrande, Lucida Grande" font-size="10" font-weight="normal" fill="#000000">
                <tspan x="25.015625" y="164.065156">accuracy</tspan>
            </text>
            <polyline id="Stroke-29" stroke="#1F77B4" stroke-width="1.5" stroke-linecap="square" stroke-linejoin="round" points="69.218182 242.116364 69.35676 240.331061 69.402953 241.223712 69.541531 237.454739 69.587723 237.256372 69.680109 234.280867 69.726301 236.958821 69.772494 235.272702 70.511577 210.675192 70.742541 197.186235 71.112082 180.027489 71.296853 168.621386 71.712587 145.511629 71.75878 146.900198 71.804972 146.007546 72.220707 124.187175 72.266899 125.972478 72.405477 119.823101 72.497863 124.243849 72.636441 112.979439 72.682634 114.169641 72.728826 112.979439 73.098368 103.160272 73.190753 103.755373 73.236946 103.160272 73.283139 99.391299 73.375524 100.879051 73.421717 100.680684 73.560295 96.713344 73.606487 98.796198 73.745065 92.547637 73.791258 95.126408 73.837451 93.539472 73.883644 93.241921 73.976029 95.919876 74.022222 94.432123 74.068414 94.531307 74.114607 94.432123 74.253185 90.563967 74.299378 92.746004 74.391763 92.051719 74.437956 92.150903 74.946075 88.183562 74.992268 88.67948 75.130846 86.497443 75.223232 88.580296 75.269424 87.489278 75.36181 84.811323 75.408002 86.199892 75.54658 86.001525 75.685158 83.422754 75.777544 86.69581 75.869929 82.430919 75.916122 83.125204 75.962315 85.108874 76.008507 83.02602 76.0547 83.323571 76.100893 81.736635 76.147085 84.513773 76.239471 84.017855 76.285663 80.348066 76.378049 81.04235 76.424242 82.72847 76.470434 81.339901 76.516627 80.943167 76.56282 81.141534 76.609012 81.141534 76.655205 81.935002 76.793783 78.364395 76.886168 80.7448 76.932361 77.967661 76.978554 79.852148 77.024746 79.554597 77.070939 77.37256 77.117132 78.463579 77.163325 80.546433 77.209517 78.959496 77.348095 77.471744 77.394288 78.364395 77.440481 75.785624 77.486673 77.769294 77.579059 75.983991 77.717637 79.455414 77.76383 79.05868 77.902408 75.983991 77.9486 76.975826 78.040986 74.397055 78.087178 76.876643 78.179564 76.777459 78.225756 72.710936 78.318142 73.10767 78.364334 74.694606 78.410527 72.314202 78.502913 72.909303 78.595298 73.901138 78.687683 70.925632 78.733876 72.413385 78.780069 73.10767 78.918647 70.925632 78.964839 73.008486 79.011032 72.016651 79.103418 72.314202 79.14961 69.592794 79.195803 72.115835 79.241996 67.950127 79.288188 69.140329 79.334381 70.528898 79.426766 70.429715 79.472959 71.322366 79.519152 67.553393 79.611537 68.545228 79.65773 68.247678 79.703923 69.43788 79.750115 67.45421 79.796308 68.941962 79.842501 70.727265 79.888693 68.346861 79.934886 66.759925 79.981079 67.057476 80.027271 68.941962 80.073464 66.859109 80.119657 68.545228 80.165849 65.371356 80.212042 67.156659 80.258235 67.156659 80.304427 67.355026 80.396813 68.545228 80.489198 65.76809 80.535391 66.462375 80.581584 67.255843 80.627776 64.974622 80.720162 65.47054 80.766354 66.958292 80.812547 66.164824 80.997318 64.280338 81.043511 66.363191 81.089703 65.47054 81.135896 65.371356 81.182089 64.478705 81.274474 66.859109 81.366859 64.181154 81.413052 65.371356 81.459245 65.76809 81.55163 62.197484 81.644016 63.883604 81.690208 64.181154 81.782594 61.701566 81.921172 65.867274 82.05975 60.511364 82.105942 60.808915 82.152135 63.982787 82.198328 61.503199 82.24452 61.602383 82.336906 63.090135 82.383099 60.908098 82.429291 61.80075 82.475484 65.240052 82.521677 61.602383 82.660255 57.734226 82.798833 61.007282 82.845025 59.717896 82.891218 60.312997 82.937411 61.80075 82.983604 61.106465 83.122182 58.726061 83.214567 60.610548 83.26076 59.023612 83.306952 62.395851 83.353145 60.808915 83.399338 58.825245 83.44553 60.11463 83.491723 60.908098 83.676494 57.337492 83.768879 60.015447 83.815072 61.304832 83.861265 60.808915 83.95365 55.750556 83.999843 59.221979 84.046035 57.238309 84.092228 59.717896 84.138421 58.230144 84.184613 59.717896 84.230806 59.618713 84.46177 57.238309 84.507962 58.626878 84.554155 58.230144 84.600348 57.635043 84.64654 59.321162 84.692733 58.825245 84.738926 57.238309 84.785118 57.734226 84.831311 58.13096 84.923697 56.14729 84.969889 57.436676 85.016082 57.337492 85.062275 59.221979 85.108467 57.734226 85.15466 58.230144 85.247045 55.651373 85.293238 56.742391 85.339431 57.436676 85.385623 55.84974 85.431816 56.643208 85.478009 57.139125 85.524201 55.254639 85.570394 57.337492 85.616587 57.238309 85.755165 54.857904 85.84755 57.436676 85.893743 56.742391 85.939936 55.552189 86.032321 55.750556 86.170899 56.742391 86.217092 56.246474 86.35567 54.361987 86.401863 57.337492 86.448055 56.544024 86.632826 52.973418 86.771404 54.659537 86.817597 54.659537 86.86379 54.957088 86.909982 53.766886 86.956175 55.056271 87.002368 54.16362 87.04856 53.568519 87.094753 53.766886 87.140946 56.14729 87.187138 54.560354 87.279524 54.957088 87.325716 52.576684 87.371909 54.857904 87.418102 54.560354 87.464294 55.056271 87.55668 54.957088 87.741451 54.16362 87.833836 55.552189 87.972414 53.171785 88.018607 53.766886 88.064799 53.469335 88.110992 52.775051 88.24957 54.46117 88.388148 51.981583 88.434341 52.080766 88.480534 54.46117 88.526726 52.874234 88.572919 52.973418 88.619112 51.584849 88.665304 52.973418 88.75769 52.080766 88.803883 53.965253 88.850075 52.279133 88.896268 53.171785 88.942461 52.675867 88.988653 51.981583 89.034846 53.171785 89.127231 53.149111 89.173424 51.882399 89.219617 52.576684 89.265809 52.775051 89.312002 50.791381 89.358195 52.378317 89.404387 53.667702 89.45058 52.279133 89.542966 53.370152 89.589158 52.576684 89.635351 52.775051 89.681544 52.4775 89.727736 53.568519 89.773929 51.783216 89.820122 52.378317 89.866314 54.064436 89.912507 50.989748 90.004892 51.088931 90.051085 50.791381 90.143471 52.378317 90.189663 51.783216 90.235856 51.088931 90.282049 51.981583 90.328241 53.370152 90.374434 51.287298 90.420627 51.584849 90.466819 52.675867 90.513012 52.279133 90.605397 50.692197 90.65159 52.080766 90.697783 50.394647 91.067324 52.17995 91.113517 50.692197 91.15971 51.188115 91.205902 51.386482 91.252095 50.19628 91.298288 51.783216 91.390673 50.49383 91.483059 52.775051 91.529251 51.485665 91.575444 49.898729 91.621637 49.997913 91.667829 52.279133 91.760215 51.882399 91.8526 50.890564 91.898793 51.287298 92.037371 52.378317 92.129756 48.708527 92.175949 50.692197 92.222142 50.890564 92.268334 50.791381 92.314527 49.997913 92.406912 51.584849 92.453105 49.763647 92.499298 50.791381 92.54549 51.981583 92.591683 49.799546 92.637876 50.394647 92.684068 52.4775 92.730261 51.287298 92.776454 51.386482 92.822647 50.593014 92.868839 51.088931 92.915032 50.989748 93.05361 49.799546 93.099803 50.890564 93.192188 50.593014 93.238381 49.501995 93.284573 50.097096 93.330766 50.295463 93.423152 51.783216 93.515537 52.080766 93.56173 49.006078 93.700308 50.791381 93.792693 49.303628 93.838886 50.890564 93.885078 50.295463 93.977464 49.799546 94.023657 50.890564 94.069849 49.501995 94.116042 49.402812 94.208427 50.791381 94.25462 50.295463 94.300813 49.204445 94.347005 50.989748 94.439391 50.49383 94.531776 51.882399 94.670354 48.708527 94.76274 50.791381 94.808932 49.799546 94.901318 49.204445 94.94751 49.303628 95.039896 49.799546 95.086088 48.807711 95.132281 49.601179 95.178474 50.295463 95.363245 48.51016 95.409437 48.906894 95.45563 48.113426 95.594208 50.49383 95.686593 48.410977 95.732786 48.807711 95.778979 51.21456 95.825171 48.906894 95.871364 50.097096 95.917557 49.303628 95.963749 48.51016 96.009942 48.807711 96.056135 49.601179 96.194713 47.419142 96.240906 47.915059 96.287098 49.997913 96.333291 48.708527 96.518062 49.700362 96.564254 47.915059 96.610447 49.700362 96.65664 50.394647 96.795218 48.807711 96.841411 48.708527 96.933796 49.303628 97.026181 48.113426 97.072374 48.51016 97.210952 50.593014 97.257145 48.21261 97.303338 48.807711 97.34953 50.097096 97.395723 47.617509 97.488108 48.609344 97.534301 48.51016 97.580494 48.609344 97.626686 48.807711 97.672879 47.716692 97.719072 49.006078 97.765264 49.799546 97.811457 49.303628 97.950035 48.807711 97.996228 49.105261 98.042421 50.19628 98.088613 49.601179 98.134806 48.51016 98.180999 48.807711 98.319577 50.19628 98.365769 48.21261 98.458155 48.410977 98.55054 47.319958 98.596733 49.799546 98.642926 47.815876 98.735311 47.716692 98.873889 49.700362 98.920082 49.006078 98.966274 48.014243 99.012467 49.501995 99.05866 47.319958 99.104852 48.796369 99.197238 47.419142 99.289623 47.617509 99.382009 47.518325 99.428201 48.609344 99.474394 48.014243 99.520587 49.105261 99.566779 48.113426 99.612972 48.21261 99.705357 49.105261 99.936321 47.815876 99.982514 49.006078 100.028706 48.410977 100.074899 48.410977 100.167284 48.51016 100.213477 47.716692 100.305862 49.006078 100.352055 48.21261 100.398248 48.014243 100.44444 48.906894 100.490633 47.319958 100.536826 48.906894 100.629211 48.014243 100.675404 48.410977 100.721597 47.319958 100.767789 48.21261 100.860175 48.51016 100.95256 47.518325 100.998753 48.51016 101.044945 48.311793 101.183524 47.617509 101.229716 48.21261 101.322102 48.113426 101.368294 48.410977 101.414487 47.121591 101.46068 48.906894 101.553065 47.121591 101.64545 49.006078 101.691643 48.51016 101.737836 48.410977 101.876414 47.022408 101.922607 47.915059 101.968799 47.121591 102.014992 47.319958 102.061185 48.51016 102.107377 47.716692 102.15357 47.022408 102.199763 47.617509 102.338341 48.311793 102.523112 47.419142 102.569304 48.51016 102.615497 47.716692 102.66169 47.716692 102.707882 47.419142 102.754075 47.716692 102.84646 48.410977 102.985038 46.923224 103.169809 48.311793 103.262195 47.319958 103.308387 48.21261 103.400773 48.014243 103.446965 48.014243 103.493158 48.51016 103.539351 46.625673 103.631736 46.724857 103.724121 47.915059 103.770314 47.319958 103.816507 47.022408 103.8627 48.51016 103.908892 48.014243 104.04747 46.923224 104.093663 47.121591 104.139856 47.022408 104.186048 46.328123 104.232241 47.022408 104.278434 48.51016 104.324626 47.518325 104.463205 46.923224 104.509397 48.906894 104.55559 48.113426 104.832746 46.52649 104.878939 47.915059 104.925131 46.724857 104.971324 46.923224 105.109902 48.311793 105.202288 46.427306 105.24848 47.220775 105.294673 46.923224 105.340866 47.121591 105.387058 47.121591 105.433251 47.419142 105.479444 47.319958 105.525636 46.030572 105.571829 46.724857 105.618022 47.220775 105.664214 46.328123 105.710407 47.121591 105.7566 48.312731 105.802793 47.022408 105.941371 47.815876 105.987563 46.724857 106.033756 47.518325 106.126141 48.410977 106.310912 46.52649 106.44949 47.518325 106.495683 47.121591 106.541876 47.319958 106.588068 48.014243 106.634261 47.716692 106.680454 46.427306 106.726646 47.022408 106.772839 47.022408 106.819032 46.328123 106.865224 47.121591 106.911417 47.915059 106.95761 46.923224 107.049995 47.419142 107.096188 46.724857 107.142381 47.815876 107.234766 47.518325 107.280959 46.427306 107.373344 46.724857 107.419537 47.617509 107.465729 46.328123 107.511922 47.220775 107.558115 47.220775 107.604307 47.419142 107.696693 46.328123 107.742886 47.815876 107.789078 47.022408 107.835271 47.121591 107.881464 47.915059 107.927656 46.824041 107.973849 47.815876 108.020042 47.022408 108.066234 47.617509 108.112427 47.518325 108.15862 46.923224 108.204812 47.518325 108.251005 47.915059 108.297198 46.625673 108.389583 47.022408 108.435776 46.923224 108.481969 47.815876 108.528161 47.518325 108.574354 46.824041 108.666739 47.022408 108.712932 48.014243 108.759125 47.518325 108.85151 46.923224 108.897703 47.022408 108.943895 47.815876 108.990088 46.724857 109.128666 47.617509 109.174859 46.427306 109.221052 47.319958 109.35963 45.832205 109.498208 47.518325 109.5444 46.923224 109.590593 47.121591 109.636786 47.518325 109.729171 47.419142 109.867749 46.328123 109.913942 46.923224 109.960135 45.931389 110.006327 47.121591 110.144905 47.617509 110.329676 46.52649 110.422062 47.121591 110.56064 46.030572 110.74541 47.121591 110.791603 46.52649 110.837796 47.518325 110.883988 46.427306 110.976374 46.52649 111.022567 46.228939 111.161145 46.923224 111.25353 47.022408 111.299723 45.733022 111.345915 47.022408 111.438301 46.724857 111.484493 46.824041 111.530686 46.724857 111.576879 46.228939 111.623072 47.518325 111.669264 46.030572 111.715457 47.319958 111.76165 46.625673 111.807842 47.716692 111.854035 46.52649 111.900228 46.228939 112.038806 47.716692 112.131191 46.129756 112.223576 47.419142 112.269769 46.923224 112.315962 47.220775 112.408347 46.378181 112.45454 46.724857 112.500733 46.923224 112.546925 46.724857 112.593118 45.733022 112.639311 46.427306 112.685503 46.52649 112.777889 46.129756 112.824081 46.923224 112.916467 46.724857 113.008852 46.328123 113.055045 46.625673 113.101238 46.824041 113.14743 46.129756 113.193623 47.022408 113.239816 47.617509 113.378394 45.733022 113.470779 46.724857 113.516972 46.52649 113.609357 45.931389 113.701743 47.022408 113.794128 46.724857 113.840321 47.022408 113.886513 46.030572 113.932706 47.121591 113.978899 46.427306 114.025091 46.129756 114.071284 46.427306 114.117477 46.923224 114.163669 46.129756 114.209862 46.228939 114.302248 46.129756 114.394633 47.518325 114.440826 46.228939 114.533211 46.625673 114.579404 46.328123 114.625596 46.52649 114.671789 46.625673 114.717982 46.52649 114.810367 46.328123 114.902753 46.923224 114.948945 46.724857 114.995138 45.534655 115.041331 47.716692 115.133716 47.022408 115.226101 46.724857 115.272294 45.931389 115.318487 47.419142 115.410872 47.121591 115.503257 46.427306 115.595643 46.228939 115.641836 47.121591 115.688028 47.022408 115.734221 45.410909 115.780414 46.328123 115.872799 46.427306 115.918992 47.022408 116.05757 45.733022 116.103762 47.022408 116.196148 46.52649 116.242341 45.832205 116.334726 46.030572 116.380919 47.716692 116.427111 47.220775 116.611882 46.030572 116.658075 46.724857 116.704267 46.129756 116.75046 45.832205 116.796653 46.030572 116.842846 46.427306 116.889038 45.733022 116.935231 46.427306 117.073809 45.832205 117.120002 45.931389 117.25858 46.724857 117.350965 46.824041 117.397158 45.534655 117.44335 46.625673 117.489543 46.228939 117.535736 46.030572 117.581929 46.923224 117.628121 46.228939 117.720507 45.931389 117.766699 46.129756 117.812892 45.435471 117.859085 45.832205 117.905277 46.228939 117.95147 45.435471 117.997663 46.228939 118.136241 47.022408 118.228626 45.931389 118.274819 46.328123 118.321012 46.724857 118.367204 46.427306 118.413397 46.030572 118.45959 46.52649 118.551975 46.228939 118.64436 46.625673 118.690553 46.427306 118.736746 45.633838 118.782939 46.52649 118.829131 45.832205 118.921517 47.121591 118.967709 46.427306 119.013902 46.625673 119.106287 45.633838 119.15248 46.625673 119.198673 46.427306 119.244865 45.733022 119.291058 46.030572 119.337251 46.030572 119.383443 46.724857 119.429636 46.328123 119.475829 45.832205 119.568214 46.030572 119.614407 45.931389 119.706792 46.328123 119.799178 45.733022 119.891563 46.52649 119.983948 45.633838 120.076334 46.724857 120.214912 45.435471 120.261105 46.724857 120.307297 46.228939 120.445875 45.633838 120.538261 46.724857 120.584453 45.733022 120.676839 45.931389 120.723031 46.824041 120.815417 46.52649 120.86161 46.923224 120.907802 46.52649 121.04638 45.435471 121.092573 46.328123 121.138766 46.129756 121.184958 45.931389 121.277344 46.427306 121.323536 45.733022 121.369729 46.030572 121.415922 46.328123 121.462115 46.030572 121.508307 46.030572 121.5545 46.328123 121.600693 46.030572 121.646885 46.030572 121.693078 46.228939 121.739271 45.931389 121.785463 47.220775 121.831656 46.228939 121.877849 45.633838 121.970234 45.733022 122.016427 45.534655 122.108812 45.435471 122.155005 46.52649 122.24739 45.931389 122.385968 47.345456 122.339776 45.832205 122.432161 46.724857 122.524546 45.237104 122.616932 46.923224 122.663124 45.832205 122.709317 46.824041 122.801703 45.633838 122.847895 46.724857 122.940281 46.52649 122.986473 46.824041 123.125051 45.931389 123.171244 45.931389 123.217437 46.52649 123.263629 46.030572 123.356015 45.534655 123.540786 46.228939 123.586978 45.237104 123.633171 46.427306 123.725556 46.52649 123.771749 45.633838 123.864134 46.923224 124.002713 45.534655 124.141291 45.931389 124.187483 45.038737 124.326061 46.625673 124.418447 45.633838 124.510832 45.931389 124.557025 46.427306 124.603217 45.435471 124.64941 46.328123 124.695603 45.931389 124.741796 46.427306 124.834181 46.129756 124.926566 45.633838 125.018952 46.427306 125.065144 45.633838 125.111337 46.228939 125.15753 46.52649 125.249915 45.534655 125.296108 46.228939 125.388493 46.030572 125.434686 45.733022 125.480879 46.328123 125.527071 46.228939 125.573264 45.633838 125.619457 46.030572 125.665649 46.923224 125.711842 46.861822 125.758035 45.237104 125.804227 45.931389 125.85042 46.328123 125.896613 45.931389 125.942806 45.931389 125.988998 46.129756 126.035191 45.534655 126.081384 45.931389 126.127576 46.52649 126.173769 45.931389 126.219962 46.129756 126.266154 45.237104 126.35854 45.534655 126.54331 46.030572 126.635696 45.733022 126.681889 45.832205 126.728081 45.931389 126.774274 45.633838 126.820467 46.52649 126.866659 45.931389 126.912852 45.336288 126.959045 46.228939 127.005237 45.931389 127.05143 45.733022 127.097623 45.931389 127.190008 46.328123 127.328586 45.534655 127.374779 46.625673 127.467164 46.52649 127.513357 46.52649 127.651935 45.534655 127.74432 46.129756 127.790513 45.633838 127.882898 45.832205 127.929091 45.733022 128.021477 46.228939 128.067669 45.633838 128.113862 45.931389 128.25244 46.328123 128.344825 45.336288 128.391018 45.633838 128.437211 46.228939 128.483403 45.534655 128.529596 45.733022 128.621982 45.832205 128.668174 45.137921 128.806752 45.832205 128.899138 45.137921 128.991523 46.625673 129.037716 44.443636 129.083908 45.832205 129.176294 45.336288 129.314872 46.228939 129.407257 46.129756 129.45345 45.435471 129.499643 46.328123 129.638221 45.534655 129.684413 46.52649 129.730606 46.129756 129.776799 45.137921 129.822991 45.832205 129.915377 45.534655 130.007762 45.435471 130.053955 46.625673 130.14634 45.336288 130.192533 45.633838 130.238726 46.129756 130.284918 45.931389 130.377304 46.030572 130.423496 45.435471 130.469689 46.030572 130.515882 45.534655 130.562075 45.733022 130.608267 45.633838 130.65446 45.435471 130.700653 45.931389 130.793038 45.832205 130.839231 45.633838 130.885423 45.733022 131.024001 46.129756 131.070194 45.931389 131.116387 46.228939 131.16258 45.435471 131.254965 45.733022 131.393543 46.030572 131.439736 45.733022 131.485928 45.931389 131.532121 46.129756 131.578314 45.237104 131.624506 46.427306 131.670699 45.534655 131.809277 46.427306 131.85547 46.129756 131.901663 45.733022 131.947855 46.328123 131.994048 45.534655 132.040241 46.228939 132.178819 45.633838 132.225011 46.625673 132.271204 45.336288 132.363589 47.829091 132.502168 45.633838 132.594553 45.435471 132.733131 46.427306 132.779324 46.129756 132.917902 45.435471 132.964094 46.328123 133.010287 45.931389 133.148865 45.038737 133.195058 45.633838 133.287443 45.534655 133.379829 46.030572 133.426021 45.336288 133.472214 45.534655 133.518407 46.129756 133.564599 46.030572 133.703177 45.534655 133.795563 46.228939 133.841756 46.030572 134.026526 44.939554 134.118912 46.030572 134.165104 45.931389 134.211297 45.435471 134.25749 46.52649 134.303682 46.328123 134.442261 45.336288 134.488453 46.129756 134.534646 45.931389 134.580839 45.534655 134.627031 45.832205 134.673224 46.129756 134.719417 45.435471 134.765609 45.931389 134.811802 46.724857 134.857995 45.832205 134.904187 45.336288 134.95038 45.733022 135.042765 45.633838 135.088958 46.129756 135.135151 46.030572 135.181344 45.435471 135.227536 46.129756 135.273729 46.328123 135.412307 45.237104 135.504692 45.931389 135.550885 45.534655 135.597078 46.030572 135.874234 45.435471 135.966619 46.030572 136.012812 45.237104 136.059005 45.733022 136.15139 45.435471 136.243775 46.228939 136.289968 45.336288 136.336161 45.534655 136.382354 45.832205 136.428546 45.534655 136.474739 45.633838 136.520932 45.336288 136.567124 45.534655 136.613317 46.427306 136.751895 45.038737 136.798088 46.129756 136.84428 45.435471 136.936666 45.336288 137.029051 45.931389 137.121437 45.336288 137.167629 45.733022 137.213822 45.633838 137.260015 45.435471 137.398593 46.328123 137.490978 45.336288 137.537171 46.228939 137.583363 45.534655 137.629556 45.633838 137.675749 45.137921 137.721942 45.832205 137.814327 45.237104 137.86052 45.534655 137.906712 45.832205 138.091483 45.038737 138.183868 44.939554 138.230061 45.931389 138.368639 45.534655 138.507217 46.724857 138.691988 45.435471 138.830566 46.824041 138.876759 44.939554 138.922951 45.336288 138.969144 46.228939 139.015337 45.410909 139.107722 45.534655 139.153915 45.336288 139.200108 45.733022 139.2463 45.435471 139.292493 45.336288 139.338686 45.733022 139.431071 44.939554 139.569649 45.633838 139.708227 45.137921 139.892998 45.733022 139.985383 45.832205 140.031576 45.237104 140.170154 45.435471 140.216347 45.336288 140.262539 45.435471 140.308732 45.435471 140.401118 45.931389 140.539696 45.435471 140.585888 45.733022 140.632081 45.237104 140.678274 45.336288 140.770659 45.633838 140.816852 45.435471 140.909237 45.931389 141.047815 45.237104 141.140201 45.633838 141.186393 45.237104 141.232586 45.931389 141.324971 45.733022 141.463549 45.038737 141.555935 45.633838 141.602128 45.237104 141.64832 45.336288 141.694513 45.931389 141.786898 45.832205 141.833091 45.633838 141.879284 46.129756 141.925476 45.038737 141.971669 45.534655 142.017862 45.733022 142.15644 45.038737 142.202632 45.931389 142.248825 45.038737 142.295018 44.939554 142.341211 45.894543 142.387403 45.237104 142.479789 45.633838 142.525981 45.137921 142.572174 45.435471 142.618367 45.534655 142.710752 44.939554 142.756945 45.038737 142.803137 45.832205 142.895523 45.633838 143.034101 45.137921 143.126486 45.633838 143.172679 45.435471 143.311257 45.832205 143.35745 45.137921 143.449835 45.237104 143.542221 45.237104 143.588413 44.939554 143.634606 45.336288 143.726991 44.939554 143.819377 46.030572 143.957955 45.038737 144.05034 45.534655 144.142725 45.633838 144.188918 45.137921 144.235111 45.633838 144.327496 45.435471 144.466074 45.733022 144.512267 45.137921 144.55846 45.336288 144.604652 45.435471 144.650845 45.137921 144.697038 45.237104 144.789423 45.633838 144.881809 45.336288 144.974194 46.030572 145.066579 44.84037 145.158965 45.931389 145.205157 45.435471 145.25135 45.534655 145.297543 45.832205 145.343735 45.534655 145.389928 45.137921 145.436121 45.435471 145.482313 45.336288 145.528506 45.832205 145.574699 45.237104 145.620892 45.336288 145.667084 47.345456 145.713277 45.137921 145.75947 45.832205 145.851855 45.633838 145.898048 45.435471 145.94424 45.733022 145.990433 44.939554 146.036626 45.832205 146.082818 45.237104 146.129011 45.931389 146.221397 45.832205 146.313782 44.939554 146.359975 45.733022 146.406167 45.038737 146.498553 45.038737 146.590938 45.931389 146.637131 45.435471 146.683323 45.237104 146.775709 45.832205 146.868094 44.84037 146.914287 45.733022 147.006672 45.534655 147.052865 45.038737 147.099058 45.733022 147.191443 45.336288 147.237636 45.534655 147.283828 45.038737 147.330021 45.733022 147.376214 45.137921 147.422406 45.733022 147.468599 45.336288 147.514792 45.336288 147.560985 46.030572 147.607177 45.534655 147.745755 45.137921 147.791948 45.137921 147.838141 46.129756 147.884333 45.237104 147.930526 45.336288 147.976719 45.733022 148.022911 45.534655 148.16149 44.939554 148.34626 45.633838 148.484838 45.435471 148.531031 45.633838 148.577224 45.336288 148.623416 46.228939 148.669609 46.030572 148.715802 44.939554 148.761995 45.237104 148.808187 45.633838 148.946765 44.642003 148.992958 47.345456 149.039151 45.733022 149.085343 46.030572 149.131536 45.038737 149.177729 45.336288 149.270114 45.733022 149.316307 45.237104 149.408692 45.336288 149.454885 45.733022 149.501078 44.741187 149.54727 45.534655 149.639656 45.237104 149.778234 45.733022 149.824426 45.038737 149.870619 45.931389 149.916812 45.137921 150.009197 45.435471 150.147775 45.237104 150.193968 45.237104 150.240161 45.733022 150.286353 44.939554 150.332546 45.336288 150.378739 45.733022 150.424931 45.038737 150.563509 46.228939 150.702088 44.939554 150.74828 46.030572 150.794473 45.137921 150.886858 45.931389 150.933051 45.633838 151.071629 45.237104 151.117822 45.336288 151.164014 45.237104 151.210207 46.030572 151.2564 45.832205 151.302592 45.038737 151.348785 45.633838 151.441171 45.336288 151.487363 45.832205 151.533556 45.237104 151.579749 44.939554 151.718327 45.534655 151.764519 45.237104 151.856905 45.336288 151.94929 45.137921 152.134061 45.931389 152.180254 44.939554 152.272639 45.237104 152.318832 45.410906 152.411217 45.038737 152.45741 45.137921 152.503602 45.435471 152.64218 44.939554 152.734566 45.633838 152.780759 45.336288 152.826951 45.137921 152.919337 45.435471 152.965529 45.336288 153.057915 45.237104 153.242685 45.733022 153.288878 45.534655 153.335071 44.939554 153.427456 45.038737 153.519842 44.939554 153.566034 45.633838 153.612227 45.435471 153.65842 45.038737 153.704612 45.435471 153.750805 45.435471 153.796998 45.733022 153.84319 45.534655 153.981769 45.237104 154.027961 45.832205 154.074154 44.939554 154.166539 45.038737 154.212732 45.534655 154.305117 45.435471 154.35131 45.435471 154.489888 45.038737 154.628466 45.534655 154.674659 44.84037 154.720852 45.336288 154.813237 46.030572 154.85943 45.733022 154.905622 44.741187 154.951815 46.030572 155.0442 44.939554 155.090393 45.038737 155.228971 45.237104 155.275164 44.84037 155.321357 45.633838 155.413742 45.336288 155.459935 45.435471 155.506127 45.137921 155.55232 45.435471 155.598513 45.336288 155.644705 46.378181 155.690898 44.84037 155.783283 45.237104 155.829476 45.336288 155.875669 44.939554 155.968054 45.038737 156.014247 45.038737 156.06044 45.633838 156.106632 45.336288 156.152825 44.939554 156.199018 45.137921 156.291403 45.931389 156.337596 45.534655 156.476174 44.84037 156.522366 45.832205 156.568559 45.733022 156.614752 45.237104 156.660945 45.534655 156.707137 46.427306 156.845715 45.038737 156.891908 45.137921 156.938101 45.633838 156.984293 45.137921 157.030486 45.038737 157.076679 45.137921 157.122871 45.336288 157.169064 44.939554 157.215257 45.733022 157.307642 45.534655 157.400028 45.038737 157.44622 45.137921 157.538606 45.038737 157.584798 45.336288 157.630991 45.237104 157.677184 44.54282 157.723376 45.435471 157.769569 46.030572 157.861954 44.939554 157.908147 45.435471 158.000533 44.741187 158.046725 45.733022 158.092918 45.137921 158.139111 45.237104 158.185303 44.939554 158.231496 45.237104 158.277689 45.137921 158.323881 44.741187 158.370074 44.939554 158.416267 45.534655 158.462459 45.237104 158.554845 45.038737 158.693423 45.733022 158.785808 45.137921 158.924386 46.030572 158.970579 44.927271 159.016772 45.237104 159.062964 45.435471 159.109157 45.038737 159.15535 45.733022 159.201543 44.84037 159.340121 45.733022 159.432506 44.939554 159.478699 45.336288 159.663469 44.741187 159.709662 44.939554 159.802047 45.832205 159.940626 44.741187 159.986818 44.741187 160.033011 45.633838 160.079204 44.84037 160.217782 45.534655 160.263974 45.336288 160.310167 44.741187 160.35636 45.038737 160.448745 45.137921 160.541131 44.939554 160.633516 44.84037 160.679709 45.534655 160.818287 45.038737 160.910672 44.642003 160.956865 45.336288 161.04925 45.137921 161.187828 45.534655 161.372599 44.741187 161.418792 44.642003 161.55737 45.237104 161.74214 44.642003 161.788333 45.435471 161.834526 44.642003 162.065489 45.435471 162.204067 45.038737 162.342645 45.633838 162.527416 44.939554 162.573609 44.939554 162.665994 45.733022 162.712187 44.54282 162.75838 45.237104 162.804572 45.832205 162.850765 44.741187 162.94315 45.038737 162.989343 44.84037 163.035536 45.633838 163.081729 45.038737 163.127921 45.038737 163.174114 44.741187 163.220307 45.534655 163.266499 44.84037 163.405077 45.237104 163.497463 45.137921 163.682233 45.435471 163.774619 44.741187 163.820812 45.534655 163.867004 44.54282 163.95939 45.336288 164.005582 44.84037 164.051775 45.137921 164.190353 46.030572 164.328931 44.84037 164.375124 45.336288 164.421317 45.137921 164.513702 44.741187 164.606087 44.642003 164.698473 45.237104 164.744665 45.038737 164.790858 45.534655 164.837051 45.237104 164.883243 45.038737 164.929436 45.237104 165.068014 45.435471 165.206592 44.939554 165.252785 45.336288 165.298978 45.038737 165.34517 45.137921 165.391363 45.633838 165.437556 45.038737 165.483748 45.137921 165.529941 44.84037 165.576134 45.137921 165.622326 45.410909 165.668519 44.939554 165.714712 45.237104 165.807097 45.137921 165.899483 45.237104 166.038061 44.54282 166.084253 44.741187 166.130446 44.741187 166.222831 45.237104 166.269024 44.939554 166.407602 45.336288 166.499988 44.84037 166.54618 45.237104 166.592373 44.642003 166.638566 45.336288 166.684758 45.435471 166.823336 44.84037 166.961914 45.435471 167.008107 44.84037 167.100493 44.939554 167.146685 45.038737 167.239071 44.642003 167.377649 45.336288 167.423841 44.84037 167.470034 45.534655 167.562419 44.84037 167.608612 45.336288 167.654805 44.939554 167.74719 45.237104 167.793383 44.939554 167.839576 45.733022 167.885768 44.84037 167.978154 44.741187 168.070539 45.237104 168.116732 45.038737 168.162924 45.038737 168.209117 44.84037 168.25531 44.939554 168.393888 45.237104 168.440081 44.939554 168.486273 45.038737 168.532466 45.435471 168.578659 45.038737 168.624851 45.038737 168.671044 45.931389 168.717237 45.435471 168.763429 45.534655 168.809622 44.84037 168.902007 45.038737 168.9482 44.443636 168.994393 44.84037 169.040586 44.84037 169.086778 45.038737 169.132971 44.939554 169.179164 44.741187 169.225356 44.939554 169.363934 45.336288 169.410127 45.038737 169.45632 45.534655 169.502512 44.939554 169.548705 45.038737 169.687283 44.741187 169.779669 45.336288 169.918247 44.84037 169.964439 44.84037 170.010632 45.038737 170.056825 44.741187 170.103017 45.038737 170.241595 44.741187 170.287788 44.939554 170.333981 44.642003 170.380174 44.939554 170.426366 44.939554 170.472559 44.642003 170.518752 45.137921 170.564944 45.038737 170.611137 44.741187 170.65733 45.137921 170.888293 45.137921 170.934486 44.84037 170.980679 45.137921 171.073064 44.84037 171.165449 44.741187 171.211642 45.237104 171.35022 45.038737 171.396413 45.237104 171.442605 44.642003 171.534991 44.84037 171.627376 45.237104 171.719762 44.642003 171.765954 45.435471 171.85834 45.336288 171.950725 44.642003 171.996918 45.237104 172.04311 45.137921 172.089303 44.84037 172.135496 45.137921 172.366459 44.84037 172.458845 45.137921 172.505037 44.741187 172.55123 45.336288 172.597423 45.038737 172.643615 44.939554 172.736001 45.336288 172.782193 45.237104 172.966964 44.84037 173.05935 45.137921 173.24412 44.642003 173.290313 44.54282 173.382698 45.137921 173.428891 44.939554 173.567469 45.237104 173.659855 44.741187 173.706047 44.939554 173.75224 44.741187 173.798433 45.237104 173.890818 45.038737 173.937011 45.038737 173.983203 44.84037 174.075589 45.336288 174.214167 44.741187 174.26036 45.336288 174.352745 45.237104 174.398938 45.534655 174.44513 45.336288 174.491323 45.336288 174.583708 44.741187 174.676094 45.237104 174.722286 45.038737 174.768479 45.137921 174.907057 44.741187 175.045635 45.237104 175.138021 45.336288 175.184213 44.741187 175.230406 45.832205 175.276599 45.336288 175.368984 44.741187 175.415177 45.038737 175.46137 45.137921 175.507562 44.84037 175.553755 44.939554 175.599948 45.410909 175.64614 44.84037 175.738526 45.237104 175.784718 45.137921 175.877104 44.741187 175.923296 44.84037 175.969489 44.84037 176.015682 44.642003 176.061874 44.84037 176.108067 44.939554 176.15426 45.534655 176.200453 45.038737 176.246645 45.137921 176.339031 44.741187 176.385223 45.534655 176.431416 44.741187 176.477609 44.84037 176.523801 44.741187 176.569994 45.336288 176.662379 45.237104 176.800958 44.939554 176.84715 44.939554 176.893343 44.741187 176.939536 45.237104 176.985728 44.84037 177.031921 44.741187 177.124306 45.038737 177.262884 44.642003 177.401462 45.137921 177.447655 45.336288 177.540041 44.54282 177.632426 45.336288 177.678619 45.038737 177.724811 45.038737 177.863389 44.741187 178.001967 45.633838 178.04816 44.642003 178.140546 45.038737 178.186738 44.939554 178.232931 45.336288 178.279124 45.137921 178.371509 44.84037 178.510087 45.237104 178.55628 44.84037 178.602472 45.336288 178.648665 44.939554 178.741051 45.336288 178.833436 44.939554 178.925821 44.927271 178.972014 45.336288 179.018207 45.336288 179.064399 45.633838 179.156785 44.741187 179.202977 44.939554 179.24917 44.741187 179.387748 45.534655 179.433941 44.741187 179.526326 45.038737 179.618712 45.336288 179.75729 44.84037 179.849675 44.741187 179.895868 45.038737 179.94206 44.443636 179.988253 45.237104 180.034446 44.741187 180.080639 45.237104 180.126831 45.038737 180.173024 45.137921 180.265409 45.534655 180.357795 44.741187 180.403987 45.237104 180.496373 45.038737 180.634951 44.84037 180.773529 45.237104 180.9583 45.038737 181.004492 45.336288 181.14307 44.642003 181.235456 44.939554 181.281648 44.642003 181.327841 45.336288 181.374034 44.939554 181.420227 44.84037 181.512612 45.435471 181.558805 44.84037 181.604997 45.137921 181.65119 45.237104 181.835961 44.741187 181.882153 45.435471 181.928346 44.939554 182.020732 44.939554 182.066924 45.137921 182.113117 44.642003 182.15931 45.038737 182.205502 45.137921 182.251695 44.443636 182.297888 44.54282 182.436466 45.038737 182.528851 45.137921 182.575044 44.939554 182.621236 45.534655 182.667429 45.137921 182.713622 45.237104 182.759815 44.939554 182.8522 45.038737 182.898393 45.237104 182.944585 44.741187 183.036971 44.939554 183.267934 44.84037 183.314127 45.435471 183.36032 44.642003 183.406512 44.741187 183.452705 45.237104 183.54509 45.137921 183.591283 44.741187 183.637476 45.038737 183.683668 45.137921 183.729861 45.038737 183.822246 45.137921 183.868439 45.237104 183.960825 44.741187 184.007017 44.939554 184.05321 44.741187 184.099403 44.84037 184.237981 45.237104 184.330366 44.642003 184.376559 44.741187 184.422751 45.237104 184.468944 44.84037 184.515137 44.741187 184.561329 44.84037 184.607522 44.84037 184.653715 44.642003 184.7461 45.336288 184.792293 44.939554 184.838486 45.038737 184.884678 45.534655 184.930871 45.038737 184.977064 44.939554 185.023256 45.038737 185.161834 45.038737 185.208027 45.534655 185.25422 44.642003 185.300413 45.038737 185.392798 45.137921 185.438991 44.741187 185.485183 45.038737 185.531376 44.939554 185.577569 44.443636 185.623761 45.237104 185.669954 44.84037 185.716147 44.84037 185.808532 45.038737 185.94711 44.642003 186.039496 45.038737 186.131881 44.741187 186.178074 44.939554 186.224266 44.642003 186.270459 45.336288 186.362844 45.137921 186.45523 44.54282 186.501422 45.336288 186.547615 44.939554 186.593808 44.84037 186.732386 45.038737 186.824771 44.741187 186.870964 45.336288 186.963349 45.237104 187.055735 44.741187 187.101927 44.84037 187.14812 45.336288 187.194313 44.84037 187.240506 45.038737 187.332891 44.642003 187.379084 45.237104 187.425276 44.642003 187.471469 44.642003 187.65624 45.038737 187.702432 45.137921 187.794818 44.939554 187.84101 45.038737 187.979589 45.435471 188.118167 44.642003 188.164359 44.939554 188.210552 44.84037 188.302937 44.741187 188.34913 45.237104 188.395323 44.84037 188.441515 44.741187 188.533901 45.038737 188.626286 44.54282 188.672479 44.741187 188.764864 45.237104 188.903442 44.443636 189.04202 45.237104 189.134406 45.038737 189.180599 44.642003 189.226791 45.038737 189.272984 44.84037 189.319177 44.939554 189.503947 44.939554 189.55014 45.237104 189.596333 45.038737 189.642525 45.038737 189.688718 44.84037 189.781103 45.435471 189.827296 45.038737 189.873489 45.137921 189.919682 45.237104 190.05826 44.642003 190.289223 45.038737 190.335416 44.54282 190.427801 44.741187 190.520187 44.642003 190.566379 44.939554 190.612572 44.741187 190.704957 44.54282 190.75115 44.939554 190.797343 44.741187 190.843535 44.741187 190.889728 45.137921 190.935921 44.741187 191.028306 44.939554 191.120692 44.54282 191.25927 45.237104 191.305462 44.642003 191.351655 45.237104 191.44404 44.84037 191.490233 45.038737 191.675004 44.642003 191.767389 45.137921 191.813582 44.939554 191.859775 44.939554 191.998353 44.741187 192.044545 45.137921 192.090738 44.939554 192.136931 44.939554 192.183123 45.237104 192.275509 45.137921 192.414087 45.038737 192.598858 44.54282 192.737436 44.84037 192.783628 44.642003 192.876014 45.137921 192.968399 44.741187 193.014592 44.84037 193.15317 45.237104 193.337941 44.84037 193.476519 45.137921 193.568904 44.84037 193.615097 45.336288 193.707482 45.237104 193.753675 44.642003 193.799868 44.939554 193.84606 44.939554 193.892253 44.741187 193.938446 45.137921 193.984638 44.939554 194.030831 44.84037 194.077024 45.137921 194.123216 44.642003 194.169409 44.84037 194.215602 45.137921 194.261794 44.741187 194.307987 44.741187 194.400373 45.038737 194.446565 44.939554 194.492758 44.741187 194.538951 44.84037 194.585143 45.237104 194.631336 44.939554 194.816107 45.137921 194.954685 44.642003 195.093263 45.137921 195.139456 44.84037 195.185648 44.84037 195.278034 45.038737 195.416612 44.84037 195.462804 45.137921 195.508997 44.84037 195.55519 44.443636 195.601382 44.939554 195.647575 45.137921 195.693768 44.642003 195.739961 45.633838 195.832346 45.237104 195.970924 44.642003 196.017117 44.741187 196.155695 45.137921 196.201887 44.84037 196.24808 45.534655 196.294273 44.642003 196.340466 44.642003 196.386658 45.137921 196.432851 44.84037 196.479044 44.642003 196.525236 44.84037 196.571429 45.038737 196.617622 44.741187 196.663814 44.939554 196.710007 45.137921 196.7562 44.741187 196.848585 44.84037 196.894778 44.54282 196.94097 44.939554 196.987163 44.741187 197.125741 45.435471 197.264319 44.54282 197.402897 45.038737 197.495283 44.741187 197.541475 45.038737 197.587668 44.741187 197.633861 44.642003 197.772439 45.237104 197.911017 44.741187 197.95721 44.84037 198.003402 45.137921 198.049595 44.642003 198.095788 45.237104 198.14198 45.435471 198.234366 44.642003 198.280559 44.939554 198.465329 44.54282 198.511522 45.038737 198.603907 44.939554 198.6501 45.237104 198.696293 44.741187 198.788678 44.84037 198.834871 45.237104 198.881063 44.927271 198.927256 44.939554 199.065834 44.741187 199.15822 45.137921 199.250605 44.642003 199.34299 45.534655 199.389183 44.84037 199.481568 45.038737 199.573954 44.642003 199.666339 44.741187 199.758725 45.435471 199.804917 45.038737 199.897303 44.939554 199.943495 44.54282 199.989688 44.84037 200.128266 44.939554 200.266844 44.741187 200.313037 45.137921 200.35923 44.939554 200.451615 44.54282 200.544 45.038737 200.590193 44.54282 200.682578 44.642003 200.728771 45.237104 200.774964 44.741187 200.867349 44.84037 200.913542 45.336288 200.959735 44.642003 201.005927 44.741187 201.05212 45.237104 201.098313 44.642003 201.144505 44.84037 201.190698 44.741187 201.236891 44.443636 201.283083 45.237104 201.329276 44.939554 201.375469 44.741187 201.421661 44.84037 201.56024 45.038737 201.698818 44.84037 201.74501 45.038737 201.791203 44.84037 201.837396 44.939554 201.883588 44.642003 201.929781 44.939554 201.975974 45.038737 202.022166 44.642003 202.068359 44.741187 202.160744 45.038737 202.206937 44.443636 202.299323 44.642003 202.345515 44.741187 202.391708 44.642003 202.437901 44.642003 202.622671 45.137921 202.761249 44.642003 202.807442 44.642003 202.853635 44.443636 202.992213 45.237104 203.130791 44.741187 203.176984 45.336288 203.223176 44.939554 203.269369 44.741187 203.315562 45.237104 203.361754 44.84037 203.407947 44.741187 203.546525 45.137921 203.731296 44.642003 203.777489 44.84037 203.823681 44.741187 203.869874 44.54282 203.916067 44.741187 204.008452 44.84037 204.054645 45.435471 204.100837 44.741187 204.193223 44.54282 204.285608 45.137921 204.331801 45.038737 204.377994 44.741187 204.424186 45.137921 204.516572 44.939554 204.562764 45.336288 204.608957 44.939554 204.701342 45.336288 204.793728 44.642003 204.839921 44.84037 204.886113 44.939554 204.932306 44.642003 205.024691 44.741187 205.070884 44.741187 205.209462 45.038737 205.255655 45.038737 205.394233 44.54282 205.440426 44.642003 205.532811 44.443636 205.579004 45.237104 205.625196 45.435471 205.671389 44.741187 205.763774 44.84037 205.85616 45.237104 205.994738 44.443636 206.04093 44.741187 206.133316 45.137921 206.225701 44.84037 206.318087 45.137921 206.410472 45.237104 206.456665 44.741187 206.502857 45.336288 206.54905 44.741187 206.641435 44.741187 206.687628 44.939554 206.733821 44.84037 206.872399 44.54282 206.918592 45.137921 206.964784 44.741187 207.103362 45.038737 207.24194 44.741187 207.288133 44.642003 207.334326 45.435471 207.380518 45.137921 207.472904 44.642003 207.519097 45.038737 207.565289 44.443636 207.611482 44.54282 207.657675 45.237104 207.703867 44.642003 207.75006 44.84037 207.796253 44.642003 207.842445 44.642003 208.027216 45.038737 208.073409 44.741187 208.119602 45.137921 208.25818 44.54282 208.304372 44.741187 208.350565 45.038737 208.396758 44.642003 208.535336 45.038737 208.627721 44.642003 208.673914 44.84037 208.720107 44.84037 208.858685 44.443636 208.904877 44.939554 208.997263 44.741187 209.089648 45.137921 209.135841 44.741187 209.182033 44.939554 209.228226 45.137921 209.274419 44.54282 209.320611 44.84037 209.412997 45.038737 209.45919 44.741187 209.505382 45.038737 209.551575 45.137921 209.690153 44.84037 209.736346 44.939554 209.782538 44.84037 209.828731 44.84037 209.874924 45.038737 209.921116 44.54282 209.967309 44.84037 210.013502 44.84037 210.059695 44.443636 210.105887 44.741187 210.198273 44.642003 210.336851 45.137921 210.383043 44.443636 210.429236 44.642003 210.475429 44.939554 210.521621 44.443636 210.567814 44.939554 210.614007 44.741187 210.6602 45.137921 210.706392 44.443636 210.752585 44.741187 210.798778 45.038737 210.84497 44.642003 210.891163 44.939554 210.937356 45.137921 211.075934 44.642003 211.214512 44.939554 211.306897 44.642003 211.35309 45.137921 211.399283 44.741187 211.445475 44.741187 211.491668 45.137921 211.537861 44.741187 211.630246 44.84037 211.676439 45.336288 211.722631 45.038737 211.815017 44.54282 211.861209 44.642003 211.999788 45.038737 212.138366 44.642003 212.276944 45.733022 212.415522 44.642003 212.600292 45.137921 212.646485 44.443636 212.692678 44.741187 212.738871 44.939554 212.877449 44.642003 212.923641 44.84037 212.969834 44.741187 213.016027 44.741187 213.108412 45.137921 213.154605 44.54282 213.200797 44.939554 213.24699 45.038737 213.385568 44.642003 213.431761 45.038737 213.477954 44.741187 213.524146 44.443636 213.616532 45.137921 213.662724 44.54282 213.708917 44.84037 213.75511 44.939554 213.847495 44.54282 213.986073 45.237104 214.032266 44.84037 214.124651 44.939554 214.217037 44.642003 214.263229 44.741187 214.355615 44.84037 214.401807 44.642003 214.448 44.939554 214.494193 44.84037 214.540385 44.642003 214.586578 45.435471 214.678964 45.237104 214.725156 44.642003 214.771349 44.84037 214.817542 45.038737 214.863734 44.443636 214.909927 44.84037 215.048505 45.137921 215.14089 44.939554 215.187083 45.137921 215.325661 44.443636 215.510432 45.410909 215.695203 44.642003 215.741395 44.642003 215.833781 44.939554 215.972359 44.642003 216.018552 44.642003 216.064744 44.939554 216.110937 44.741187 216.203322 44.54282 216.3419 45.038737 216.480478 44.54282 216.572864 44.741187 216.896213 44.84037 216.942405 45.137921 216.988598 44.939554 217.034791 44.741187 217.080983 44.84037 217.127176 44.939554 217.173369 45.336288 217.219562 45.038737 217.265754 44.642003 217.311947 44.84037 217.35814 45.137921 217.404332 44.939554 217.54291 44.642003 217.635296 44.741187 217.681488 44.54282 217.773874 44.84037 217.820067 44.741187 217.866259 44.84037 217.958645 44.642003 218.004837 44.84037 218.05103 44.741187 218.097223 44.741187 218.143415 44.939554 218.281993 44.54282 218.374379 45.038737 218.420571 44.642003 218.466764 44.741187 218.512957 45.237104 218.55915 44.54282 218.651535 44.939554 218.697728 44.84037 218.882498 44.84037 218.928691 44.642003 218.974884 45.237104 219.021076 44.741187 219.067269 44.84037 219.205847 44.54282 219.25204 45.038737 219.344425 44.84037 219.390618 44.84037 219.483003 44.54282 219.575389 44.939554 219.621581 44.84037 219.760159 44.54282 219.94493 44.939554 219.991123 44.84037 220.037316 44.642003 220.083508 45.137921 220.175894 44.939554 220.268279 44.443636 220.314472 44.642003 220.45305 44.939554 220.545435 44.642003 220.591628 45.237104 220.637821 44.54282 220.822591 44.939554 220.868784 44.54282 220.914977 45.038737 220.961169 44.642003 221.007362 45.237104 221.053555 44.443636 221.192133 44.741187 221.238326 44.54282 221.284518 44.939554 221.330711 44.642003 221.469289 44.741187 221.515482 44.84037 221.65406 44.54282 221.746445 44.443636 221.792638 44.939554 221.885023 44.84037 221.977409 44.642003 222.023601 45.137921 222.115987 44.939554 222.162179 45.410906 222.254565 44.54282 222.300757 44.741187 222.531721 44.642003 222.577914 44.54282 222.670299 44.939554 222.808877 44.54282 222.947455 45.137921 223.039841 44.741187 223.086033 44.84037 223.270804 44.642003 223.316997 44.939554 223.409382 44.84037 223.455575 44.642003 223.501767 44.741187 223.54796 44.741187 223.640345 45.038737 223.732731 44.642003 223.778924 44.741187 223.871309 44.84037 224.009887 44.443636 224.148465 45.137921 224.24085 44.443636 224.287043 44.939554 224.333236 45.038737 224.379429 44.54282 224.425621 45.237104 224.564199 44.642003 224.702777 44.741187 224.841355 44.939554 224.933741 45.038737 224.979933 44.642003 225.118512 44.84037 225.164704 44.642003 225.210897 44.741187 225.25709 44.741187 225.303282 45.038737 225.349475 44.84037 225.44186 44.642003 225.580438 44.939554 225.626631 44.741187 225.672824 45.038737 225.719017 44.939554 225.811402 44.741187 225.94998 45.237104 225.996173 44.642003 226.088558 44.84037 226.134751 44.84037 226.180943 44.642003 226.227136 44.939554 226.273329 44.741187 226.319522 44.741187 226.365714 45.435471 226.411907 44.642003 226.504292 44.642003 226.596678 45.137921 226.64287 44.939554 226.827641 44.443636 226.873834 44.84037 226.920026 44.741187 226.966219 44.54282 227.012412 44.741187 227.104797 44.84037 227.15099 44.443636 227.197183 44.642003 227.243375 44.741187 227.289568 45.137921 227.381953 45.038737 227.612917 44.443636 227.65911 44.642003 227.705302 44.741187 227.751495 44.642003 227.797688 44.443636 227.982458 45.038737 228.121036 44.84037 228.167229 44.84037 228.213422 45.038737 228.259615 44.54282 228.305807 44.939554 228.444385 44.84037 228.536771 44.741187 228.582963 44.84037 228.629156 44.642003 228.675349 44.939554 228.721541 44.642003 228.906312 44.939554 229.091083 44.443636 229.137276 44.443636 229.183468 45.237104 229.229661 44.741187 229.322046 44.443636 229.368239 44.642003 229.414432 44.642003 229.55301 45.038737 229.691588 44.642003 229.737781 44.741187 229.783973 44.642003 229.830166 44.642003 229.876359 45.237104 229.922551 44.642003 229.968744 44.54282 230.061129 44.741187 230.107322 44.54282 230.199708 45.137921 230.2459 44.443636 230.338286 44.642003 230.430671 44.84037 230.523056 44.54282 230.615442 44.84037 230.661634 44.443636 230.707827 44.741187 230.75402 44.84037 230.800212 44.642003 230.846405 44.84037 230.938791 44.443636 230.984983 45.038737 231.077369 44.84037 231.123561 44.939554 231.169754 44.642003 231.215947 44.741187 231.262139 44.84037 231.308332 44.741187 231.44691 44.84037 231.493103 44.54282 231.539296 44.84037 231.585488 44.741187 231.677874 44.939554 231.816452 44.54282 231.862644 44.642003 231.908837 45.038737 231.95503 44.741187 232.001222 44.741187 232.093608 44.54282 232.232186 45.038737 232.370764 44.642003 232.463149 44.939554 232.509342 44.84037 232.555535 44.84037 232.694113 44.443636 232.878884 44.84037 232.925076 44.54282 232.971269 45.038737 233.063654 44.84037 233.109847 44.84037 233.15604 44.443636 233.202232 44.84037 233.248425 44.642003 233.294618 45.038737 233.34081 44.642003 233.479389 44.741187 233.525581 45.038737 233.571774 44.642003 233.710352 45.336288 233.84893 44.54282 233.941315 44.84037 233.987508 44.54282 234.079893 44.642003 234.172279 45.038737 234.218472 44.642003 234.310857 44.741187 234.403242 45.137921 234.54182 44.642003 234.588013 44.939554 234.634206 44.54282 234.680398 44.642003 234.726591 45.137921 234.772784 44.741187 234.911362 45.137921 235.04994 44.443636 235.234711 45.237104 235.373289 44.54282 235.419482 45.137921 235.465674 44.927271 235.511867 44.642003 235.55806 44.741187 235.696638 45.237104 235.74283 45.137921 235.881408 44.642003 235.973794 44.642003 236.019986 45.038737 236.066179 44.939554 236.204757 44.642003 236.389528 45.038737 236.574299 44.443636 236.712877 45.137921 236.805262 44.54282 236.851455 44.741187 236.897648 44.84037 236.94384 44.741187 236.990033 44.54282 237.036226 44.84037 237.128611 44.741187 237.220996 44.443636 237.405767 44.939554 237.45196 45.038737 237.498153 44.939554 237.590538 44.642003 237.636731 45.038737 237.682923 44.939554 237.775309 44.443636 237.867694 44.54282 237.913887 45.237104 237.960079 44.642003 238.006272 44.939554 238.052465 44.741187 238.098658 44.642003 238.14485 44.939554 238.237236 44.84037 238.283428 45.038737 238.422006 44.642003 238.468199 44.642003 238.606777 44.939554 238.65297 44.54282 238.699163 44.642003 238.745355 44.741187 238.791548 44.443636 238.883933 44.54282 239.068704 44.939554 239.161089 44.54282 239.207282 45.336288 239.253475 44.642003 239.392053 44.84037 239.484438 44.54282 239.530631 44.642003 239.669209 44.939554 239.807787 44.642003 239.900172 44.939554 239.946365 44.54282 239.992558 44.939554 240.223521 44.54282 240.408292 45.038737 240.454485 44.939554 240.593063 44.54282 240.685448 44.741187 240.777834 44.443636 240.824026 44.642003 240.870219 44.642003 240.916412 44.939554 240.962604 44.642003 241.101182 44.939554 241.23976 44.642003 241.378339 44.54282 241.516917 45.237104 241.609302 44.443636 241.655495 44.54282 241.74788 44.741187 241.794073 44.443636 241.840265 44.84037 241.932651 44.54282 241.978844 44.642003 242.025036 44.741187 242.071229 44.642003 242.117422 44.443636 242.163614 45.237104 242.256 44.939554 242.302192 44.642003 242.348385 44.84037 242.394578 45.038737 242.44077 44.54282 242.533156 44.642003 242.579349 44.741187 242.671734 44.443636 242.717927 44.84037 242.764119 44.741187 242.94889 44.54282 242.995083 44.84037 243.041275 44.741187 243.133661 44.642003 243.179853 44.84037 243.226046 44.741187 243.364624 44.443636 243.503202 44.84037 243.549395 44.939554 243.595588 44.84037 243.734166 44.54282 243.826551 44.443636 243.918937 44.84037 243.965129 44.443636 244.011322 44.54282 244.103707 44.84037 244.242285 44.642003 244.288478 44.642003 244.334671 45.038737 244.380863 44.741187 244.427056 44.54282 244.473249 44.642003 244.519441 44.741187 244.611827 44.443636 244.65802 44.741187 244.704212 44.54282 244.750405 44.443636 244.888983 45.137921 245.027561 44.54282 245.073754 44.642003 245.119946 44.84037 245.166139 44.741187 245.212332 44.642003 245.258525 44.741187 245.35091 44.939554 245.397103 44.54282 245.443295 44.927271 245.628066 44.642003 245.674259 44.84037 245.720451 44.741187 245.766644 44.642003 245.812837 44.741187 245.85903 45.038737 245.905222 44.84037 245.997608 44.642003 246.0438 44.939554 246.136186 44.84037 246.182378 44.54282 246.228571 45.137921 246.274764 44.54282 246.367149 44.939554 246.413342 44.741187 246.505727 44.642003 246.598113 44.443636 246.644305 45.038737 246.690498 44.84037 246.782883 44.443636 246.921461 44.741187 246.967654 44.84037 247.013847 44.443636 247.060039 44.642003 247.106232 44.642003 247.24481 44.84037 247.291003 44.54282 247.337196 44.642003 247.521966 44.939554 247.568159 44.54282 247.660544 44.642003 247.706737 44.939554 247.75293 44.642003 247.799123 44.741187 247.845315 44.54282 247.891508 45.137921 247.937701 44.84037 247.983893 44.642003 248.030086 44.84037 248.076279 44.939554 248.214857 44.642003 248.261049 44.741187 248.399627 44.54282 248.44582 44.54282 248.492013 44.84037 248.538206 44.54282 248.815362 44.939554 249.046325 44.84037 249.138711 44.642003 249.231096 45.435471 249.323481 44.54282 249.369674 44.642003 249.462059 44.84037 249.554445 44.741187 249.64683 44.939554 249.785408 44.642003 249.831601 44.54282 249.877794 45.038737 249.923986 44.443636 249.970179 44.939554 250.108757 44.642003 250.201142 44.54282 250.247335 44.939554 250.293528 44.642003 250.385913 44.741187 250.432106 44.642003 250.478299 44.84037 250.524491 44.54282 250.570684 44.642003 250.709262 44.741187 250.84784 44.443636 250.940225 44.741187 250.986418 44.642003 251.032611 44.642003 251.171189 45.137921 251.309767 44.741187 251.633116 44.642003 251.725501 44.54282 251.864079 45.038737 252.002657 44.54282 252.095043 45.410909 252.233621 44.54282 252.279813 45.237104 252.326006 44.939554 252.464584 44.642003 252.510777 44.939554 252.55697 44.84037 252.603162 44.54282 252.649355 45.137921 252.695548 44.642003 252.880318 44.642003 252.926511 45.038737 252.972704 44.642003 253.065089 44.939554 253.111282 44.84037 253.24986 44.54282 253.342245 44.443636 253.388438 45.336288 253.480823 44.642003 253.527016 44.741187 253.573209 45.237104 253.619401 44.443636 253.711787 44.54282 253.75798 45.137921 253.804172 44.642003 253.94275 44.741187 253.988943 44.54282 254.127521 45.237104 254.266099 44.54282 254.404677 44.84037 254.45087 44.443636 254.497063 45.038737 254.543255 44.54282 254.635641 44.939554 254.774219 44.54282 254.912797 44.741187 254.95899 44.54282 255.005182 44.84037 255.051375 44.642003 255.097568 44.54282 255.14376 44.939554 255.189953 44.642003 255.236146 44.54282 255.282338 44.642003 255.328531 44.939554 255.374724 44.642003 255.420916 44.443636 255.513302 44.939554 255.559494 44.84037 255.698073 44.54282 255.744265 44.443636 255.790458 44.54282 255.836651 44.54282 255.882843 44.741187 255.929036 44.443636 256.021421 44.54282 256.067614 44.54282 256.113807 44.741187 256.159999 44.443636 256.206192 44.84037 256.298578 44.642003 256.34477 44.84037 256.390963 44.54282 256.437156 44.642003 256.483348 44.939554 256.529541 44.54282 256.621926 44.84037 256.668119 44.741187 256.806697 44.54282 256.945275 44.741187 256.991468 44.741187 257.037661 44.939554 257.083853 44.741187 257.130046 44.443636 257.176239 44.642003 257.222431 44.741187 257.268624 44.642003 257.591973 44.54282 257.638166 44.443636 257.822936 44.84037 257.869129 44.84037 257.915322 45.038737 258.0539 44.54282 258.100092 44.84037 258.192478 44.741187 258.238671 44.84037 258.377249 44.443636 258.423441 44.54282 258.562019 44.939554 258.74679 44.443636 258.885368 44.443636 258.977754 44.84037 259.023946 44.443636 259.070139 44.741187 259.25491 45.038737 259.393488 44.642003 259.43968 44.84037 259.485873 44.741187 259.670644 44.443636 259.716837 44.741187 259.809222 44.642003 260.040185 44.642003 260.086378 44.84037 260.132571 44.642003 260.363534 44.54282 260.409727 44.443636 260.45592 44.939554 260.548305 44.741187 260.64069 44.939554 260.686883 44.54282 260.733076 44.741187 260.871654 44.84037 260.917847 44.443636 260.964039 44.741187 261.056425 44.54282 261.102617 44.642003 261.14881 44.741187 261.195003 44.54282 261.241195 44.642003 261.287388 44.642003 261.333581 44.84037 261.379773 44.741187 261.472159 44.642003 261.518352 44.84037 261.564544 44.54282 261.610737 44.939554 261.749315 44.54282 261.795508 44.741187 261.8417 44.642003 261.934086 44.741187 261.980278 44.84037 262.026471 44.741187 262.072664 44.443636 262.118856 44.84037 262.257435 44.443636 262.396013 44.741187 262.534591 44.54282 262.626976 44.741187 262.719361 44.54282 262.85794 44.939554 262.996518 44.54282 263.135096 44.84037 263.273674 44.443636 263.366059 44.741187 263.458445 44.54282 263.504637 44.741187 263.597023 44.84037 263.643215 44.443636 263.920371 44.84037 263.966564 44.54282 264.012757 44.741187 264.058949 44.741187 264.105142 44.54282 264.151335 44.741187 264.289913 44.84037 264.336106 44.443636 264.382298 44.54282 264.428491 44.741187 264.474684 44.54282 264.567069 44.54282 264.613262 44.84037 264.659454 44.54282 264.705647 44.54282 264.844225 44.741187 265.028996 44.54282 265.075189 44.642003 265.121381 44.443636 265.167574 44.642003 265.259959 44.54282 265.306152 44.741187 265.352345 44.642003 265.398538 44.443636 265.44473 44.54282 265.583308 44.84037 265.675694 44.54282 265.721886 44.642003 265.768079 44.54282 265.814272 44.642003 265.906657 45.137921 265.95285 44.54282 266.045235 44.642003 266.091428 44.741187 266.183813 44.84037 266.230006 44.443636 266.276199 44.741187 266.368584 44.642003 266.414777 44.443636 266.460969 44.642003 266.507162 44.84037 266.64574 44.443636 266.738126 44.642003 266.784318 44.54282 266.830511 45.137921 266.876704 44.741187 267.015282 44.54282 267.061474 44.54282 267.200052 44.741187 267.246245 44.54282 267.292438 44.84037 267.33863 44.54282 267.384823 44.642003 267.431016 44.443636 267.477209 44.84037 267.523401 44.741187 267.569594 44.642003 267.615787 44.939554 267.661979 44.741187 267.708172 44.741187 267.754365 44.443636 267.84675 44.54282 267.892943 44.54282 267.985328 44.939554 268.031521 44.642003 268.123906 44.741187 268.170099 44.84037 268.308677 44.443636 268.35487 44.84037 268.447255 44.741187 268.585833 44.443636 268.632026 44.54282 268.678219 44.741187 268.724411 44.443636 268.816797 44.54282 268.862989 44.84037 268.909182 44.54282 268.955375 44.443636 269.04776 45.137921 269.093953 44.54282 269.186338 44.642003 269.232531 44.642003 269.278723 45.237104 269.324916 44.84037 269.417302 44.54282 269.509687 44.443636 269.55588 44.84037 269.74065 44.54282 269.786843 44.84037 269.833036 44.443636 269.879228 44.741187 269.925421 44.54282 269.971614 44.642003 270.063999 45.038737 270.110192 44.443636 270.156385 44.741187 270.24877 44.939554 270.387348 44.741187 270.525926 44.642003 270.572119 44.84037 270.618312 44.741187 270.75689 44.642003 270.803082 44.54282 270.849275 45.038737 270.895468 44.84037 270.94166 44.443636 270.987853 44.84037 271.126431 44.54282 271.172624 44.642003 271.265009 44.741187 271.311202 44.443636 271.357395 44.54282 271.44978 44.84037 271.495973 44.741187 271.634551 44.84037 271.680743 44.642003 271.726936 44.741187 271.773129 44.84037 271.819321 44.741187 271.865514 44.443636 271.911707 44.642003 272.096478 44.939554 272.188863 44.642003 272.235056 44.939554 272.281248 44.642003 272.512212 44.54282 272.558405 44.84037 272.604597 44.741187 272.65079 44.54282 272.696983 44.642003 272.789368 44.84037 272.881753 44.642003 273.020331 45.038737 273.112717 44.642003 273.158909 44.84037 273.205102 44.741187 273.251295 44.642003 273.297488 44.939554 273.34368 44.84037 273.389873 44.443636 273.436066 44.54282 273.482258 44.939554 273.574644 44.84037 273.713222 44.54282 273.759414 44.642003 273.897993 45.038737 274.036571 44.443636 274.082763 45.038737 274.128956 44.443636 274.359919 44.741187 274.452305 44.54282 274.498497 45.038737 274.54469 44.54282 274.683268 44.84037 274.775654 44.443636 274.868039 44.84037 274.914232 44.443636 274.960424 44.741187 275.006617 44.84037 275.05281 44.54282 275.099002 44.84037 275.145195 44.741187 275.191388 44.939554 275.237581 44.741187 275.283773 44.741187 275.376159 44.443636 275.422351 44.741187 275.468544 44.443636 275.514737 44.443636 275.699507 44.84037 275.791893 44.642003 275.838086 44.741187 276.022856 44.84037 276.161434 44.443636 276.300012 44.939554 276.346205 44.84037 276.484783 44.54282 276.623361 44.741187 276.715747 44.54282 276.761939 44.741187 276.808132 44.443636 276.900517 44.54282 276.992903 44.741187 277.039095 45.237104 277.085288 44.741187 277.223866 44.54282 277.270059 44.84037 277.316252 44.54282 277.362444 44.443636 277.408637 45.137921 277.45483 44.741187 277.501022 44.84037 277.547215 44.741187 277.593408 44.54282 277.6396 44.84037 277.685793 44.443636 277.778179 44.54282 277.824371 45.038737 277.870564 44.642003 278.332491 44.54282 278.378683 44.443636 278.424876 44.741187 278.471069 44.642003 278.517262 44.54282 278.563454 44.741187 278.609647 44.54282 278.748225 44.54282 278.794418 44.939554 278.84061 44.642003 278.932996 44.443636 279.025381 45.137921 279.071574 44.939554 279.163959 44.443636 279.210152 44.939554 279.302537 44.741187 279.487308 44.54282 279.625886 44.443636 279.672079 44.741187 279.764464 44.642003 279.810657 44.741187 279.85685 44.54282 279.903042 44.642003 280.087813 44.54282 280.226391 44.939554 280.364969 44.54282 280.411162 44.642003 280.457355 44.443636 280.595933 44.84037 280.688318 44.642003 280.734511 44.84037 280.780703 44.741187 280.826896 44.642003 280.873089 44.741187 280.919281 44.939554 281.011667 44.54282 281.05786 44.642003 281.150245 44.741187 281.24263 44.84037 281.288823 44.54282 281.381208 44.642003 281.473594 44.939554 281.565979 44.54282 281.658364 44.84037 281.704557 44.741187 281.75075 44.443636 281.796943 44.54282 281.843135 44.642003 281.889328 44.54282 281.981713 44.642003 282.074099 44.939554 282.258869 44.54282 282.305062 44.642003 282.351255 45.137921 282.397448 44.642003 282.489833 44.84037 282.628411 44.741187 282.674604 45.038737 282.720796 44.54282 282.813182 44.642003 283.044145 44.54282 283.182723 44.84037 283.275109 44.443636 283.321301 44.642003 283.367494 44.741187 283.413687 44.642003 283.506072 44.642003 283.552265 44.84037 283.598457 44.54282 283.690843 44.642003 283.783228 44.642003 283.829421 44.443636 283.967999 44.84037 284.014192 44.443636 284.106577 44.54282 284.245155 44.939554 284.291348 44.443636 284.337541 44.54282 284.429926 44.741187 284.568504 44.443636 284.660889 44.642003 284.707082 44.443636 284.753275 44.939554 284.84566 44.84037 284.984238 44.642003 285.030431 44.642003 285.076624 44.443636 285.122816 44.84037 285.215202 44.741187 285.307587 44.642003 285.35378 44.927271 285.399972 44.443636 285.446165 44.741187 285.492358 44.939554 285.630936 44.642003 285.677129 44.54282 285.723321 44.642003 285.769514 44.741187 285.815707 44.443636 285.861899 44.939554 285.954285 44.741187 286.000477 44.939554 286.04667 44.642003 286.092863 44.741187 286.231441 44.939554 286.323826 44.54282 286.370019 44.741187 286.416212 45.038737 286.462404 44.642003 286.508597 44.939554 286.600982 44.54282 286.647175 44.84037 286.693368 44.54282 286.878138 44.741187 287.016717 44.84037 287.062909 44.54282 287.109102 44.741187 287.155295 44.84037 287.201487 44.54282 287.293873 44.642003 287.432451 44.939554 287.524836 44.54282 287.617222 44.939554 287.7558 44.642003 287.801992 44.939554 287.848185 44.642003 287.894378 44.54282 288.032956 44.939554 288.079148 44.741187 288.125341 44.939554 288.217727 44.54282 288.356305 44.642003 288.494883 44.642003 288.541075 44.939554 288.587268 44.84037 288.633461 44.54282 288.679653 44.927271 288.864424 44.642003 288.910617 44.741187 288.95681 45.137921 289.003002 44.939554 289.187773 44.54282 289.280158 44.741187 289.326351 44.54282 289.372544 44.642003 289.418736 44.939554 289.464929 44.84037 289.511122 44.642003 289.557315 45.038737 289.603507 44.741187 289.6497 44.741187 289.695893 44.54282 289.742085 44.741187 289.880663 44.642003 289.926856 44.939554 289.973049 44.642003 290.019241 44.642003 290.065434 44.443636 290.111627 44.54282 290.204012 44.54282 290.250205 44.939554 290.296398 44.642003 290.34259 44.741187 290.434976 44.443636 290.573554 45.137921 290.665939 44.642003 290.804517 45.137921 290.943095 44.54282 291.035481 44.939554 291.081673 44.642003 291.127866 44.54282 291.220251 44.84037 291.312637 44.54282 291.358829 44.84037 291.405022 44.443636 291.635986 44.84037 291.682178 44.443636 291.728371 44.642003 291.774564 44.84037 291.820756 44.642003 292.005527 44.443636 292.236491 44.939554 292.282683 44.443636 292.328876 44.84037 292.467454 44.642003 292.513647 44.939554 292.559839 44.642003 292.652225 44.741187 292.74461 44.642003 292.790803 44.741187 292.929381 44.54282 293.067959 44.443636 293.114152 45.038737 293.160344 44.54282 293.206537 44.443636 293.298922 44.741187 293.391308 44.54282 293.483693 44.84037 293.529886 44.54282 293.576079 44.642003 293.622271 44.84037 293.668464 44.642003 293.760849 44.642003 293.807042 44.443636 293.853235 44.642003 294.084198 44.741187 294.130391 44.443636 294.176584 44.84037 294.315162 44.642003 294.361354 44.54282 294.407547 44.642003 294.592318 44.54282 294.730896 44.939554 294.777089 44.443636 294.823281 44.939554 295.008052 44.54282 295.054245 44.54282 295.192823 44.939554 295.331401 44.443636 295.377594 44.642003 295.423786 44.54282 295.608557 44.443636 295.65475 44.84037 295.700942 44.642003 295.747135 44.642003 295.83952 44.443636 296.024291 44.84037 296.116677 44.54282 296.162869 44.84037 296.209062 44.54282 296.255255 44.642003 296.301447 44.54282 296.578603 44.642003 296.624796 44.741187 296.670989 44.443636 296.717182 44.642003 296.809567 44.642003 296.948145 44.939554 297.04053 44.54282 297.179108 44.642003 297.225301 44.642003 297.271494 44.443636 297.317687 44.54282 297.363879 44.642003 297.410072 44.54282 297.54865 44.642003 297.594843 44.741187 297.733421 44.54282 298.333926 44.443636 298.380118 44.741187 298.426311 44.642003 298.518696 44.443636 298.564889 44.54282 298.657275 44.927271 298.795853 44.443636 298.888238 44.84037 298.980623 44.642003 299.488743 44.741187 299.534936 44.443636 299.581128 44.642003 299.673514 44.741187 299.812092 44.443636 299.858284 44.54282 300.089248 44.54282 300.135441 44.741187 300.181633 44.642003 300.274019 44.54282 300.320211 44.741187 300.366404 44.54282 300.458789 44.939554 300.504982 44.741187 300.597368 44.443636 300.64356 44.741187 300.735946 44.642003 300.782138 44.443636 300.828331 44.642003 300.920716 44.84037 301.013102 44.443636 301.059294 44.741187 301.105487 44.642003 301.15168 44.54282 301.197872 44.642003 301.290258 44.642003 301.336451 44.84037 301.382643 44.642003 301.521221 44.642003 301.567414 44.443636 301.613607 44.54282 301.659799 44.642003 301.705992 44.443636 301.752185 44.54282 301.84457 44.54282 301.936956 44.741187 301.983148 44.443636 302.029341 44.54282 302.075534 44.84037 302.121726 44.642003 302.214112 44.443636 302.35269 44.84037 302.445075 44.443636 302.537461 44.741187 302.583653 44.443636 302.629846 44.84037 302.676039 44.84037 302.814617 44.54282 302.907002 44.741187 302.953195 44.443636 303.04558 44.54282 303.091773 44.443636 303.184158 44.642003 303.230351 44.443636 303.276544 44.642003 303.322736 44.642003 303.368929 44.443636 303.415122 44.54282 303.5537 45.038737 303.599892 44.443636 303.692278 44.642003 303.73847 44.443636 303.784663 44.642003 303.877049 44.642003 304.015627 44.84037 304.061819 44.54282 304.108012 45.038737 304.154205 44.54282 304.200397 44.443636 304.24659 44.642003 304.292783 44.54282 304.338975 44.54282 304.477553 44.84037 304.569939 44.54282 304.616132 45.237104 304.662324 44.84037 304.800902 44.443636 304.93948 44.741187 304.985673 44.642003 305.031866 44.54282 305.078058 44.84037 305.124251 44.741187 305.170444 44.443636 305.262829 44.54282 305.309022 44.443636 305.355215 44.939554 305.401407 44.54282 305.539985 44.54282 305.678563 44.84037 305.817142 44.54282 305.863334 44.741187 305.909527 44.443636 305.95572 44.642003 306.048105 44.54282 306.094298 44.443636 306.14049 44.84037 306.186683 44.642003 306.232876 44.443636 306.279068 44.54282 306.325261 44.54282 306.463839 45.038737 306.602417 44.642003 306.64861 44.84037 306.694803 44.741187 306.787188 44.54282 306.925766 44.939554 307.018151 44.54282 307.064344 44.642003 307.110537 44.642003 307.15673 44.84037 307.202922 44.642003 307.295308 44.741187 307.433886 44.642003 307.480078 44.84037 307.618656 44.443636 307.711042 44.741187 307.84962 44.54282 307.895813 44.443636 307.942005 44.54282 308.034391 44.642003 308.172969 44.741187 308.219161 44.443636 308.265354 44.642003 308.450125 44.642003 308.496318 44.939554 308.54251 44.54282 308.681088 44.642003 308.819666 44.84037 308.958244 44.443636 309.096823 44.84037 309.189208 44.54282 309.235401 44.642003 309.281593 44.84037 309.327786 44.443636 309.373979 44.741187 309.512557 44.54282 309.558749 44.741187 309.604942 44.642003 309.74352 44.443636 309.789713 44.642003 309.835906 44.54282 309.928291 44.642003 310.066869 44.741187 310.205447 44.54282 310.25164 44.642003 310.297832 44.54282 310.436411 44.443636 310.482603 44.84037 310.528796 44.54282 310.574989 44.54282 310.621181 44.741187 310.667374 44.642003 310.805952 44.443636 310.852145 44.741187 310.94453 44.642003 310.990723 44.54282 311.036916 44.741187 311.083108 44.54282 311.129301 44.642003 311.175494 44.443636 311.221686 44.54282 311.267879 44.84037 311.314072 44.642003 311.360264 44.642003 311.406457 44.443636 311.45265 44.84037 311.545035 44.741187 311.729806 44.443636 311.775999 44.54282 311.822191 44.939554 311.868384 44.443636 311.960769 44.927271 312.006962 44.741187 312.099347 44.443636 312.284118 45.237104 312.376504 44.54282 312.468889 44.84037 312.515082 44.642003 312.561274 44.741187 312.607467 44.84037 312.746045 44.642003 312.83843 44.54282 312.884623 44.642003 312.977009 45.038737 313.023201 44.939554 313.207972 44.443636 313.300357 44.54282 313.531321 44.54282 313.577513 44.84037 313.623706 44.642003 313.669899 44.54282 313.716092 44.939554 313.762284 44.54282 313.85467 44.939554 313.900862 44.443636 313.947055 44.54282 314.03944 44.741187 314.131826 44.54282 314.178018 45.038737 314.224211 44.54282 314.316597 44.84037 314.362789 44.443636 314.408982 44.54282 314.455175 44.642003 314.501367 44.443636 314.54756 44.642003 314.639945 44.84037 314.686138 44.741187 314.732331 44.741187 314.778523 44.54282 314.870909 44.84037 314.917102 44.54282 314.963294 44.84037 315.194258 44.54282 315.24045 44.84037 315.286643 44.443636 315.332836 44.741187 315.471414 44.443636 315.563799 44.642003 315.656185 44.443636 315.794763 44.84037 315.840955 44.443636 315.887148 44.642003 316.025726 44.741187 316.071919 44.443636 316.164304 44.54282 316.210497 44.84037 316.25669 44.642003 316.395268 44.443636 316.487653 44.84037 316.533846 44.642003 316.580038 44.443636 316.626231 44.642003 316.811002 44.741187 316.857194 44.84037 316.995773 44.54282 317.088158 44.642003 317.134351 44.443636 317.180543 44.642003 317.226736 44.642003 317.365314 44.443636 317.457699 44.741187 317.550085 44.642003 317.64247 44.443636 317.688663 44.54282 317.781048 44.939554 317.827241 44.54282 317.873434 44.84037 317.965819 44.642003 318.012012 44.84037 318.15059 44.443636 318.242975 44.741187 318.335361 44.443636 318.381553 44.741187 318.427746 44.642003 318.566324 44.443636 318.935866 44.54282 318.982058 44.642003 319.028251 44.54282 319.120636 44.54282 319.166829 44.84037 319.213022 44.54282 319.305407 44.443636 319.443985 44.642003 319.536371 44.443636 319.674949 44.939554 319.721141 44.84037 319.859719 44.54282 319.952105 44.741187 320.04449 44.443636 320.090683 44.741187 320.136876 44.54282 320.229261 44.443636 320.414032 44.84037 320.55261 44.54282 320.598802 44.642003 320.691188 44.443636 320.829766 44.84037 320.875959 44.443636 320.922151 44.54282 321.014537 44.741187 321.153115 44.443636 321.291693 44.741187 321.337885 44.741187 321.476464 44.443636 321.615042 44.443636 321.707427 44.84037 321.75362 44.642003 321.799812 44.642003 321.93839 44.443636 322.123161 44.642003 322.215547 44.642003 322.261739 44.84037 322.354125 44.443636 322.44651 44.741187 322.492703 44.443636 322.585088 44.54282 322.631281 44.741187 322.677473 44.642003 322.723666 44.642003 322.862244 44.443636 322.95463 44.443636 323.000822 44.741187 323.047015 44.54282 323.093208 44.443636 323.1394 44.741187 323.185593 44.54282 323.601327 44.642003 323.64752 44.84037 323.693713 44.642003 323.878483 44.443636 323.970869 44.642003 324.017061 44.54282 324.063254 44.741187 324.109447 44.54282 324.201832 44.84037 324.248025 44.443636 324.294218 44.54282 324.34041 44.84037 324.386603 44.741187 324.432796 44.54282 324.478988 44.741187 324.663759 44.741187 324.802337 44.443636 324.894723 44.84037 325.033301 44.54282 325.218071 44.54282 325.264264 44.927271 325.310457 44.642003 325.449035 44.84037 325.587613 44.443636 325.633806 44.84037 325.679998 44.741187 325.818576 44.443636 325.910962 44.84037 326.003347 44.443636 326.095733 44.939554 326.141925 44.443636 326.234311 44.642003 326.280503 44.84037 326.326696 44.741187 326.419081 44.642003 326.465274 44.54282 326.511467 44.741187 326.557659 44.54282 326.603852 44.54282 326.650045 44.741187 326.696238 44.54282 326.881008 44.741187 327.019586 44.443636 327.065779 44.741187 327.158164 44.642003 327.481513 44.741187 327.527706 44.84037 327.666284 44.54282 327.712477 44.741187 327.758669 44.642003 328.312982 44.642003 328.359174 44.939554 328.405367 44.741187 328.497752 44.443636 328.543945 44.84037 328.590138 44.443636 328.728716 44.642003 328.774909 44.443636 328.821101 44.54282 328.867294 44.84037 328.913487 44.642003 328.959679 44.443636 329.005872 44.54282 329.14445 44.741187 329.190643 44.54282 329.236835 44.642003 329.283028 44.741187 329.329221 44.642003 329.421606 44.54282 329.467799 44.443636 329.560184 44.939554 329.606377 44.443636 329.698762 44.642003 329.791148 44.642003 329.83734 45.137921 329.883533 44.443636 330.022111 44.84037 330.068304 44.443636 330.160689 44.54282 330.206882 44.443636 330.253075 44.54282 330.391653 44.642003 330.530231 44.741187 330.622616 44.443636 330.715002 44.54282 330.807387 44.642003 330.899772 44.443636 330.945965 44.741187 330.992158 44.642003 331.03835 44.443636 331.084543 44.54282 331.130736 44.741187 331.223121 44.443636 331.269314 44.54282 331.361699 44.54282 331.500277 44.84037 331.54647 44.642003 331.592663 44.939554 331.638855 44.54282 331.685048 44.443636 331.731241 44.84037 331.777433 44.443636 331.869819 44.54282 331.916012 44.443636 332.100782 44.84037 332.146975 44.642003 332.193168 44.741187 332.23936 45.038737 332.285553 44.741187 332.331746 44.443636 332.377938 44.84037 332.608902 44.54282 332.74748 44.741187 332.839865 44.54282 332.932251 44.741187 333.117021 44.443636 333.2556 44.741187 333.301792 44.443636 333.347985 44.84037 333.394178 44.54282 333.44037 44.741187 333.532756 44.443636 333.578948 44.54282 333.717526 44.642003 334.225646 44.54282 334.271839 44.443636 334.410417 44.741187 334.45661 44.54282 334.502802 44.642003 334.548995 44.741187 334.595188 45.137921 334.64138 44.54282 334.733766 44.741187 334.779958 44.443636 334.826151 44.54282 334.872344 44.741187 334.918536 44.443636 334.964729 44.741187 335.057114 44.443636 335.1495 44.54282 335.241885 44.927271 335.334271 44.443636 335.380463 44.642003 335.426656 44.741187 335.472849 44.642003 335.519041 44.54282 335.565234 44.741187 335.703812 44.443636 335.84239 44.84037 335.888583 44.443636 335.934776 45.038737 335.980968 44.939554 336.027161 44.642003 336.073354 44.741187 336.119546 44.939554 336.211932 44.443636 336.258124 44.642003 336.489088 44.741187 336.535281 44.443636 336.581473 44.642003 336.627666 44.939554 336.673859 44.741187 336.766244 44.84037 336.812437 44.939554 336.858629 44.54282 336.904822 44.84037 337.089593 44.443636 337.135786 44.84037 337.181978 44.642003 337.228171 44.54282 337.274364 44.642003 337.320556 45.038737 337.366749 44.642003 337.459134 44.54282 337.597712 44.84037 337.736291 44.54282 337.782483 44.443636 337.828676 45.038737 337.874869 44.939554 337.967254 44.741187 338.013447 44.84037 338.105832 44.54282 338.152025 44.642003 338.521566 44.741187 338.567759 44.443636 338.660144 44.54282 338.706337 45.038737 338.75253 44.54282 339.075879 44.54282 339.168264 44.443636 339.214457 45.038737 339.260649 44.54282 339.353035 44.741187 339.399227 44.54282 339.44542 44.84037 339.491613 44.54282 339.722576 44.54282 339.861154 44.939554 339.95354 44.54282 339.999732 44.642003 340.045925 44.84037 340.092118 44.443636 340.13831 44.642003 340.831201 44.642003 340.969779 44.443636 341.062164 44.741187 341.108357 44.642003 341.200742 44.443636 341.293128 44.84037 341.431706 44.443636 341.570284 44.54282 341.662669 44.443636 341.755055 44.84037 341.893633 44.443636 341.986018 44.84037 342.124596 44.54282 342.35556 44.642003 342.401752 44.939554 342.447945 44.84037 342.586523 44.54282 342.632716 44.741187 342.678908 44.54282 342.725101 44.642003 342.771294 44.443636 342.817486 44.54282 343.187028 44.443636 343.233221 44.84037 343.279413 44.54282 343.325606 44.443636 343.371799 44.84037 343.464184 44.741187 343.510377 44.84037 343.602762 44.443636 343.648955 44.642003 343.787533 44.54282 344.110882 44.54282 344.157074 44.741187 344.203267 44.54282 344.24946 44.443636 344.295653 44.84037 344.341845 44.642003 344.388038 44.642003 344.480423 44.443636 344.665194 44.642003 344.757579 44.443636 344.803772 44.54282 345.127121 44.443636 345.173314 44.741187 345.219506 44.443636 345.311892 44.741187 345.358084 45.038737 345.404277 44.642003 345.589048 44.642003 345.727626 44.443636 345.866204 44.84037 345.912397 44.443636 346.004782 44.54282 346.050975 44.741187 346.097167 44.54282 346.14336 44.642003 346.189553 44.54282 346.235746 44.54282 346.328131 44.84037 346.374324 44.54282 346.420516 44.642003 346.466709 44.741187 346.605287 44.54282 346.697672 44.939554 346.790058 44.84037 346.928636 44.443636 347.067214 45.137921 347.205792 44.642003 347.251985 44.741187 347.34437 44.443636 347.436755 44.642003 347.529141 44.443636 347.575334 44.84037 347.621526 44.642003 347.713912 44.443636 347.760104 44.84037 347.806297 44.741187 347.944875 44.642003 347.991068 44.741187 348.083453 44.443636 348.222031 44.84037 348.268224 44.54282 348.314417 44.741187 348.360609 44.741187 348.499187 44.443636 348.54538 44.443636 348.637765 44.939554 348.683958 44.84037 348.776343 44.443636 348.914922 44.642003 349.469234 44.54282 349.561619 44.443636 349.700197 44.642003 349.884968 44.443636 350.023546 44.642003 350.162124 44.443636 350.208317 44.741187 350.25451 44.54282 350.300702 44.54282 350.346895 44.84037 350.393088 44.54282 350.531666 44.443636 350.577858 44.642003 350.624051 44.54282 351.085978 44.54282 351.132171 44.84037 351.178363 44.642003 351.224556 44.54282 351.270749 44.642003 351.316941 44.741187 351.363134 44.54282 351.409327 44.642003 351.45552 44.642003 351.501712 44.443636 351.547905 44.84037 351.594098 44.54282 351.686483 44.741187 351.825061 44.443636 351.963639 44.443636 352.009832 44.642003 352.056025 44.54282 352.194603 44.443636 352.333181 44.642003 352.379373 44.54282 352.425566 44.741187 352.471759 44.443636 352.564144 44.54282 352.610337 44.741187 352.748915 44.443636 352.887493 44.642003 352.933686 44.443636 352.979878 44.54282 353.026071 44.741187 353.072264 44.642003 353.118456 44.642003 353.210842 44.443636 353.303227 44.642003 353.34942 44.443636 353.395613 44.54282 353.580383 44.54282 353.626576 44.741187 353.672769 44.642003 353.949925 44.54282 353.996117 44.443636 354.04231 44.642003 354.088503 44.54282 354.134696 44.443636 354.180888 45.038737 354.227081 44.741187 354.365659 44.443636 354.504237 44.939554 354.596622 44.443636 354.642815 44.741187 354.689008 44.84037 354.827586 44.54282 354.919971 44.642003 354.966164 44.443636 355.012357 44.741187 355.058549 44.642003 355.197127 44.443636 355.24332 44.741187 355.335706 44.642003 355.428091 44.54282 355.474284 44.741187 355.520476 44.642003 355.566669 44.443636 355.612862 44.642003 355.659054 44.54282 355.75144 44.84037 355.797632 44.54282 355.890018 44.642003 355.93621 44.741187 355.982403 44.642003 356.074789 44.54282 356.167174 44.642003 356.259559 44.443636 356.351945 44.642003 356.398137 44.443636 356.44433 44.642003 356.582908 44.54282 356.629101 44.443636 356.675294 44.741187 356.767679 44.642003 356.906257 44.443636 356.998642 44.642003 357.044835 44.443636 357.091028 44.54282 357.64534 44.642003 357.691533 44.741187 357.737725 44.443636 357.783918 44.54282 357.830111 44.84037 357.876303 44.54282 357.922496 44.642003 358.061074 44.443636 358.107267 44.54282 358.15346 44.443636 358.292038 44.443636 358.33823 44.642003 358.384423 44.443636 358.476808 44.54282 358.569194 44.443636 358.753965 44.642003 358.800157 44.443636 358.84635 44.642003 358.892543 44.54282 358.938735 44.84037 358.984928 44.54282 359.031121 44.642003 359.077313 44.54282 359.262084 44.443636 359.308277 44.741187 359.35447 44.54282 359.53924 44.443636 359.677818 44.741187 359.770204 44.443636 359.816396 44.642003 360.04736 44.54282 360.093553 44.84037 360.139745 44.443636 360.324516 44.939554 360.463094 44.443636 360.509287 44.741187 360.601672 44.642003 360.971214 44.54282 361.017406 44.443636 361.063599 44.54282 361.24837 45.038737 361.294563 44.443636 361.386948 44.54282 361.479333 44.443636 361.525526 44.939554 361.664104 44.54282 362.218416 44.443636 362.356994 44.84037 362.403187 44.443636 362.495573 44.54282 362.634151 44.443636 362.726536 44.54282 362.865114 44.443636 363.049885 44.84037 363.188463 44.443636 363.280848 44.642003 363.419426 44.443636 363.558004 44.642003 363.604197 44.443636 363.65039 44.54282 363.881353 44.54282 363.927546 44.741187 363.973739 44.642003 364.066124 44.443636 364.112317 44.84037 364.158509 44.54282 364.250895 44.741187 364.297087 44.642003 364.435666 44.741187 364.528051 44.443636 364.574244 44.741187 364.620436 44.54282 364.712822 44.54282 364.805207 44.741187 364.897592 44.642003 364.943785 44.741187 364.989978 44.443636 365.03617 44.642003 365.128556 44.84037 365.174749 44.443636 365.220941 44.54282 365.267134 44.642003 365.313327 44.54282 365.359519 44.443636 365.405712 44.84037 365.498097 44.741187 365.54429 44.84037 365.590483 44.54282 365.682868 44.642003 365.775254 44.741187 365.913832 44.443636 366.098602 44.84037 366.144795 44.54282 366.23718 44.642003 366.375758 44.443636 366.514337 44.741187 366.560529 44.54282 366.606722 44.84037 366.699107 44.741187 366.837685 44.443636 366.883878 44.443636 367.022456 44.642003 367.068649 44.54282 367.161034 44.84037 367.25342 44.54282 367.299612 44.642003 367.391998 45.038737 367.484383 44.443636 367.530576 44.642003 367.761539 44.642003 367.807732 44.443636 367.853925 44.642003 367.900117 44.642003 367.94631 44.84037 367.992503 44.741187 368.177273 44.443636 368.269659 44.84037 368.362044 44.741187 368.500622 44.443636 368.546815 44.443636 368.685393 44.642003 368.731586 44.741187 368.870164 44.54282 368.916356 44.54282 368.962549 44.741187 369.008742 44.54282 369.054935 44.443636 369.193513 44.642003 369.378283 44.443636 369.424476 44.642003 369.470669 44.54282 369.516861 44.443636 369.609247 44.642003 369.747825 44.443636 369.794018 44.642003 369.84021 44.443636 369.932596 44.54282 370.024981 44.741187 370.163559 44.54282 370.209752 44.741187 370.34833 44.443636 370.394523 44.443636 370.440715 44.642003 370.486908 44.54282 370.533101 44.443636 370.579293 44.741187 370.625486 44.443636 370.810257 44.54282 370.902642 44.642003 370.995028 44.443636 371.04122 44.54282 371.318376 44.443636 371.364569 44.741187 371.456954 44.642003 371.54934 44.443636 371.595532 44.741187 371.641725 44.443636 371.734111 44.54282 371.826496 44.443636 371.965074 44.741187 372.011267 44.54282 372.057459 44.741187 372.196037 44.443636 372.24223 44.741187 372.334616 44.642003 372.427001 44.642003 372.473194 44.443636 372.519386 44.939554 372.565579 44.443636 372.611772 44.443636 372.657964 44.741187 372.75035 44.642003 372.796542 44.443636 372.842735 44.54282 372.888928 44.741187 372.935121 44.642003 373.027506 44.54282 373.166084 44.443636 373.304662 44.642003 373.350855 44.443636 373.397047 44.642003 373.581818 44.939554 373.581818 44.939554"></polyline>
            <g id="Group-38" transform="translate(53.000000, 14.000000)">
                <path d="M1,238 L1,20.56" id="Stroke-31" stroke="#000000" stroke-width="0.8" stroke-linecap="square"></path>
                <path d="M335.8,238 L335.8,20.56" id="Stroke-32" stroke="#000000" stroke-width="0.8" stroke-linecap="square"></path>
                <path d="M1,238 L335.8,238" id="Stroke-33" stroke="#000000" stroke-width="0.8" stroke-linecap="square"></path>
                <path d="M1,20.56 L335.8,20.56" id="Stroke-34" stroke="#000000" stroke-width="0.8" stroke-linecap="square"></path>
                <text id="Accuracy-curve" font-family="LucidaGrande, Lucida Grande" font-size="12" font-weight="normal" fill="#000000">
                    <tspan x="122.298438" y="12.4271875">Accuracy curve</tspan>
                </text>
                <path d="M279.675,233 L328.8,233 C330.133333,233 330.8,232.333333 330.8,231 L330.8,217.328125 C330.8,215.994792 330.133333,215.328125 328.8,215.328125 L279.675,215.328125 C278.341667,215.328125 277.675,215.994792 277.675,217.328125 L277.675,231 C277.675,232.333333 278.341667,233 279.675,233 Z" id="Fill-35" fill-opacity="0.8" fill="#FFFFFF"></path>
                <path d="M279.675,233 L328.8,233 C330.133333,233 330.8,232.333333 330.8,231 L330.8,217.328125 C330.8,215.994792 330.133333,215.328125 328.8,215.328125 L279.675,215.328125 C278.341667,215.328125 277.675,215.994792 277.675,217.328125 L277.675,231 C277.675,232.333333 278.341667,233 279.675,233 Z" id="Stroke-36" stroke-opacity="0.8" stroke="#D6D6D6"></path>
                <path d="M281.675,223.421875 L301.675,223.421875" id="Stroke-37" stroke="#1F77B4" stroke-width="1.5" stroke-linecap="square" stroke-linejoin="round"></path>
                <text id="acc" font-family="LucidaGrande, Lucida Grande" font-size="10" font-weight="normal" fill="#000000">
                    <tspan x="309.675" y="225.144531">acc</tspan>
                </text>
            </g>
        </g>
    </g>
</svg>