<?xml version="1.0" encoding="UTF-8"?>
<svg width="432px" height="288px" viewBox="0 0 432 288" version="1.1" xmlns="http://www.w3.org/2000/svg" xmlns:xlink="http://www.w3.org/1999/xlink">
    <!-- Generator: Sketch 55.2 (78181) - https://sketchapp.com -->
    <title>loss</title>
    <desc>Created with Sketch.</desc>
    <g id="Page-1" stroke="none" stroke-width="1" fill="none" fill-rule="evenodd">
        <g id="loss">
            <polygon id="Fill-1" fill="#FFFFFF" points="0 288 432 288 432 0 0 0"></polygon>
            <polygon id="Fill-2" fill="#FFFFFF" points="54 252 388.8 252 388.8 34.56 54 34.56"></polygon>
            <path d="M69.218182,252 L69.218182,255.5" id="Fill-3" fill="#000000"></path>
            <path d="M69.218182,252 L69.218182,255.5" id="Stroke-4" stroke="#000000" stroke-width="0.8" stroke-linejoin="round"></path>
            <text id="0" font-family="LucidaGrande, Lucida Grande" font-size="10" font-weight="normal" fill="#000000">
                <tspan x="66.0384943" y="264.816406">0</tspan>
            </text>
            <path d="M115.410872,252 L115.410872,255.5" id="Fill-5" fill="#000000"></path>
            <path d="M115.410872,252 L115.410872,255.5" id="Stroke-6" stroke="#000000" stroke-width="0.8" stroke-linejoin="round"></path>
            <text id="1000" font-family="LucidaGrande, Lucida Grande" font-size="10" font-weight="normal" fill="#000000">
                <tspan x="102.692122" y="264.816406">1000</tspan>
            </text>
            <path d="M161.603562,252 L161.603562,255.5" id="Fill-7" fill="#000000"></path>
            <path d="M161.603562,252 L161.603562,255.5" id="Stroke-8" stroke="#000000" stroke-width="0.8" stroke-linejoin="round"></path>
            <text id="2000" font-family="LucidaGrande, Lucida Grande" font-size="10" font-weight="normal" fill="#000000">
                <tspan x="148.884812" y="264.816406">2000</tspan>
            </text>
            <path d="M207.796253,252 L207.796253,255.5" id="Fill-9" fill="#000000"></path>
            <path d="M207.796253,252 L207.796253,255.5" id="Stroke-10" stroke="#000000" stroke-width="0.8" stroke-linejoin="round"></path>
            <text id="3000" font-family="LucidaGrande, Lucida Grande" font-size="10" font-weight="normal" fill="#000000">
                <tspan x="195.077503" y="264.816406">3000</tspan>
            </text>
            <path d="M253.988943,252 L253.988943,255.5" id="Fill-11" fill="#000000"></path>
            <path d="M253.988943,252 L253.988943,255.5" id="Stroke-12" stroke="#000000" stroke-width="0.8" stroke-linejoin="round"></path>
            <text id="4000" font-family="LucidaGrande, Lucida Grande" font-size="10" font-weight="normal" fill="#000000">
                <tspan x="241.270193" y="264.816406">4000</tspan>
            </text>
            <path d="M300.181633,252 L300.181633,255.5" id="Fill-13" fill="#000000"></path>
            <path d="M300.181633,252 L300.181633,255.5" id="Stroke-14" stroke="#000000" stroke-width="0.8" stroke-linejoin="round"></path>
            <text id="5000" font-family="LucidaGrande, Lucida Grande" font-size="10" font-weight="normal" fill="#000000">
                <tspan x="287.462883" y="264.816406">5000</tspan>
            </text>
            <path d="M346.374324,252 L346.374324,255.5" id="Fill-15" fill="#000000"></path>
            <path d="M346.374324,252 L346.374324,255.5" id="Stroke-16" stroke="#000000" stroke-width="0.8" stroke-linejoin="round"></path>
            <text id="6000" font-family="LucidaGrande, Lucida Grande" font-size="10" font-weight="normal" fill="#000000">
                <tspan x="333.655574" y="264.816406">6000</tspan>
            </text>
            <text id="iter" font-family="LucidaGrande, Lucida Grande" font-size="10" font-weight="normal" fill="#000000">
                <tspan x="212.915625" y="278.488281">iter</tspan>
            </text>
            <path d="M54,242.151621 L50.5,242.151621" id="Fill-17" fill="#000000"></path>
            <path d="M54,242.151621 L50.5,242.151621" id="Stroke-18" stroke="#000000" stroke-width="0.8" stroke-linejoin="round"></path>
            <text id="0" font-family="LucidaGrande, Lucida Grande" font-size="10" font-weight="normal" fill="#000000">
                <tspan x="40.640625" y="244.171152">0</tspan>
            </text>
            <path d="M54,215.446358 L50.5,215.446358" id="Fill-19" fill="#000000"></path>
            <path d="M54,215.446358 L50.5,215.446358" id="Stroke-20" stroke="#000000" stroke-width="0.8" stroke-linejoin="round"></path>
            <text id="2" font-family="LucidaGrande, Lucida Grande" font-size="10" font-weight="normal" fill="#000000">
                <tspan x="40.640625" y="217.465889">2</tspan>
            </text>
            <path d="M54,188.741095 L50.5,188.741095" id="Fill-21" fill="#000000"></path>
            <path d="M54,188.741095 L50.5,188.741095" id="Stroke-22" stroke="#000000" stroke-width="0.8" stroke-linejoin="round"></path>
            <text id="4" font-family="LucidaGrande, Lucida Grande" font-size="10" font-weight="normal" fill="#000000">
                <tspan x="40.640625" y="190.760626">4</tspan>
            </text>
            <path d="M54,162.035832 L50.5,162.035832" id="Fill-23" fill="#000000"></path>
            <path d="M54,162.035832 L50.5,162.035832" id="Stroke-24" stroke="#000000" stroke-width="0.8" stroke-linejoin="round"></path>
            <text id="6" font-family="LucidaGrande, Lucida Grande" font-size="10" font-weight="normal" fill="#000000">
                <tspan x="40.640625" y="164.055363">6</tspan>
            </text>
            <path d="M54,135.330569 L50.5,135.330569" id="Fill-25" fill="#000000"></path>
            <path d="M54,135.330569 L50.5,135.330569" id="Stroke-26" stroke="#000000" stroke-width="0.8" stroke-linejoin="round"></path>
            <text id="8" font-family="LucidaGrande, Lucida Grande" font-size="10" font-weight="normal" fill="#000000">
                <tspan x="40.640625" y="137.3501">8</tspan>
            </text>
            <path d="M54,108.625306 L50.5,108.625306" id="Fill-27" fill="#000000"></path>
            <path d="M54,108.625306 L50.5,108.625306" id="Stroke-28" stroke="#000000" stroke-width="0.8" stroke-linejoin="round"></path>
            <text id="10" font-family="LucidaGrande, Lucida Grande" font-size="10" font-weight="normal" fill="#000000">
                <tspan x="34.28125" y="110.644838">10</tspan>
            </text>
            <path d="M54,81.920043 L50.5,81.920043" id="Fill-29" fill="#000000"></path>
            <path d="M54,81.920043 L50.5,81.920043" id="Stroke-30" stroke="#000000" stroke-width="0.8" stroke-linejoin="round"></path>
            <text id="12" font-family="LucidaGrande, Lucida Grande" font-size="10" font-weight="normal" fill="#000000">
                <tspan x="34.28125" y="83.9395747">12</tspan>
            </text>
            <path d="M54,55.214781 L50.5,55.214781" id="Fill-31" fill="#000000"></path>
            <path d="M54,55.214781 L50.5,55.214781" id="Stroke-32" stroke="#000000" stroke-width="0.8" stroke-linejoin="round"></path>
            <text id="14" font-family="LucidaGrande, Lucida Grande" font-size="10" font-weight="normal" fill="#000000">
                <tspan x="34.28125" y="57.2343119">14</tspan>
            </text>
            <text font-family="LucidaGrande, Lucida Grande" font-size="10" font-weight="normal" fill="#000000">
                <tspan x="28.203125" y="151.174531">loss</tspan>
            </text>
            <polyline id="Stroke-33" stroke="#1F77B4" stroke-width="1.5" stroke-linecap="square" stroke-linejoin="round" points="69.218182 44.443636 69.541531 55.07794 69.864879 61.337177 70.095843 65.270767 70.280614 68.942201 72.45167 134.371542 72.497863 134.898732 72.682634 141.506576 72.913597 147.687862 73.005982 148.987545 73.14456 152.403463 73.190753 152.947061 73.421717 158.86528 73.467909 158.565049 73.65268 164.21342 74.206992 172.569333 74.34557 175.492463 74.391763 174.876682 74.437956 175.000189 74.622727 178.409721 75.592773 189.168702 75.638966 188.786304 75.869929 192.948327 75.916122 192.648796 75.962315 191.156969 76.008507 192.365693 76.378049 195.577121 76.424242 194.618355 76.470434 197.037145 76.516627 196.147575 76.56282 195.823267 76.839976 198.766195 76.886168 197.436492 76.932361 199.452485 76.978554 199.263234 77.024746 198.511628 77.117132 199.766561 77.163325 199.646647 77.209517 199.833577 77.25571 199.802773 77.440481 202.24791 77.486673 201.760852 77.532866 202.3973 77.625251 202.278186 77.671444 202.667262 77.717637 202.100781 77.76383 202.689642 77.856215 202.871134 77.994793 204.180384 78.040986 204.881798 78.087178 203.903775 78.133371 203.943218 78.364334 206.187205 78.45672 206.928226 78.502913 206.293343 78.687683 207.875442 78.733876 206.953429 78.780069 207.157184 78.826261 208.26513 78.872454 207.88549 78.918647 207.747825 79.057225 208.47048 79.103418 208.355201 79.241996 210.552129 79.380574 210.092614 79.426766 210.176124 79.472959 209.688725 79.519152 212.143798 79.611537 211.255279 79.703923 211.040974 79.750115 212.443395 79.796308 211.800698 79.842501 211.314206 79.888693 211.453408 79.981079 212.860305 80.027271 212.757128 80.073464 212.807637 80.119657 212.69127 80.165849 214.013063 80.212042 213.261626 80.304427 213.76834 80.396813 213.539241 80.443006 214.803049 80.535391 214.559322 80.581584 213.843875 80.627776 214.422189 80.673969 214.298583 80.720162 215.326282 80.766354 214.129322 80.812547 214.941147 80.85874 215.089276 80.904932 216.276302 80.951125 215.726663 80.997318 215.774933 81.043511 215.447851 81.089703 215.742574 81.182089 216.685713 81.228281 215.97719 81.274474 215.403157 81.366859 217.319425 81.413052 216.744632 81.505437 216.282704 81.55163 217.547698 81.644016 217.26362 81.782594 218.731472 81.921172 216.574007 82.013557 219.373994 82.05975 219.181966 82.152135 218.521201 82.198328 219.368022 82.24452 219.116894 82.336906 218.432942 82.429291 219.472454 82.475484 218.512521 82.567869 220.838087 82.614062 220.131771 82.660255 221.386347 82.706447 220.32031 82.75264 220.044156 82.798833 220.365341 82.845025 220.648429 82.891218 220.520878 82.937411 220.121172 83.075989 221.353897 83.122182 221.392556 83.168374 221.198467 83.214567 221.253628 83.26076 222.139449 83.306952 220.096242 83.353145 221.096088 83.399338 221.423542 83.44553 220.737126 83.491723 221.219271 83.584109 222.639713 83.630301 222.378117 83.722687 222.964732 83.768879 222.674563 83.815072 221.588129 83.861265 221.60339 83.95365 224.124173 83.999843 223.043001 84.046035 223.770192 84.092228 222.928488 84.138421 223.560597 84.184613 223.201971 84.230806 223.280125 84.46177 224.560832 84.507962 223.270345 84.554155 223.860278 84.600348 224.004992 84.64654 223.148358 84.692733 224.092967 84.738926 224.952831 84.785118 224.693537 84.831311 224.433097 84.923697 225.260731 84.969889 224.81601 85.016082 223.761334 85.062275 224.739553 85.108467 224.788957 85.15466 224.66436 85.247045 225.890498 85.293238 225.884804 85.339431 225.182021 85.385623 226.215458 85.431816 225.315829 85.524201 226.006008 85.616587 225.085805 85.755165 226.505976 85.84755 225.406234 85.893743 226.507697 85.986128 226.298293 86.032321 226.00235 86.124706 226.542899 86.170899 226.472715 86.217092 226.628989 86.309477 227.45456 86.35567 227.057792 86.401863 226.503695 86.586633 227.803071 86.632826 228.299319 86.679019 227.900039 86.86379 227.047047 87.002368 228.576684 87.140946 227.953021 87.187138 228.863251 87.233331 228.168699 87.279524 227.946673 87.325716 228.831549 87.418102 228.471819 87.464294 228.095506 87.55668 228.758896 87.602873 228.544572 87.741451 229.152284 87.695258 228.499261 87.787643 229.073665 87.833836 228.240241 87.880029 228.79161 87.926221 228.930244 87.972414 229.644332 88.018607 228.35287 88.064799 229.116171 88.157185 229.037016 88.203378 230.027935 88.24957 228.860366 88.295763 229.326639 88.388148 230.68108 88.434341 230.288682 88.480534 229.286363 88.526726 229.887473 88.619112 230.692781 88.665304 230.310697 88.75769 230.398785 88.803883 229.579596 88.896268 229.731333 88.988653 230.895149 89.034846 230.005936 89.081039 230.406216 89.219617 231.328408 89.265809 230.695653 89.312002 231.184149 89.358195 231.199734 89.404387 229.949338 89.45058 231.338951 89.542966 230.651671 89.589158 231.098145 89.635351 230.498933 89.727736 230.451086 89.773929 231.333211 89.820122 230.846395 89.866314 230.046193 89.912507 231.616733 90.004892 231.593288 90.051085 231.737606 90.097278 231.700227 90.189663 231.381774 90.235856 232.52594 90.282049 230.990244 90.328241 230.901132 90.374434 231.772049 90.420627 231.715233 90.513012 230.892765 90.559205 232.061249 90.65159 231.831335 90.743975 232.389235 90.790168 231.98247 90.836361 232.647163 90.882554 232.097872 90.928746 232.176897 90.974939 232.586621 91.021132 231.793306 91.067324 231.989894 91.113517 232.69988 91.15971 232.314622 91.205902 232.169357 91.252095 232.941925 91.298288 231.7569 91.34448 232.465291 91.390673 232.906494 91.436866 232.562809 91.483059 232.059407 91.529251 232.727948 91.621637 233.230155 91.714022 233.48296 91.760215 232.246952 91.898793 232.858375 91.944985 232.51007 91.991178 232.702613 92.037371 232.851776 92.083564 232.454209 92.129756 233.46411 92.175949 233.267571 92.36072 232.875425 92.406912 232.906116 92.453105 234.391117 92.499298 233.163929 92.54549 232.428666 92.591683 233.538892 92.684068 233.092814 92.730261 233.054763 92.822647 233.571346 92.868839 233.211233 92.915032 233.332786 93.05361 233.939972 93.099803 233.921784 93.145995 234.025039 93.192188 233.706348 93.238381 233.920089 93.284573 234.165829 93.423152 233.435336 93.56173 234.491516 93.607922 234.031942 93.654115 233.946135 93.700308 233.432214 93.7465 234.108461 93.792693 234.462247 93.838886 233.953256 93.931271 234.161495 93.977464 234.308582 94.023657 234.103755 94.116042 234.43069 94.162235 233.8593 94.208427 234.143268 94.25462 234.172587 94.300813 234.737904 94.347005 233.6099 94.393198 234.11948 94.439391 234.247999 94.531776 233.122379 94.577969 234.78131 94.670354 234.616529 94.76274 233.736088 94.901318 234.806572 94.94751 234.510228 94.993703 234.882115 95.039896 235.050945 95.086088 234.838638 95.132281 234.733276 95.178474 233.990402 95.224666 235.309772 95.317052 235.041957 95.548015 235.681746 95.640401 234.759569 95.686593 235.469525 95.732786 235.076321 95.778979 234.695735 95.825171 235.214748 95.871364 234.812543 95.963749 235.589474 96.009942 235.140391 96.056135 235.019056 96.194713 236.040064 96.240906 235.941569 96.287098 235.007112 96.379484 235.35636 96.471869 235.00678 96.518062 235.103592 96.564254 235.734361 96.610447 235.230423 96.65664 234.881584 96.795218 235.672447 96.933796 235.077786 97.072374 235.959496 97.118567 235.893429 97.210952 234.921964 97.257145 235.7957 97.303338 234.963916 97.395723 236.152921 97.441916 235.168264 97.488108 235.896386 97.534301 236.452143 97.580494 235.813772 97.626686 235.524391 97.672879 236.097737 97.719072 235.504384 97.765264 235.289433 97.903842 235.68644 97.996228 235.778251 98.042421 235.393467 98.134806 235.837147 98.180999 235.717542 98.319577 235.385497 98.411962 236.494905 98.458155 236.22393 98.504347 236.304653 98.55054 236.993389 98.596733 235.724234 98.689118 236.160857 98.735311 236.757064 98.781504 236.0883 98.873889 235.438093 99.05866 236.632692 99.104852 235.948887 99.151045 236.534137 99.197238 236.718222 99.243431 236.141419 99.335816 236.247925 99.382009 236.582901 99.428201 236.353588 99.474394 236.149018 99.520587 236.480998 99.612972 236.447294 99.659165 236.051144 99.705357 236.128365 99.936321 236.912769 99.982514 236.268907 100.074899 236.528692 100.121092 236.374015 100.167284 236.516518 100.25967 236.671176 100.305862 236.078656 100.352055 236.693975 100.398248 236.695723 100.44444 236.124532 100.490633 237.202814 100.536826 236.266511 100.721597 237.194858 100.767789 237.183536 100.813982 236.588207 100.860175 236.721093 100.95256 237.605911 100.998753 236.815982 101.091138 236.987805 101.137331 236.674359 101.183524 236.695698 101.414487 237.431126 101.46068 236.682411 101.506872 236.941968 101.553065 237.512502 101.599258 236.925556 101.64545 236.507446 101.737836 236.66919 101.876414 237.447994 102.061185 236.863 102.15357 237.676316 102.199763 237.47144 102.338341 236.680308 102.384533 236.912349 102.476919 236.829383 102.615497 237.285773 102.66169 237.012051 102.707882 237.664461 102.754075 237.484283 102.84646 236.88316 102.985038 237.65402 103.077424 237.212399 103.169809 237.346953 103.262195 237.589548 103.308387 237.088619 103.35458 237.260969 103.400773 237.528857 103.446965 237.264779 103.493158 237.136086 103.631736 237.901459 103.724121 237.316695 103.770314 237.768256 103.816507 237.696029 103.908892 237.115402 104.04747 238.29424 104.093663 237.744477 104.186048 237.913562 104.232241 237.753577 104.278434 237.164322 104.324626 237.491151 104.370819 237.752364 104.463205 237.690693 104.509397 237.563008 104.55559 237.033233 104.601783 237.943162 104.694168 237.623686 104.740361 237.531315 104.786553 237.600584 104.832746 238.261401 104.878939 237.642554 104.925131 237.905829 105.017517 237.83186 105.063709 237.870205 105.109902 237.227376 105.156095 237.454833 105.202288 238.217524 105.24848 238.162442 105.294673 237.799313 105.340866 237.884956 105.387058 238.393086 105.433251 237.758306 105.571829 238.356215 105.618022 237.701697 105.664214 237.90962 105.710407 238.091414 105.7566 237.381525 105.802793 237.832492 105.848985 237.993242 105.895178 237.936175 105.941371 237.731586 105.987563 238.206935 106.033756 238.15402 106.079949 237.472584 106.126141 237.637598 106.172334 237.939117 106.218527 237.242584 106.357105 238.295217 106.403298 238.412553 106.495683 237.775394 106.541876 237.785647 106.588068 238.08366 106.634261 237.61237 106.680454 238.225895 106.772839 238.204557 106.911417 238.505517 107.049995 237.912513 107.142381 237.844756 107.188573 238.247636 107.234766 237.759442 107.280959 238.377681 107.419537 237.964576 107.465729 238.575294 107.558115 238.370814 107.604307 238.301247 107.6505 238.380585 107.696693 238.47819 107.742886 237.879673 107.789078 238.333318 107.835271 238.561182 107.881464 237.771055 107.927656 238.393428 108.066234 238.120874 108.112427 238.097145 108.15862 238.198689 108.204812 237.989966 108.251005 238.246424 108.297198 238.21241 108.34339 238.348506 108.389583 238.096173 108.481969 238.189942 108.528161 238.101796 108.574354 238.676431 108.620547 238.354851 108.712932 238.038453 108.805317 238.607771 108.85151 238.412145 108.897703 238.292693 108.943895 237.770441 108.990088 238.848511 109.036281 238.291126 109.082474 238.134316 109.128666 238.283074 109.174859 238.23468 109.35963 238.934267 109.405822 238.206737 109.452015 239.024195 109.498208 238.386275 109.590593 238.468588 109.682979 238.221163 109.729171 238.267474 109.821557 238.570809 109.867749 238.540343 109.913942 238.473923 109.960135 239.150123 110.006327 238.462497 110.098713 238.473051 110.144905 238.180961 110.191098 238.473785 110.237291 238.814374 110.329676 238.684048 110.375869 238.895122 110.422062 238.265717 110.514447 238.473379 110.699218 239.025236 110.837796 238.215566 110.930181 238.805816 111.022567 238.861352 111.068759 238.544291 111.299723 239.008344 111.438301 238.613928 111.576879 238.96573 111.623072 238.564077 111.669264 238.984986 111.807842 238.370629 111.854035 238.898573 111.900228 238.858425 112.038806 238.454216 112.084998 238.993979 112.131191 238.90301 112.269769 238.329346 112.315962 239.035922 112.362155 238.883654 112.408347 238.573937 112.45454 238.981141 112.546925 238.886844 112.593118 239.432737 112.685503 238.590531 112.731696 239.17661 112.870274 238.882449 112.916467 239.101499 113.008852 239.028576 113.101238 238.77226 113.14743 239.340997 113.193623 238.892325 113.239816 238.560824 113.286008 238.70342 113.378394 239.239294 113.424586 239.210523 113.470779 238.9345 113.609357 239.697 113.701743 238.788683 113.747935 238.915811 113.794128 238.998484 113.840321 238.693494 113.886513 239.285168 113.932706 238.627078 113.978899 239.054811 114.025091 239.174646 114.117477 238.722053 114.163669 239.360362 114.256055 239.122405 114.302248 239.358534 114.394633 238.532186 114.440826 239.335341 114.533211 239.073356 114.625596 239.333563 114.671789 239.036195 114.764174 239.14868 114.810367 239.498498 114.85656 239.116086 114.902753 239.144665 114.948945 239.064757 114.995138 239.760535 115.041331 238.510521 115.087523 239.254524 115.133716 239.056333 115.226101 239.105146 115.272294 239.424721 115.410872 238.695241 115.457065 239.245139 115.503257 239.224337 115.54945 238.729995 115.595643 239.545957 115.688028 239.264289 115.734221 239.643535 115.780414 239.21377 115.826606 239.172394 115.872799 239.227152 115.965184 239.348072 116.011377 239.289131 116.103762 239.096823 116.242341 239.842497 116.380919 238.898716 116.427111 238.959115 116.473304 238.848742 116.611882 239.560658 116.658075 239.332898 116.704267 239.511636 116.75046 239.495995 116.796653 239.766049 116.842846 239.171388 116.889038 239.517615 117.120002 239.66908 117.166194 239.631183 117.25858 239.288138 117.350965 239.16502 117.397158 240.014226 117.44335 239.331273 117.489543 239.660703 117.535736 239.692688 117.581929 239.115904 117.628121 239.578464 117.674314 239.731207 117.720507 239.478678 117.766699 239.588723 117.812892 239.869206 117.859085 239.190511 117.905277 239.471598 117.95147 239.803711 117.997663 239.269179 118.043855 239.315286 118.090048 239.605334 118.136241 239.127238 118.182434 239.489751 118.274819 239.572422 118.321012 239.342208 118.367204 239.449028 118.413397 239.512675 118.45959 239.304819 118.505782 239.605558 118.551975 239.549175 118.64436 239.273037 118.736746 239.787974 118.782939 239.506692 118.921517 239.02442 119.060095 239.8314 119.106287 239.695004 119.15248 239.434529 119.198673 239.73388 119.244865 239.525302 119.383443 239.581518 119.429636 239.589896 119.475829 239.929494 119.522022 239.455587 119.614407 239.768722 119.706792 239.551756 119.752985 239.578987 119.84537 239.586594 119.891563 239.378123 119.937756 239.659166 119.983948 239.793612 120.076334 239.520458 120.214912 239.810403 120.261105 239.355232 120.307297 239.689609 120.35349 239.746383 120.399683 239.456981 120.445875 239.776622 120.492068 239.542923 120.538261 239.404263 120.676839 240.033108 120.723031 239.436402 120.769224 239.712744 120.815417 239.773644 120.907802 239.459196 121.092573 239.937706 121.277344 239.428295 121.323536 239.943423 121.369729 239.809022 121.415922 239.705123 121.508307 240.047826 121.5545 239.543066 121.600693 239.749108 121.646885 239.981276 121.785463 239.435818 121.970234 239.8299 122.016427 239.69445 122.108812 240.017919 122.155005 239.635782 122.201198 239.752732 122.24739 239.86633 122.385968 239.054943 122.432161 239.496448 122.524546 240.371933 122.570739 239.736462 122.616932 239.344318 122.663124 239.951448 122.75551 239.751135 122.801703 239.866167 122.847895 239.550371 122.940281 239.59049 122.986473 239.612446 123.125051 240.114518 123.263629 239.518131 123.356015 240.088732 123.494593 239.598637 123.540786 239.496864 123.586978 240.065307 123.679364 240.05419 123.817942 239.546671 123.910327 240.084302 123.95652 239.518237 124.002713 240.17552 124.141291 239.772982 124.187483 240.245641 124.233676 239.591099 124.279869 239.801853 124.326061 239.639738 124.372254 239.500043 124.510832 239.936632 124.557025 239.712562 124.603217 239.978045 124.64941 239.801237 124.695603 239.876654 124.741796 240.174761 124.787988 239.844802 124.880374 239.78543 124.926566 240.050045 124.972759 239.823393 125.018952 239.71899 125.065144 239.962702 125.111337 239.624303 125.342301 240.160634 125.388493 239.864241 125.434686 240.212402 125.480879 239.936574 125.527071 239.893276 125.619457 240.106031 125.711842 239.398118 125.758035 240.394573 125.804227 239.930685 125.988998 239.685036 126.035191 240.128202 126.127576 239.963619 126.219962 239.930538 126.266154 240.48906 126.312347 239.819398 126.35854 240.031992 126.404732 240.242848 126.450925 240.083823 126.497118 239.886457 126.54331 240.044401 126.589503 240.075941 126.681889 239.845518 126.774274 240.248529 126.820467 239.739169 126.866659 240.029269 126.912852 240.100863 126.959045 239.749476 127.005237 240.140896 127.05143 239.800464 127.097623 240.234726 127.143815 239.785533 127.190008 239.694603 127.328586 240.067087 127.513357 239.699693 127.55955 239.965747 127.605742 239.527597 127.651935 240.037129 127.698128 240.120914 127.74432 239.917978 127.790513 240.297327 127.882898 240.13697 128.021477 239.775713 128.067669 240.209576 128.113862 240.037838 128.25244 239.64626 128.298633 240.189636 128.391018 240.106692 128.437211 239.96785 128.483403 240.041573 128.575789 240.448686 128.621982 240.206736 128.714367 240.241424 128.76056 240.082247 128.806752 240.229911 128.899138 240.55073 128.94533 239.850186 128.991523 239.930795 129.037716 240.714011 129.083908 240.114945 129.130101 240.289177 129.176294 240.215493 129.222487 239.996688 129.268679 240.446041 129.314872 239.992759 129.407257 240.036604 129.45345 240.568996 129.499643 239.985219 129.638221 240.459994 129.684413 239.955435 129.730606 240.029508 129.822991 240.462205 129.915377 240.436692 130.053955 239.702605 130.14634 240.384555 130.192533 240.133218 130.284918 240.026287 130.423496 240.575503 130.562075 239.930333 130.608267 240.479784 130.65446 240.260787 130.700653 240.152024 130.793038 240.454949 130.977809 240.027332 131.024001 240.181356 131.070194 240.154228 131.116387 240.025383 131.16258 240.355039 131.254965 240.322778 131.393543 239.991436 131.439736 240.500511 131.485928 240.299873 131.532121 240.132022 131.578314 240.531006 131.624506 240.079686 131.716892 240.328491 131.901663 240.092747 131.947855 240.136361 131.994048 240.473127 132.040241 240.0266 132.086433 240.368982 132.132626 240.179088 132.178819 240.485274 132.271204 240.59759 132.363589 239.384989 132.409782 240.227571 132.502168 240.200268 132.594553 240.450067 132.640746 240.402162 132.733131 240.070735 132.779324 240.201701 132.917902 240.430834 132.964094 240.087633 133.010287 240.09821 133.148865 240.699303 133.195058 240.284635 133.287443 240.311718 133.426021 240.612512 133.610792 240.160488 133.656985 240.210148 133.703177 240.61737 133.74937 240.488021 133.795563 240.16027 133.841756 240.349265 133.980334 240.380498 134.026526 240.90006 134.072719 240.466639 134.118912 240.222426 134.165104 240.355155 134.211297 240.488679 134.25749 240.042168 134.303682 240.494213 134.534646 240.12953 134.580839 240.519531 134.627031 240.165532 134.673224 240.143854 134.719417 240.637039 134.765609 240.451288 134.811802 239.977217 134.857995 240.305124 134.95038 240.502622 135.088958 239.930065 135.181344 240.635567 135.273729 240.077573 135.412307 240.598629 135.4585 240.190172 135.504692 240.456529 135.64327 240.287744 135.689463 240.322823 135.735656 240.439386 135.781849 240.226493 135.828041 240.383362 135.920427 240.506352 135.966619 240.151579 136.059005 240.277722 136.197583 240.4608 136.243775 240.003029 136.289968 240.450373 136.336161 240.463309 136.382354 240.300065 136.428546 240.55933 136.520932 240.485691 136.567124 240.512391 136.613317 239.935775 136.65951 240.693101 136.705702 240.161364 136.751895 240.693792 136.798088 240.314103 136.982858 240.53506 137.029051 240.335974 137.075244 240.684966 137.167629 240.576753 137.213822 240.509459 137.260015 240.681843 137.398593 240.126583 137.444785 240.234001 137.490978 240.562445 137.583363 240.534528 137.629556 240.470962 137.768134 240.697585 137.814327 240.440926 137.86052 240.769808 137.906712 240.496537 137.952905 240.396533 137.999098 240.541996 138.04529 240.739032 138.091483 240.722715 138.137676 240.50926 138.183868 240.866895 138.230061 240.418938 138.322447 240.661692 138.368639 240.599853 138.414832 240.505383 138.461025 240.705678 138.507217 239.977548 138.55341 240.481829 138.645795 240.375465 138.738181 240.609899 138.784373 240.551673 138.830566 240.325136 138.876759 240.850987 138.922951 240.587938 139.015337 240.2731 139.153915 240.677294 139.200108 240.344286 139.2463 240.562397 139.292493 240.830425 139.338686 240.436088 139.384878 240.843294 139.431071 240.804158 139.569649 240.367355 139.708227 240.755321 139.892998 240.532853 139.985383 240.470371 140.031576 240.741628 140.077769 240.75857 140.123961 240.608484 140.170154 240.641214 140.308732 240.836056 140.493503 240.252955 140.678274 240.836333 140.863044 240.453945 140.909237 240.300697 140.95543 240.756253 141.001623 240.685316 141.047815 240.514842 141.186393 240.849418 141.232586 240.397418 141.324971 240.565679 141.371164 240.798269 141.463549 240.712859 141.555935 240.473625 141.64832 240.78341 141.694513 240.456722 141.740706 240.821615 141.833091 240.47976 141.879284 240.234641 141.925476 240.941935 141.971669 240.626707 142.017862 240.376555 142.064054 240.81826 142.110247 240.503424 142.248825 240.933865 142.387403 240.833365 142.479789 240.575352 142.525981 240.633871 142.572174 240.778023 142.618367 240.672703 142.710752 240.777452 142.756945 240.899361 142.895523 240.378943 142.987908 240.894429 143.034101 240.88592 143.080294 240.943114 143.172679 240.709405 143.218872 240.778325 143.265064 240.762348 143.311257 240.366526 143.35745 240.835745 143.403642 240.879969 143.449835 240.78845 143.542221 240.635713 143.588413 240.979446 143.634606 240.773117 143.680799 240.724217 143.726991 241.101635 143.819377 240.314166 143.957955 241.002719 144.142725 240.702095 144.188918 240.913577 144.235111 240.61915 144.373689 240.687265 144.650845 240.811706 144.789423 240.764217 144.835616 240.59713 144.881809 240.893125 144.928001 240.619077 144.974194 240.556903 145.066579 241.004877 145.112772 240.517719 145.205157 240.617285 145.25135 240.809037 145.297543 240.56702 145.343735 240.743581 145.482313 240.958953 145.667084 240.115545 145.713277 240.824437 145.805662 240.801037 145.851855 240.616545 145.94424 240.686887 145.990433 240.969696 146.036626 240.517393 146.129011 240.577631 146.221397 240.597371 146.313782 241.009922 146.359975 240.534536 146.406167 240.80314 146.45236 240.845604 146.590938 240.438419 146.637131 240.922457 146.683323 240.824246 146.775709 240.464172 146.868094 240.955795 147.006672 240.364152 147.052865 240.905445 147.14525 240.80713 147.191443 240.771558 147.283828 241.11249 147.422406 240.660725 147.468599 240.861615 147.514792 240.580679 147.607177 240.862699 147.65337 241.053417 147.699563 240.895019 147.745755 240.810146 147.791948 241.033253 147.838141 240.540997 147.884333 240.760194 147.930526 240.880741 147.976719 240.640894 148.069104 240.694054 148.16149 241.127938 148.207682 240.786032 148.253875 241.111464 148.392453 240.739658 148.438646 240.829751 148.531031 240.655272 148.577224 240.85493 148.623416 240.632127 148.669609 240.368847 148.715802 240.976569 148.808187 240.814612 148.946765 241.226622 148.992958 239.657788 149.039151 240.641613 149.085343 240.520286 149.131536 240.917813 149.177729 240.689865 149.270114 240.593974 149.316307 240.931649 149.362499 240.701879 149.454885 240.849332 149.501078 241.047842 149.593463 240.6739 149.639656 241.084362 149.685848 240.613757 149.824426 241.051061 149.870619 240.290303 149.916812 240.814631 150.05539 240.786989 150.147775 241.09927 150.193968 240.966159 150.240161 240.557274 150.286353 240.971221 150.332546 241.064249 150.471124 240.61216 150.563509 240.539209 150.609702 241.330692 150.74828 240.539287 150.794473 241.083535 150.840666 240.953268 150.886858 240.592052 150.933051 240.903126 151.025436 240.83666 151.071629 241.067284 151.117822 240.900091 151.164014 240.927575 151.2564 240.581717 151.302592 241.084481 151.348785 240.747193 151.394978 240.763784 151.487363 240.716775 151.533556 241.106939 151.718327 240.674807 151.764519 241.047664 151.810712 240.802452 152.087868 241.017213 152.134061 240.634912 152.180254 241.005937 152.272639 240.9491 152.318832 240.327666 152.365024 241.029525 152.411217 241.131644 152.45741 241.011562 152.503602 240.661782 152.549795 241.064735 152.734566 240.778778 152.826951 241.101261 152.873144 240.933001 152.965529 240.896145 153.011722 241.095051 153.057915 240.942887 153.104107 240.821514 153.1503 241.106725 153.196493 240.7728 153.242685 240.74181 153.427456 241.033664 153.473649 241.010065 153.519842 241.115777 153.566034 240.790004 153.612227 241.052064 153.796998 240.86731 153.84319 240.920377 153.981769 241.010094 154.027961 240.788031 154.074154 241.046071 154.120347 240.906932 154.166539 241.010942 154.212732 241.03383 154.305117 240.779987 154.35131 240.953683 154.489888 241.152747 154.628466 240.822309 154.674659 241.27197 154.720852 241.125222 154.813237 240.61988 154.85943 240.808557 154.905622 241.111385 154.951815 240.632531 154.998008 240.810214 155.0442 241.346899 155.090393 241.087759 155.182778 240.954633 155.228971 241.104533 155.275164 241.255997 155.413742 240.863175 155.506127 241.059128 155.55232 240.980199 155.829476 240.932593 155.968054 241.163253 156.06044 240.814791 156.106632 240.964833 156.152825 241.16886 156.199018 241.006444 156.337596 240.782673 156.476174 241.136918 156.522366 240.808319 156.614752 240.925828 156.660945 240.96863 156.707137 240.555486 156.75333 241.216364 156.845715 241.12065 156.891908 241.046629 156.938101 240.74638 156.984293 241.071999 157.169064 241.230547 157.215257 240.854216 157.307642 240.878652 157.353835 241.129875 157.400028 241.00056 157.538606 241.074916 157.584798 240.92495 157.630991 241.101334 157.677184 241.302963 157.723376 241.131986 157.769569 240.834077 157.815762 240.869985 158.000533 241.377471 158.046725 240.746612 158.092918 241.071192 158.277689 241.253624 158.416267 240.845528 158.462459 241.154283 158.554845 241.10843 158.601038 241.161776 158.739616 241.034691 158.785808 241.089341 158.832001 240.675665 158.924386 240.695863 159.062964 241.107616 159.15535 240.946792 159.201543 241.162291 159.247735 240.777614 159.340121 240.915011 159.386313 241.222274 159.432506 241.181107 159.571084 240.81457 159.663469 241.249583 159.709662 241.163476 159.755855 241.145069 159.802047 240.655672 159.894433 240.830188 159.986818 241.397485 160.033011 241.079417 160.079204 241.221109 160.171589 241.242675 160.263974 240.923282 160.310167 241.264682 160.402552 241.143635 160.448745 241.236035 160.541131 241.181369 160.633516 241.257411 160.679709 240.929703 160.725901 241.254376 160.772094 241.051275 160.818287 240.99823 160.910672 241.273313 160.956865 241.104817 161.003057 241.135651 161.095443 240.925243 161.141636 241.0116 161.187828 240.952906 161.372599 241.352759 161.603562 241.125319 161.74214 241.324801 161.788333 240.996908 161.834526 241.403579 161.973104 241.052783 162.111682 241.238418 162.25026 240.986114 162.296453 241.274528 162.342645 240.978979 162.435031 241.195962 162.481224 240.956643 162.527416 241.197922 162.573609 241.289356 162.665994 240.982175 162.712187 241.449479 162.75838 241.017761 162.804572 240.757569 162.850765 241.297203 162.94315 241.135868 162.989343 241.286784 163.035536 240.970267 163.081729 241.137979 163.174114 241.34525 163.220307 240.875218 163.266499 241.221722 163.358885 241.103495 163.405077 241.167268 163.543655 241.125851 163.589848 241.286445 163.682233 240.878123 163.774619 241.26864 163.820812 240.98009 163.867004 241.490217 163.913197 241.146782 163.95939 241.11419 164.051775 241.348717 164.190353 240.734537 164.328931 241.226331 164.375124 241.140036 164.421317 241.241803 164.467509 241.225726 164.559895 241.17375 164.606087 241.432253 164.65228 241.026294 164.698473 241.335259 164.790858 241.041724 164.837051 241.112072 164.883243 241.300444 164.929436 241.263275 165.068014 241.005034 165.206592 241.225319 165.298978 241.287006 165.391363 241.066195 165.437556 241.295511 165.529941 241.23729 165.576134 241.249882 165.622326 240.689395 165.668519 241.202692 165.85329 240.836211 165.945675 241.279991 165.991868 241.246921 166.084253 241.193838 166.130446 241.574527 166.222831 241.201315 166.269024 241.257883 166.36141 241.283618 166.407602 241.090549 166.453795 241.2899 166.499988 241.300016 166.54618 240.951117 166.592373 241.308987 166.684758 241.118565 166.730951 241.162216 166.823336 241.421001 166.869529 241.202726 166.915722 241.021974 166.961914 241.081158 167.008107 241.451353 167.0543 240.935188 167.100493 241.41485 167.377649 241.132704 167.423841 241.342759 167.470034 241.065498 167.562419 241.323626 167.608612 241.277011 167.793383 241.26171 167.839576 240.852902 167.885768 241.345876 167.978154 241.279277 168.024346 241.384427 168.070539 241.147474 168.116732 241.185859 168.25531 241.360948 168.393888 241.233705 168.440081 241.226407 168.532466 240.92619 168.624851 241.420738 168.671044 240.767145 168.763429 240.917956 168.9482 241.445124 169.086778 241.179075 169.132971 241.295374 169.179164 241.45698 169.225356 241.320897 169.363934 241.180892 169.410127 241.271526 169.45632 240.903738 169.502512 241.379868 169.594898 241.245755 169.687283 241.397805 169.779669 241.270798 169.825861 241.288367 169.964439 241.268974 170.010632 241.510625 170.056825 241.324829 170.103017 241.310125 170.195403 241.543163 170.287788 241.313102 170.333981 241.395337 170.518752 241.251431 170.611137 241.457901 170.749715 241.222505 170.888293 241.075091 170.934486 241.159233 171.073064 241.348527 171.119257 241.003327 171.165449 241.480612 171.35022 241.089133 171.396413 241.086038 171.534991 241.474152 171.627376 241.085343 171.719762 241.481119 171.765954 241.028206 171.85834 241.213144 171.950725 241.502705 171.996918 241.041634 172.04311 241.247262 172.089303 241.497016 172.135496 241.364956 172.274074 241.131053 172.366459 241.386371 172.412652 241.294725 172.505037 241.435834 172.55123 241.164893 172.597423 241.24325 172.643615 241.388592 172.689808 241.225177 172.736001 241.157934 172.782193 241.243104 172.828386 241.239055 172.966964 241.552387 173.05935 241.219152 173.105542 241.330251 173.197928 241.165188 173.24412 241.545059 173.336506 241.387824 173.475084 241.007911 173.567469 241.401084 173.613662 241.380971 173.659855 241.242268 173.706047 241.403284 173.75224 241.49266 173.890818 241.294004 173.983203 241.39951 174.029396 241.259917 174.075589 240.980657 174.121781 241.318332 174.214167 241.617917 174.26036 241.125603 174.352745 241.199068 174.398938 241.056721 174.44513 241.167536 174.537516 241.548457 174.583708 241.376505 174.676094 241.143885 174.814672 241.478253 174.907057 241.428883 174.999443 241.135667 175.045635 241.34018 175.091828 241.060213 175.138021 241.090653 175.184213 241.464991 175.230406 241.077088 175.276599 241.095003 175.368984 241.528392 175.415177 241.475253 175.553755 241.311754 175.599948 241.443845 175.64614 241.344983 175.692333 241.230248 175.784718 241.281259 175.969489 241.54578 176.015682 241.498156 176.200453 241.192941 176.292838 241.395381 176.339031 241.383439 176.385223 241.070154 176.431416 241.309864 176.477609 241.444368 176.523801 241.367872 176.569994 241.362351 176.616187 241.202881 176.662379 241.246646 176.708572 241.511001 176.800958 241.462109 176.84715 241.50687 176.939536 241.260669 177.031921 241.518869 177.078114 241.304975 177.124306 241.355493 177.262884 241.604445 177.447655 241.25346 177.540041 241.647387 177.632426 241.191176 177.678619 241.353282 177.724811 241.317632 177.771004 241.526387 177.863389 241.481328 178.001967 241.238385 178.04816 241.422927 178.094353 241.246229 178.140546 241.198013 178.186738 241.384125 178.232931 241.148934 178.279124 241.332386 178.417702 241.361613 178.463894 241.19895 178.510087 241.291261 178.648665 241.400365 178.694858 241.351934 178.741051 241.054104 178.787243 241.429815 178.879629 241.211663 178.925821 241.458307 178.972014 241.136342 179.018207 241.098828 179.064399 241.158918 179.24917 241.418506 179.387748 241.102722 179.433941 241.497038 179.480134 241.45665 179.618712 241.303333 179.75729 241.384471 179.895868 241.518552 179.94206 241.514902 180.080639 241.239722 180.126831 241.51191 180.173024 241.398069 180.265409 241.190301 180.311602 241.58582 180.357795 241.400958 180.403987 241.170029 180.45018 241.323509 180.588758 241.379616 180.681144 241.289226 180.727336 241.50972 180.773529 241.166126 180.865914 241.306395 180.912107 241.191282 180.9583 241.374058 181.004492 241.36609 181.14307 241.530299 181.189263 241.363101 181.235456 241.495412 181.281648 241.508165 181.327841 241.21991 181.374034 241.432074 181.420227 241.498 181.512612 241.197301 181.558805 241.550313 181.604997 241.352472 181.65119 241.34793 181.697383 241.49366 181.743575 241.316251 181.835961 241.493158 181.974539 241.162068 182.020732 241.626546 182.113117 241.481808 182.15931 241.36032 182.205502 241.446797 182.297888 241.661008 182.436466 241.369801 182.482658 241.338993 182.528851 241.128486 182.575044 241.452645 182.621236 241.230397 182.667429 241.229667 182.759815 241.473588 182.898393 241.259325 182.944585 241.54239 183.036971 241.480456 183.175549 241.404207 183.406512 241.516475 183.452705 241.243898 183.54509 241.292606 183.591283 241.562526 183.637476 241.458004 183.868439 241.280338 183.914632 241.562532 183.960825 241.289108 184.007017 241.223336 184.05321 241.567323 184.099403 241.382373 184.145595 241.309796 184.284173 241.64705 184.422751 241.298437 184.468944 241.406444 184.515137 241.58534 184.561329 241.427816 184.607522 241.429909 184.653715 241.642605 184.699908 241.39315 184.792293 241.233421 184.977064 241.424479 185.023256 241.41983 185.069449 241.249399 185.115642 241.527688 185.161834 241.162905 185.25422 241.481299 185.300413 241.362012 185.346605 241.308336 185.392798 241.411785 185.438991 241.564324 185.485183 241.53457 185.531376 241.440508 185.577569 241.668205 185.623761 241.408625 185.716147 241.584936 185.808532 241.398297 185.854725 241.505991 185.900918 241.328802 185.94711 241.407015 186.039496 241.362795 186.085688 241.501628 186.224266 241.54327 186.270459 241.258555 186.316652 241.372172 186.45523 241.499256 186.501422 241.409244 186.547615 241.52111 186.640001 241.352268 186.686193 241.294695 186.732386 241.410802 186.824771 241.590471 186.870964 241.20526 186.963349 241.363835 187.101927 241.579685 187.14812 241.284843 187.240506 241.337986 187.286698 241.634045 187.332891 241.537163 187.379084 241.449344 187.425276 241.512001 187.471469 241.663119 187.610047 241.227598 187.794818 241.589742 187.84101 241.422611 187.887203 240.775503 187.933396 241.350879 187.979589 241.277034 188.025781 241.572344 188.118167 241.540812 188.210552 241.428271 188.256745 241.618196 188.302937 241.490923 188.34913 241.237871 188.395323 241.624052 188.441515 241.514902 188.533901 241.313006 188.672479 241.561266 188.764864 241.351146 188.811057 241.578485 188.85725 241.202268 188.903442 241.706925 189.134406 241.262817 189.180599 241.56293 189.272984 241.434979 189.319177 241.384203 189.365369 241.544485 189.457755 241.51583 189.55014 241.277647 189.596333 241.457963 189.688718 241.570594 189.734911 241.102222 189.781103 241.198637 189.873489 241.488874 189.919682 241.470609 190.104452 241.646848 190.289223 241.396597 190.335416 241.746991 190.381608 241.41095 190.520187 241.697403 190.566379 241.343881 190.612572 241.515954 190.658765 241.685114 190.704957 241.58757 190.75115 241.461668 190.797343 241.571881 191.028306 241.510531 191.074499 241.624827 191.120692 241.555974 191.25927 241.333865 191.305462 241.590133 191.397848 241.534206 191.536426 241.433351 191.675004 241.606736 191.721196 241.620767 191.767389 241.377959 191.813582 241.514952 191.95216 241.562239 192.044545 241.487576 192.090738 241.538546 192.229316 241.480124 192.321701 241.315133 192.367894 241.365486 192.598858 241.727238 192.737436 241.528075 192.783628 241.639698 192.829821 241.426436 192.876014 241.485547 192.968399 241.62287 193.060785 241.500956 193.245555 241.506597 193.291748 241.542833 193.337941 241.401842 193.430326 241.459381 193.476519 241.351417 193.522711 241.494296 193.568904 241.561071 193.615097 241.268533 193.661289 241.540633 193.707482 241.395968 193.753675 241.580873 194.030831 241.372046 194.123216 241.6546 194.169409 241.608852 194.215602 241.340019 194.261794 241.678809 194.307987 241.61484 194.35418 241.335721 194.400373 241.501292 194.585143 241.351514 194.677529 241.547715 194.816107 241.303384 194.954685 241.602789 195.093263 241.289941 195.139456 241.470716 195.231841 241.407366 195.462804 241.367732 195.55519 241.788557 195.647575 241.41346 195.693768 241.63585 195.739961 241.257207 195.832346 241.347318 196.017117 241.702759 196.063309 241.392512 196.155695 241.450618 196.201887 241.501571 196.24808 241.297689 196.294273 241.641484 196.386658 241.574401 196.432851 241.333248 196.479044 241.658093 196.571429 241.468223 196.663814 241.600814 196.710007 241.41296 196.7562 241.518331 196.802392 241.607623 196.848585 241.339524 196.894778 241.559593 197.079549 241.54188 197.218127 241.269982 197.264319 241.740798 197.356705 241.599478 197.495283 241.658853 197.541475 241.429351 197.587668 241.475948 197.633861 241.669323 197.680054 241.408409 197.726246 241.548491 197.818632 241.513243 197.864824 241.404758 197.911017 241.56117 198.003402 241.554817 198.049595 241.626287 198.14198 241.256842 198.188173 241.459578 198.465329 241.680953 198.603907 241.455476 198.696293 241.546978 198.742485 241.619616 198.788678 241.503929 198.834871 241.48157 198.881063 241.683977 198.927256 241.500185 199.065834 241.649355 199.15822 241.363343 199.250605 241.66092 199.34299 241.349647 199.389183 241.539797 199.435376 241.254428 199.527761 241.309462 199.666339 241.572597 199.758725 241.355183 199.85111 241.4912 199.897303 241.465486 199.989688 241.692679 200.082073 241.470077 200.128266 241.545303 200.266844 241.610773 200.313037 241.440086 200.35923 241.632328 200.405422 241.68592 200.451615 241.627325 200.544 241.591621 200.590193 241.696041 200.728771 241.362 200.821156 241.616717 200.867349 241.522276 200.913542 241.203221 200.959735 241.716052 201.005927 241.651397 201.05212 241.325679 201.098313 241.817604 201.144505 241.445863 201.236891 241.788736 201.283083 241.320889 201.375469 241.485166 201.467854 241.554412 201.514047 241.412285 201.56024 241.54419 201.652625 241.556091 201.698818 241.664395 201.74501 241.599759 201.837396 241.588089 201.883588 241.733892 201.929781 241.659378 201.975974 241.588004 202.022166 241.718364 202.114552 241.668376 202.160744 241.499231 202.206937 241.61949 202.437901 241.572279 202.530286 241.658727 202.576479 241.441479 202.622671 241.490171 202.761249 241.740115 202.94602 241.458003 202.992213 241.28685 203.038406 241.528131 203.084598 241.470303 203.130791 241.715904 203.176984 241.334658 203.223176 241.531899 203.315562 241.516588 203.361754 241.711636 203.407947 241.649589 203.638911 241.497454 203.731296 241.73121 203.777489 241.558381 203.823681 241.617442 203.916067 241.615739 204.054645 241.384622 204.100837 241.457725 204.14703 241.720664 204.193223 241.668426 204.285608 241.375408 204.331801 241.615068 204.377994 241.665382 204.516572 241.525627 204.747535 241.486008 204.886113 241.635491 204.978499 241.604958 205.024691 241.760083 205.070884 241.701275 205.163269 241.439035 205.209462 241.475809 205.301847 241.537023 205.34804 241.311316 205.394233 241.714442 205.440426 241.699135 205.486618 241.373361 205.532811 241.761151 205.625196 241.376093 205.671389 241.764191 205.763774 241.654466 206.133316 241.396731 206.179509 241.678485 206.271894 241.57298 206.318087 241.527005 206.364279 241.707846 206.410472 241.480701 206.456665 241.584299 206.502857 241.347014 206.54905 241.581175 206.687628 241.60108 206.780014 241.6796 206.826206 241.563358 206.872399 241.780563 206.918592 241.452745 207.010977 241.554298 207.05717 241.534629 207.103362 241.355469 207.149555 241.599618 207.288133 241.685041 207.334326 241.306293 207.380518 241.41392 207.426711 241.608026 207.519097 241.524347 207.611482 241.772264 207.657675 241.416995 207.703867 241.793155 207.75006 241.517391 207.842445 241.727197 207.888638 241.508032 207.934831 241.643304 208.165794 241.596987 208.211987 241.807881 208.25818 241.622234 208.304372 241.516568 208.350565 241.549137 208.489143 241.635879 208.535336 241.448791 208.581528 241.616586 208.627721 241.675913 208.673914 241.555409 208.720107 241.451277 208.812492 241.714518 208.858685 241.618503 208.997263 241.678442 209.089648 241.468256 209.135841 241.55621 209.274419 241.677553 209.320611 241.576739 209.551575 241.437175 209.597768 241.686851 209.64396 241.480405 209.690153 241.457072 209.782538 241.649953 209.828731 241.524288 210.105887 241.737466 210.15208 241.482081 210.198273 241.771246 210.244465 241.551538 210.336851 241.47432 210.383043 241.705667 210.429236 241.729343 210.521621 241.758812 210.567814 241.524154 210.6602 241.514261 210.706392 241.8206 210.752585 241.702704 210.937356 241.438576 211.075934 241.75141 211.168319 241.607439 211.214512 241.635795 211.306897 241.676034 211.35309 241.445156 211.399283 241.661206 211.491668 241.584846 211.584053 241.530789 211.630246 241.678363 211.676439 241.276877 211.722631 241.432501 211.861209 241.789555 211.907402 241.438677 211.999788 241.565072 212.138366 241.698167 212.276944 241.134724 212.415522 241.68681 212.507907 241.656175 212.600292 241.473013 212.646485 241.720917 212.692678 241.602564 213.062219 241.677858 213.108412 241.493845 213.154605 241.792282 213.200797 241.552407 213.293183 241.700011 213.385568 241.758963 213.477954 241.576956 213.524146 241.756022 213.570339 241.557905 213.616532 241.557051 213.662724 241.783931 213.708917 241.652706 213.75511 241.591541 213.801302 241.650248 213.847495 241.707815 213.893688 241.594915 213.939881 241.539634 213.986073 241.291363 214.032266 241.593486 214.170844 241.595596 214.263229 241.741233 214.309422 241.534559 214.401807 241.630317 214.448 241.523872 214.494193 241.647568 214.540385 241.706313 214.632771 241.776364 214.678964 241.533507 214.725156 241.770032 214.771349 241.581785 214.817542 241.593956 214.863734 241.790507 214.909927 241.522875 215.002312 241.700566 215.048505 241.566684 215.094698 241.625613 215.14089 241.561633 215.187083 241.466139 215.325661 241.861678 215.510432 241.380556 215.556625 241.78646 215.64901 241.656396 215.741395 241.623865 215.787588 241.521755 215.833781 241.645521 215.972359 241.704293 216.018552 241.723577 216.064744 241.504576 216.110937 241.705158 216.480478 241.716199 216.526671 241.467733 216.572864 241.638142 216.711442 241.636498 216.85002 241.708191 216.988598 241.519683 217.127176 241.72858 217.219562 241.545745 217.265754 241.709028 217.311947 241.650002 217.35814 241.473768 217.404332 241.570808 217.450525 241.774143 217.54291 241.748143 217.635296 241.63994 217.681488 241.762091 217.773874 241.71051 217.820067 241.590755 217.866259 241.752192 218.235801 241.649231 218.281993 241.820172 218.328186 241.666736 218.374379 241.466707 218.420571 241.733882 218.466764 241.738665 218.512957 241.440849 218.55915 241.750117 218.697728 241.534631 218.74392 241.572792 218.790113 241.605206 218.836306 241.808111 218.882498 241.56467 219.021076 241.700417 219.067269 241.529078 219.113462 241.781946 219.25204 241.533648 219.298233 241.798524 219.344425 241.582162 219.436811 241.722821 219.483003 241.848696 219.529196 241.682758 219.898738 241.774356 219.94493 241.656145 219.991123 241.711391 220.037316 241.726719 220.083508 241.548712 220.129701 241.669589 220.222086 241.630718 220.268279 241.797839 220.314472 241.660441 220.45305 241.633496 220.499243 241.771231 220.545435 241.735778 220.591628 241.482547 220.637821 241.806642 220.776399 241.532039 220.822591 241.620021 220.961169 241.749668 221.007362 241.528989 221.099748 241.864707 221.14594 241.761966 221.284518 241.674004 221.423096 241.813317 221.469289 241.632492 221.515482 241.724919 221.700252 241.85498 221.746445 241.852503 221.838831 241.609807 221.885023 241.697701 221.977409 241.767922 222.023601 241.567578 222.115987 241.602829 222.162179 241.468947 222.254565 241.742017 222.300757 241.64734 222.485528 241.829996 222.670299 241.672514 222.808877 241.833142 222.947455 241.286495 223.039841 241.751185 223.086033 241.691558 223.132226 241.677445 223.178419 241.516408 223.224611 241.745609 223.594153 241.548269 223.640345 241.666204 223.778924 241.784522 223.825116 241.442608 223.871309 241.653673 223.917502 241.791533 224.009887 241.750104 224.148465 241.51193 224.379429 241.799078 224.425621 241.391232 224.471814 241.518011 224.610392 241.812935 224.656585 241.749382 224.795163 241.596235 224.841355 241.635447 224.887548 241.785757 224.933741 241.628564 225.072319 241.691027 225.118512 241.645529 225.164704 241.808171 225.210897 241.735444 225.349475 241.505122 225.44186 241.780928 225.488053 241.562802 225.580438 241.64781 225.626631 241.771501 225.672824 241.518 225.719017 241.536992 225.765209 241.693899 225.811402 241.63628 225.94998 241.432692 226.042365 241.729542 226.088558 241.683846 226.134751 241.644832 226.273329 241.761207 226.319522 241.737553 226.365714 241.457876 226.411907 241.754065 226.550485 241.717332 226.596678 241.603873 226.64287 241.679426 226.689063 241.754537 226.735256 241.724516 226.920026 241.692116 226.966219 241.849725 227.012412 241.717076 227.104797 241.667491 227.197183 241.836754 227.289568 241.622622 227.335761 241.658956 227.428146 241.622188 227.474339 241.480669 227.520531 241.87871 227.612917 241.797162 227.705302 241.644552 227.797688 241.853872 227.84388 241.804809 228.028651 241.689916 228.259615 241.805691 228.305807 241.593246 228.398193 241.648598 228.444385 241.590391 228.582963 241.746433 228.675349 241.619209 228.721541 241.736103 228.767734 241.671855 228.860119 241.587668 228.998698 241.824463 229.04489 241.640822 229.091083 241.801443 229.137276 241.851228 229.183468 241.590538 229.229661 241.819962 229.275854 241.760661 229.322046 241.891379 229.368239 241.716086 229.414432 241.75146 229.55301 241.655088 229.783973 241.74886 229.830166 241.722592 229.876359 241.562614 229.922551 241.785355 230.107322 241.744485 230.199708 241.568218 230.2459 241.898758 230.338286 241.827582 230.384478 241.617943 230.476864 241.701919 230.523056 241.8261 230.569249 241.655158 230.615442 241.595026 230.661634 241.864892 230.707827 241.796928 230.846405 241.68274 230.938791 241.775062 230.984983 241.606844 231.077369 241.687443 231.169754 241.77277 231.215947 241.815318 231.262139 241.660258 231.308332 241.701834 231.400717 241.758534 231.44691 241.643623 231.493103 241.813171 231.539296 241.704206 231.585488 241.771817 231.631681 241.560958 231.677874 241.599973 231.816452 241.839874 231.908837 241.585055 232.001222 241.721647 232.047415 241.804181 232.093608 241.711579 232.278379 241.610657 232.370764 241.826735 232.416957 241.7366 232.509342 241.609322 232.694113 241.775351 232.740305 241.632389 232.832691 241.689916 232.925076 241.868562 232.971269 241.574327 233.063654 241.694409 233.248425 241.799501 233.294618 241.591277 233.34081 241.747068 233.479389 241.80967 233.525581 241.567905 233.571774 241.753616 233.664159 241.637976 233.710352 241.435094 233.802737 241.867002 233.84893 241.821336 233.941315 241.692261 234.033701 241.646849 234.079893 241.866524 234.172279 241.661205 234.218472 241.778637 234.310857 241.803657 234.403242 241.567786 234.54182 241.802713 234.588013 241.606444 234.634206 241.84595 234.726591 241.524821 234.818977 241.649443 234.911362 241.572448 235.04994 241.82715 235.234711 241.397422 235.373289 241.746247 235.465674 241.279734 235.511867 241.726634 235.604252 241.641084 235.696638 241.574014 235.74283 241.329191 235.789023 241.667675 235.835216 241.554828 235.973794 241.773599 236.066179 241.549947 236.112372 241.798342 236.204757 241.743493 236.435721 241.641838 236.574299 241.879244 236.712877 241.545255 236.805262 241.818218 236.851455 241.802455 236.897648 241.643296 236.94384 241.728468 237.128611 241.672518 237.174804 241.87812 237.220996 241.86466 237.359574 241.658798 237.405767 241.669175 237.45196 241.553776 237.498153 241.619441 237.682923 241.770931 237.729116 241.634912 237.821501 241.677468 237.867694 241.812949 237.913887 241.499273 237.960079 241.762363 238.237236 241.69998 238.283428 241.533599 238.329621 241.794298 238.422006 241.73265 238.560584 241.735251 238.606777 241.670675 238.65297 241.854257 238.699163 241.764252 238.745355 241.7279 238.791548 241.898741 238.837741 241.768422 238.976319 241.929038 239.022511 241.682967 239.114897 241.730124 239.161089 241.903342 239.207282 241.578691 239.299667 241.708565 240.223521 241.836909 240.269714 241.917838 240.315907 241.776855 240.777834 241.864939 240.916412 241.684608 240.962604 241.805426 241.008797 241.759784 241.05499 241.663795 241.101182 241.706881 241.332146 241.854898 241.516917 241.343064 241.609302 241.862637 241.655495 241.810985 241.74788 241.755284 241.794073 241.908786 241.840265 241.590573 241.886458 241.861029 242.117422 241.768933 242.163614 241.616989 242.209807 241.824423 242.394578 241.717609 242.44077 241.904743 242.486963 241.824382 242.579349 241.709278 242.671734 241.863766 242.717927 241.804909 242.764119 241.634684 242.810312 241.822972 242.94889 241.838887 243.041275 241.777106 243.133661 241.812644 243.179853 241.664697 243.226046 241.863565 243.364624 241.893788 243.45701 241.937491 243.549395 241.622476 243.734166 241.882954 243.872744 241.678776 244.011322 241.93546 244.242285 241.724001 244.288478 241.768655 244.334671 241.54085 244.380863 241.73153 244.427056 241.866839 244.519441 241.805639 244.704212 241.935572 244.750405 241.918754 244.888983 241.617471 245.073754 241.90015 245.166139 241.755345 245.212332 241.853583 245.258525 241.779497 245.397103 241.891034 245.443295 241.512672 245.489488 241.758646 245.628066 241.782565 245.674259 241.604085 245.720451 241.760058 245.812837 241.821723 245.85903 241.6283 245.905222 241.719181 245.951415 241.801359 245.997608 241.76896 246.136186 241.680468 246.182378 241.787756 246.228571 241.401555 246.274764 241.829807 246.367149 241.565555 246.413342 241.811828 246.505727 241.770431 246.55192 241.865984 246.598113 241.77475 246.644305 241.626264 246.690498 241.78009 246.967654 241.788985 247.013847 241.929141 247.060039 241.840971 247.106232 241.837517 247.24481 241.688654 247.291003 241.89116 247.383388 241.801771 247.521966 241.74977 247.568159 241.961603 247.614352 241.742858 247.706737 241.721595 247.845315 241.916589 247.891508 241.616469 247.937701 241.812813 248.122471 241.776995 248.307242 241.847407 248.353435 241.746474 248.399627 241.849494 248.584398 241.791965 248.769169 241.640864 248.815362 241.755596 248.861554 241.692633 248.907747 241.67421 248.95394 241.496657 249.000132 241.714368 249.046325 241.609779 249.092518 241.681972 249.138711 241.788364 249.184903 241.758437 249.231096 241.52111 249.277289 241.766463 249.323481 241.866958 249.369674 241.813494 249.462059 241.576563 249.600637 241.748291 249.64683 241.669306 249.693023 241.848613 249.739215 241.685465 249.831601 241.847099 249.877794 241.65013 249.923986 241.906275 249.970179 241.716391 250.016372 241.806881 250.062564 241.62038 250.108757 241.927361 250.201142 241.851623 250.385913 241.695636 250.524491 241.829166 250.801647 241.803633 250.84784 241.964505 250.894033 241.771921 250.986418 241.777532 251.078804 241.79498 251.124996 241.88162 251.171189 241.715019 251.217382 241.768101 251.35596 241.815418 251.586923 241.793103 251.817887 241.877593 251.864079 241.659292 251.910272 241.737679 251.956465 241.851795 252.04885 241.808274 252.095043 241.207442 252.141235 241.915358 252.279813 241.555383 252.326006 241.757843 252.603162 241.902146 252.649355 241.708196 252.74174 241.792188 252.787933 241.714912 252.834126 241.78043 252.880318 241.822921 252.926511 241.692099 252.972704 241.830592 253.018897 241.811994 253.065089 241.645588 253.111282 241.737037 253.203667 241.922246 253.24986 241.891707 253.388438 241.530046 253.434631 241.909079 253.527016 241.802459 253.573209 241.681035 253.665594 241.926272 253.711787 241.821044 253.75798 241.679071 253.804172 241.871938 253.94275 241.786027 253.988943 241.818074 254.035136 241.736904 254.45087 241.875457 254.497063 241.56467 254.543255 241.804538 254.635641 241.777531 254.774219 241.893866 254.912797 241.871412 254.95899 241.888509 255.005182 241.713722 255.051375 241.906112 255.189953 241.779969 255.236146 241.943749 255.282338 241.72953 255.328531 241.657953 255.420916 241.933175 255.513302 241.721019 255.559494 241.774688 255.605687 241.865729 255.65188 241.801602 255.698073 241.797323 255.744265 241.952841 255.836651 241.901766 255.882843 241.824323 255.975229 241.884388 256.067614 241.877053 256.159999 241.934841 256.206192 241.782334 256.390963 241.909308 256.621926 241.74338 256.714312 241.959402 256.806697 241.898478 257.037661 241.715585 257.222431 241.875846 257.268624 241.762716 257.314817 241.876949 257.407202 241.88518 257.453395 241.716066 257.499587 241.908198 257.54578 241.870959 257.591973 241.94561 257.638166 241.940312 257.684358 241.754187 257.730551 241.88964 257.776744 241.867729 257.915322 241.651198 257.961514 241.863782 258.0539 241.807968 258.192478 241.843637 258.238671 241.715653 258.284863 241.916236 258.377249 241.859359 258.608212 241.744214 258.792983 241.961795 258.931561 241.766434 258.977754 241.788177 259.023946 242.026702 259.070139 241.745315 259.116332 241.687975 259.162524 241.849176 259.208717 241.809413 259.25491 241.676756 259.301102 241.89991 259.347295 241.702053 259.670644 241.934393 259.809222 241.832988 259.9478 241.927406 260.086378 241.702869 260.224956 241.892158 260.548305 241.829269 260.594498 241.670851 260.64069 241.758533 260.686883 241.889958 260.733076 241.728367 260.917847 241.956416 260.964039 241.823682 261.056425 241.893834 261.14881 241.806117 261.241195 241.917893 261.287388 241.855811 261.333581 241.708842 261.425966 241.776274 261.564544 241.883235 261.610737 241.680009 261.65693 241.787105 261.8417 241.845081 262.072664 242.006988 262.118856 241.739381 262.165049 241.890829 262.257435 241.951418 262.303627 241.69357 262.34982 241.751052 262.442205 241.838931 262.488398 241.783153 262.673169 241.861833 262.765554 241.817398 262.85794 241.577475 262.904132 241.811892 263.088903 241.81807 263.135096 241.638448 263.181288 241.888436 263.412252 241.844431 263.55083 241.934081 263.597023 241.631998 263.643215 241.940561 263.920371 241.775404 264.058949 241.907019 264.105142 241.98375 264.197528 241.693424 264.24372 241.764552 264.567069 241.89703 264.613262 241.753836 264.659454 241.837178 264.798033 241.95996 264.936611 241.748884 264.982803 241.756572 265.121381 241.940237 265.213767 241.842924 265.259959 241.921139 265.306152 241.814698 265.44473 241.908367 265.583308 241.815687 265.675694 241.93683 265.721886 241.867205 265.906657 241.682507 266.045235 241.874079 266.091428 241.789646 266.137621 242.007022 266.183813 241.629977 266.230006 241.940931 266.322391 241.831521 266.368584 241.876184 266.414777 241.923251 266.460969 241.876854 266.507162 241.742343 266.553355 242.01433 266.64574 241.945116 266.830511 241.704193 266.922896 241.972852 266.969089 241.909578 267.246245 241.972747 267.292438 241.745885 267.384823 241.834562 267.569594 241.897772 267.615787 241.728678 267.708172 241.808492 267.800557 241.892646 267.84675 241.846648 267.892943 241.933656 267.939135 241.756754 267.985328 241.811245 268.077714 241.895315 268.123906 241.737427 268.216292 241.804694 268.401062 241.907623 268.447255 241.680442 268.493448 241.859307 268.53964 241.80737 268.585833 241.906024 268.632026 241.942992 268.678219 241.771262 268.724411 241.91295 268.862989 241.813711 268.909182 241.950174 268.955375 241.852599 269.001567 241.854146 269.04776 241.593267 269.093953 241.889433 269.278723 241.580335 269.417302 241.927431 269.602072 241.756464 269.74065 241.951272 269.786843 241.772004 269.833036 241.958682 270.063999 241.672135 270.110192 241.931947 270.156385 241.681824 270.24877 241.755922 270.294963 241.89566 270.387348 241.833191 270.75689 241.843878 270.803082 241.973509 270.849275 241.800799 270.895468 241.786531 270.94166 241.897932 270.987853 241.770201 271.126431 241.893125 271.172624 241.847918 271.218816 241.753402 271.265009 241.862299 271.357395 241.810195 271.403587 241.668811 271.44978 241.836972 271.634551 241.64445 271.680743 241.867862 271.773129 241.773269 271.865514 241.975732 271.911707 241.808911 272.050285 241.901257 272.096478 241.745106 272.14267 241.811481 272.188863 241.919622 272.235056 241.713991 272.281248 241.797407 272.419826 241.919092 272.466019 241.710805 272.512212 241.811061 272.743175 241.790135 272.789368 241.755532 272.835561 241.817727 272.881753 241.892146 273.020331 241.662356 273.112717 241.918765 273.158909 241.848945 273.34368 241.856889 273.436066 241.943088 273.482258 241.663428 273.574644 241.692196 273.713222 241.923354 273.8518 241.724323 273.897993 241.771159 273.944185 241.987383 274.036571 241.938242 274.082763 241.6883 274.128956 241.965135 274.313727 241.88705 274.406112 241.836433 274.452305 241.956155 274.498497 241.762686 274.54469 241.969883 274.868039 241.791918 274.914232 241.972851 274.960424 241.866033 275.006617 241.720421 275.05281 241.927575 275.191388 241.832023 275.514737 241.940051 275.653315 241.655377 275.699507 241.793548 275.884278 241.818558 275.930471 241.744527 275.976664 241.797075 276.161434 241.923474 276.25382 241.927763 276.300012 241.701786 276.346205 241.801904 276.484783 241.922926 276.623361 241.773966 276.669554 241.989591 276.715747 241.874534 276.761939 241.787397 276.808132 241.975145 276.900517 241.932243 276.992903 241.875082 277.039095 241.676869 277.085288 241.85751 277.131481 241.959948 277.177674 241.829935 277.362444 241.951436 277.408637 241.731639 277.501022 241.795091 277.685793 241.9493 277.824371 241.783611 277.870564 241.963758 277.962949 241.919873 278.101527 241.856225 278.14772 241.978225 278.193913 241.95142 278.240105 241.716883 278.286298 241.895838 278.332491 241.870516 278.378683 241.973861 278.424876 241.803804 278.471069 241.894879 278.748225 241.975006 278.794418 241.786863 278.84061 241.860354 278.932996 242.030723 279.025381 241.72415 279.071574 241.841657 279.163959 241.988307 279.210152 241.77985 279.302537 241.876056 279.487308 241.951105 279.672079 241.837376 279.764464 241.930488 279.810657 241.820014 279.85685 241.927943 279.949235 241.958091 279.995428 241.791468 280.04162 241.914977 280.318776 241.795577 280.364969 241.997033 280.457355 241.966818 280.503547 241.9507 280.54974 241.747553 280.642125 241.804916 280.826896 241.909327 280.919281 241.716144 280.965474 241.861247 281.011667 241.923655 281.05786 241.793593 281.150245 241.838423 281.24263 241.681224 281.288823 241.932405 281.381208 241.871104 281.658364 241.801991 281.704557 241.747707 281.796943 241.921881 281.843135 241.902184 281.981713 241.843295 282.120291 241.68989 282.166484 241.948471 282.258869 241.910439 282.44364 241.711138 282.536026 241.863701 282.628411 241.918644 282.674604 241.69298 282.813182 241.908868 282.859374 241.847396 282.905567 241.90609 283.044145 241.932937 283.182723 241.719704 283.275109 241.974501 283.321301 241.915265 283.459879 241.863268 283.598457 241.935555 283.64465 241.79531 283.737036 241.852137 283.829421 241.97906 283.967999 241.791006 284.106577 241.984463 284.245155 241.830522 284.291348 241.971215 284.337541 241.947082 284.383733 241.781029 284.429926 241.884042 284.476119 241.995581 284.522311 241.745572 284.568504 241.919656 284.707082 241.981006 284.753275 241.706777 284.799467 241.954712 284.938046 241.846607 285.076624 241.940699 285.122816 241.822394 285.215202 241.780186 285.307587 241.883915 285.492358 241.681496 285.677129 241.910649 285.815707 242.02641 285.861899 241.769866 285.908092 241.976425 286.000477 241.768186 286.092863 241.841699 286.185248 241.914062 286.231441 241.701933 286.277634 241.743758 286.323826 241.9305 286.370019 241.817344 286.508597 241.704613 286.55479 241.932835 286.647175 241.890947 286.785753 242.007435 286.831946 241.950544 286.970524 241.622887 287.016717 241.865612 287.062909 241.938979 287.109102 241.778931 287.201487 241.849501 287.293873 241.8294 287.340065 241.917811 287.386258 241.875567 287.432451 241.660455 287.478643 241.79482 287.571029 241.873639 287.709607 241.847934 287.7558 241.887015 287.801992 241.655926 287.848185 241.845588 287.894378 241.973031 288.032956 241.706112 288.217727 241.942313 288.263919 241.759876 288.310112 241.791325 288.356305 241.917189 288.44869 241.870605 288.494883 241.928873 288.541075 241.655056 288.587268 241.734905 288.633461 241.903944 288.679653 241.328329 288.725846 241.844082 288.864424 241.800925 288.910617 241.860803 288.95681 241.616182 289.003002 241.751421 289.049195 241.788534 289.095388 241.581805 289.187773 241.93989 289.233966 241.705238 289.280158 241.882706 289.557315 241.699044 289.695893 241.90515 290.019241 241.8568 290.111627 241.948769 290.34259 241.711382 290.481168 241.992196 290.573554 241.669351 290.619746 241.840869 290.712132 241.879428 290.896903 241.656901 290.943095 241.952234 290.989288 241.875237 291.035481 241.745155 291.081673 241.887464 291.174059 241.814378 291.220251 241.764983 291.312637 241.982039 291.358829 241.791509 291.405022 241.9863 291.635986 241.842368 291.774564 241.89123 292.375069 241.830849 292.421261 241.938953 292.467454 241.830989 292.513647 241.709187 292.559839 241.940849 292.652225 241.917142 292.790803 241.894485 292.929381 241.936531 293.067959 241.921715 293.114152 241.757117 293.160344 241.859235 293.206537 241.985455 293.25273 241.850286 293.345115 241.962148 293.391308 241.833051 293.483693 241.737719 293.529886 241.991444 293.576079 241.946009 293.622271 241.789142 293.668464 241.909332 293.94562 241.861946 293.991813 241.988983 294.038005 241.848459 294.084198 241.778236 294.130391 241.922426 294.222776 241.861242 294.546125 241.96056 294.592318 241.939871 294.730896 241.714398 294.777089 241.965522 294.823281 241.700267 294.961859 241.937736 295.100437 241.872316 295.192823 241.86714 295.239015 241.766531 295.285208 241.856129 295.331401 242.046939 295.423786 241.999646 295.562364 241.939652 295.608557 241.980719 295.65475 241.807144 295.700942 241.826218 295.83952 241.996868 296.024291 241.83389 296.116677 241.905581 296.162869 241.791672 296.209062 241.882702 296.440025 241.960495 296.486218 241.842232 296.532411 241.86077 296.670989 242.02324 296.809567 241.965286 296.948145 241.760506 297.04053 241.970689 297.086723 241.937094 297.132916 241.776327 297.179108 241.894498 297.225301 241.866652 297.271494 242.007486 297.317687 241.984134 297.363879 241.869755 297.456265 241.921664 298.842045 241.925672 298.888238 241.732757 298.934431 241.884036 300.089248 241.925692 300.135441 241.79737 300.181633 241.881072 300.320211 241.979506 300.458789 241.78364 300.551175 241.939296 300.689753 242.0223 300.828331 241.905737 300.920716 241.872887 300.966909 241.993559 301.013102 241.956191 301.059294 241.834983 301.105487 241.972636 301.15168 242.044468 301.197872 241.980299 301.336451 241.808333 301.382643 241.973765 301.475029 241.92939 301.659799 241.869032 301.752185 241.987736 301.798377 241.918267 301.84457 241.964936 301.936956 241.764172 301.983148 241.88021 302.075534 241.833419 302.121726 241.938689 302.260304 242.031191 302.306497 241.957591 302.35269 241.823507 302.398882 242.007539 302.537461 241.870711 302.583653 241.989026 302.629846 241.713648 302.676039 241.872186 302.860809 241.93252 302.999387 241.896017 303.04558 242.028378 303.091773 242.003044 303.137965 241.879 303.184158 241.959103 303.507507 241.96971 303.5537 241.814773 303.599892 242.003941 303.784663 241.874316 303.830856 241.962646 303.877049 241.871781 303.923241 241.701807 303.969434 241.913449 304.108012 241.768515 304.200397 242.03387 304.24659 241.926727 304.338975 241.963161 304.385168 241.844165 304.477553 241.892568 304.523746 241.799967 304.569939 241.982547 304.616132 241.7389 304.662324 241.760513 304.800902 241.964393 305.078058 241.757206 305.124251 241.912483 305.262829 241.983279 305.309022 241.998062 305.355215 241.73114 305.401407 241.961086 305.770949 241.89185 305.909527 241.95209 306.094298 242.015819 306.14049 241.833786 306.186683 241.91005 306.325261 242.015088 306.463839 241.736066 306.602417 241.920715 306.64861 241.785796 306.694803 241.818804 306.787188 241.948178 306.833381 241.828139 306.925766 241.883113 307.018151 241.955095 307.15673 241.810593 307.3415 241.936727 307.757235 241.943566 307.803427 241.744536 307.84962 241.981779 307.988198 241.967494 308.172969 241.844502 308.219161 241.988875 308.265354 241.909522 308.450125 241.949848 308.496318 241.781633 308.54251 241.983622 308.773474 241.907324 308.912052 241.813064 308.958244 241.970605 309.004437 241.861118 309.05063 241.765821 309.096823 241.805766 309.143015 241.98935 309.189208 241.94306 309.235401 241.87993 309.281593 241.929873 309.420171 241.979387 309.558749 241.801676 309.604942 241.88202 309.74352 241.944387 309.835906 241.905766 309.882098 242.018229 309.928291 241.959884 310.113062 241.895119 310.159254 242.007156 310.205447 241.912234 310.297832 241.975417 310.436411 241.972659 310.482603 241.766942 310.528796 241.981122 310.574989 241.874645 310.621181 241.903145 310.805952 241.999818 310.94453 241.847858 310.990723 241.96623 311.036916 241.847306 311.129301 241.925874 311.175494 242.044913 311.221686 242.008688 311.314072 241.835137 311.406457 241.99307 311.45265 241.841561 311.498842 242.04243 311.545035 241.89622 311.683613 241.948721 311.775999 242.021739 311.822191 241.841131 311.914577 241.907642 311.960769 241.760101 312.006962 241.890133 312.099347 241.942616 312.284118 241.542277 312.376504 241.930607 312.422696 241.785778 312.468889 241.729505 312.515082 241.874552 312.561274 241.770824 312.607467 241.794074 312.65366 241.947555 312.746045 241.894401 312.792238 241.98203 312.83843 241.928812 312.977009 241.697182 313.023201 241.775645 313.207972 241.977325 313.392743 241.822527 313.438935 241.984049 313.485128 241.942728 313.577513 241.777191 313.623706 241.878007 313.669899 242.0049 313.716092 241.724153 313.762284 241.936568 313.85467 241.759303 313.900862 241.982269 313.947055 241.972629 313.993248 241.863849 314.085633 241.927902 314.131826 242.013249 314.178018 241.749094 314.224211 241.96338 314.270404 241.958557 314.316597 241.839933 314.362789 242.006507 314.455175 241.87882 314.501367 241.971054 314.54756 241.991044 314.686138 241.852095 314.778523 241.946614 314.824716 241.741055 314.870909 241.830173 315.009487 241.914696 315.05568 241.871045 315.101872 241.97505 315.194258 241.966782 315.24045 241.767555 315.286643 242.03236 315.332836 241.815139 315.471414 242.01931 315.563799 241.884912 315.609992 242.022166 315.656185 241.998334 315.794763 241.815802 315.840955 242.013583 315.887148 241.98463 316.025726 241.885044 316.164304 241.943295 316.210497 241.863804 316.25669 241.904062 316.349075 242.04474 316.395268 241.968685 316.533846 241.91521 316.580038 242.003363 316.626231 241.951026 316.718616 241.865233 316.764809 241.957357 316.857194 241.896967 317.134351 242.022362 317.226736 241.887538 317.365314 242.04241 317.457699 241.783829 317.550085 241.925987 317.64247 242.045574 317.688663 241.942008 317.734856 241.981633 317.873434 241.815133 317.965819 241.913828 318.012012 241.777703 318.15059 242.004223 318.242975 241.836624 318.289168 242.044604 318.335361 241.978896 318.427746 241.889444 318.612517 242.030418 318.751095 242.002446 318.889673 241.922407 319.028251 242.005843 319.120636 241.971547 319.166829 241.84289 319.213022 241.960812 319.3516 241.984914 319.397792 241.790896 319.443985 241.893123 319.490178 242.050021 319.536371 242.013904 319.674949 241.795554 319.813527 241.984118 320.136876 241.898469 320.183068 242.011599 320.229261 241.946872 320.275454 241.91385 320.321646 242.018282 320.367839 241.892502 320.691188 242.043488 320.829766 241.748322 320.875959 242.016924 320.968344 241.999814 321.106922 241.97755 321.2455 241.9062 321.291693 241.738562 321.337885 241.854125 321.384078 242.047769 321.476464 241.997765 321.568849 242.005184 321.615042 242.045818 321.707427 241.691043 321.75362 241.919158 321.93839 242.077117 321.984583 241.947726 322.169354 241.871743 322.215547 241.952842 322.261739 241.696452 322.307932 242.037087 322.908437 241.991413 323.093208 242.047739 323.1394 241.899327 323.185593 242.063635 323.324171 241.930259 323.370364 242.044217 323.416557 241.92119 323.555135 241.992726 323.64752 241.886691 323.693713 241.967453 324.109447 241.990114 324.201832 241.908765 324.248025 242.038858 324.294218 241.983801 324.386603 241.880334 324.432796 242.012928 324.478988 241.918283 324.571374 241.910294 324.709952 241.976661 325.54142 241.986289 325.587613 242.028554 325.633806 241.74995 325.679998 241.796272 325.772384 242.047838 325.864769 241.929992 325.910962 241.842427 325.957154 242.024199 326.003347 242.010807 326.095733 241.728528 326.141925 242.010804 326.188118 241.93968 326.280503 241.870348 326.419081 241.939075 326.788623 241.946619 326.881008 241.894101 327.019586 242.014254 327.065779 241.888593 327.111972 241.931782 327.296743 241.989558 327.481513 241.950817 327.620091 241.836761 327.758669 241.967039 328.082018 241.937669 328.220596 241.926394 328.312982 241.957972 328.359174 241.763297 328.497752 242.056405 328.543945 241.900893 328.636331 241.930597 328.821101 241.980061 328.867294 241.791912 328.913487 241.982405 328.959679 242.049479 329.005872 241.957496 329.190643 241.910351 329.375414 242.007543 329.560184 241.717069 329.606377 242.01851 329.698762 241.933069 329.791148 241.88987 329.83734 241.636944 329.975919 241.997606 330.022111 241.865044 330.068304 241.990841 330.253075 241.998087 330.437845 241.939728 331.03835 242.015363 331.084543 242.054675 331.130736 241.933313 331.176928 242.0291 331.315507 242.009222 331.500277 241.875423 331.685048 242.025774 331.731241 241.903443 331.777433 242.033474 332.23936 241.75163 332.331746 242.046139 332.424131 241.952297 332.562709 241.959771 332.608902 242.039806 332.655095 241.824473 332.74748 241.857425 332.839865 241.977146 332.886058 241.813151 332.932251 241.919594 333.117021 241.983214 333.2556 241.90811 333.394178 242.005608 333.44037 241.839884 333.486563 241.995148 333.578948 242.008536 333.625141 241.844071 333.671334 241.96857 333.763719 241.886512 333.809912 242.022921 333.902297 241.964848 334.087068 241.928506 334.225646 241.985445 334.364224 241.990987 334.410417 241.876865 334.45661 241.979526 334.548995 241.96009 334.687573 241.645852 334.779958 242.041204 334.826151 241.95605 334.964729 241.911428 335.195693 241.945443 335.241885 241.815354 335.288078 241.968516 335.334271 242.045087 335.380463 241.949308 335.565234 241.866064 335.703812 242.033923 335.750005 241.78921 335.84239 241.844938 335.888583 242.015271 335.934776 241.817458 335.980968 241.698546 336.027161 241.927356 336.073354 241.85367 336.119546 241.773562 336.165739 241.910708 336.304317 241.929184 336.489088 241.803361 336.581473 241.980706 336.812437 241.673509 336.858629 242.004189 336.904822 241.771319 337.089593 242.031205 337.135786 241.823423 337.228171 241.918162 337.320556 241.711496 337.366749 241.840872 337.505327 242.006865 337.597712 241.845357 337.643905 241.935771 337.782483 241.97972 337.921061 241.712178 338.059639 242.005228 338.198217 241.90297 338.24441 242.020671 338.290603 241.862102 338.336795 241.970854 338.429181 242.026641 338.475374 241.901684 338.660144 241.969907 338.706337 241.678095 338.75253 241.978705 338.844915 241.880165 338.891108 241.986791 338.9373 242.056426 338.983493 241.995966 339.075879 241.950107 339.168264 241.986848 339.214457 241.749265 339.399227 242.054535 339.44542 241.939028 339.491613 241.965972 339.583998 242.020971 339.722576 241.903876 339.907347 241.895565 339.95354 242.014712 339.999732 241.965406 340.184503 241.811989 340.276888 242.02978 340.323081 241.933727 340.415467 241.839697 340.461659 241.907408 340.507852 241.981294 340.554045 241.908185 340.64643 241.919903 340.785008 241.972763 340.831201 241.906338 340.969779 242.041676 341.062164 241.909763 341.108357 241.985263 341.15455 242.043285 341.200742 241.998281 341.246935 241.865967 341.293128 241.895663 341.431706 242.001119 341.570284 241.96327 341.616476 242.071176 341.708862 242.024099 341.84744 241.924731 341.893633 242.043423 341.939825 241.991927 342.078403 241.874165 342.216981 242.079801 342.401752 241.787631 342.586523 242.051207 342.632716 241.882551 342.678908 242.025643 342.817486 241.970011 343.002257 242.019138 343.04845 241.955393 343.094643 242.013026 343.140835 242.071374 343.187028 242.017156 343.233221 241.88023 343.279413 241.997818 343.325606 242.009862 343.371799 241.843214 343.417991 242.034225 343.510377 241.887693 343.602762 242.036087 343.74134 241.981896 343.833726 241.981019 344.018496 241.946821 344.110882 242.000374 344.157074 241.903761 344.203267 241.950904 344.24946 242.092045 344.295653 241.923817 344.480423 242.05409 344.619001 241.978351 344.711387 241.952357 344.757579 242.088278 344.803772 242.022066 345.034736 241.903197 345.080928 242.047658 345.127121 241.984531 345.173314 241.872006 345.219506 242.115398 345.265699 242.014275 345.311892 241.960127 345.358084 241.708687 345.404277 241.962212 345.589048 241.975703 345.635241 242.059404 345.773819 241.919051 345.912397 242.014573 346.050975 241.921316 346.189553 242.058218 346.235746 241.989076 346.328131 241.822996 346.420516 241.973241 346.65148 242.01138 346.697672 241.772131 346.790058 241.81147 346.928636 242.039299 347.067214 241.714984 347.159599 241.941237 347.298177 241.998101 347.34437 242.029147 347.390563 241.923391 347.436755 241.955877 347.529141 242.028602 347.575334 241.91248 347.621526 241.964059 347.713912 242.005944 347.806297 241.859155 347.85249 241.886085 347.991068 241.951017 348.083453 242.024776 348.222031 241.868871 348.268224 241.990856 348.360609 241.950957 348.452995 241.928236 348.499187 242.075587 348.54538 241.957145 348.683958 241.901983 348.730151 242.056818 348.776343 241.981876 348.961114 241.978782 349.284463 241.932659 349.376848 241.980238 349.561619 242.069112 349.700197 241.934389 349.74639 241.991177 349.931161 242.012358 350.162124 242.033062 350.208317 241.922774 350.25451 241.988648 350.300702 242.023524 350.346895 241.904543 350.393088 241.988876 350.43928 242.057667 350.485473 242.005835 350.9474 241.97626 351.085978 242.029624 351.178363 241.866236 351.316941 241.961322 351.501712 242.053976 351.547905 241.906693 351.594098 242.040834 351.778868 241.873167 351.871254 242.063156 352.009832 241.975408 352.425566 241.922783 352.517951 242.07788 352.564144 242.057601 352.702722 242.001078 352.795108 242.028513 352.8413 241.94822 352.887493 242.014505 352.979878 241.988845 353.118456 241.915562 353.210842 242.07765 353.257034 242.013075 353.718961 241.907451 353.857539 242.029824 353.903732 241.937692 353.949925 241.971187 354.134696 242.080541 354.227081 241.797742 354.365659 242.059798 354.504237 241.88043 354.55043 241.974233 354.596622 242.068574 354.642815 241.786031 354.689008 241.924726 354.781393 241.993358 354.919971 241.981066 354.966164 242.028686 355.058549 241.902838 355.197127 242.06303 355.335706 241.964459 355.428091 242.007954 355.474284 241.925819 355.520476 241.966609 355.566669 242.034502 355.75144 241.797388 355.797632 242.02379 355.890018 241.95449 356.120981 242.001199 356.259559 242.001363 356.629101 242.081723 356.767679 241.995919 356.906257 241.995867 356.95245 241.841308 356.998642 241.972142 357.091028 242.060895 357.229606 241.963471 357.275799 242.090986 357.321991 241.994558 357.599147 242.023407 357.691533 241.951782 357.783918 242.051153 357.830111 241.894598 357.876303 241.987472 358.33823 241.953153 358.476808 242.053435 358.523001 242.116364 358.569194 242.056607 358.753965 241.930446 358.892543 242.021272 358.938735 241.906098 359.031121 241.965324 359.123506 242.036532 359.169699 241.92225 359.215891 242.053952 359.724011 241.898394 359.770204 242.029302 359.816396 241.998762 359.908782 241.913786 360.001167 242.010357 360.093553 241.888129 360.232131 242.040113 360.278323 242.055395 360.324516 241.786049 360.370709 241.959627 360.416901 242.066655 360.463094 242.036248 360.55548 241.961499 360.601672 242.008921 360.786443 241.950844 360.832636 241.869199 360.878828 241.986755 361.155984 241.933129 361.202177 241.787866 361.24837 241.809949 361.386948 242.039425 361.525526 241.916904 361.571719 242.020844 361.617911 241.921194 361.664104 241.905212 361.710297 242.020993 361.756489 241.959871 361.802682 241.879307 361.848875 242.053246 361.895068 241.993464 361.94126 241.897081 361.987453 242.088685 362.079838 242.060804 362.126031 241.931043 362.218416 241.965352 362.264609 241.877185 362.403187 242.039578 362.44938 241.954696 362.495573 242.033346 362.634151 242.031584 362.911307 242.024232 363.003692 242.025358 363.14227 241.904891 363.188463 242.06785 363.280848 241.987475 363.419426 242.05611 363.558004 241.950237 363.604197 242.011759 364.066124 242.075644 364.204702 241.904467 364.712822 242.039435 364.897592 241.958097 365.082363 241.88349 365.220941 242.030967 365.451905 241.803039 365.498097 241.875223 365.54429 241.84762 365.636675 242.012837 365.682868 241.987912 365.729061 241.925866 365.775254 241.9712 365.913832 242.065194 366.05241 241.794907 366.098602 241.876243 366.190988 241.972148 366.23718 241.895994 366.283373 242.00694 366.468144 241.986278 366.606722 241.883113 366.883878 242.039817 367.022456 241.88476 367.068649 241.999755 367.114842 241.781901 367.161034 241.94858 367.299612 241.914755 367.391998 241.731407 367.484383 242.066718 367.530576 241.938498 367.900117 242.028921 367.94631 241.874403 367.992503 241.953089 368.315851 242.041549 368.362044 241.74188 368.408237 242.050329 368.45443 241.984965 368.500622 242.078572 368.546815 242.049589 368.593008 241.844413 368.685393 241.898552 368.870164 241.991056 369.008742 242.026264 369.054935 242.095029 369.101127 241.970034 369.14732 241.994372 369.193513 241.892614 369.239705 242.029113 369.378283 242.074391 369.424476 241.920066 369.470669 242.029089 369.516861 242.065544 369.563054 241.937584 369.609247 241.986021 369.747825 242.071512 369.794018 241.973452 369.886403 242.035919 370.024981 241.879926 370.071174 241.968409 370.255944 242.006154 370.394523 242.036069 370.440715 241.893376 370.486908 242.038818 370.533101 242.052132 370.579293 241.78599 370.625486 242.044494 370.671679 241.969675 370.717871 242.029047 370.856449 241.979132 371.087413 242.023057 371.318376 242.030844 371.364569 241.934242 371.410762 241.978187 371.54934 242.018133 371.595532 241.951314 371.641725 242.097575 371.687918 242.01663 372.011267 241.983352 372.057459 241.863274 372.103652 241.988705 372.196037 242.018232 372.334616 241.921063 372.473194 242.087158 372.519386 241.767152 372.565579 242.063357 372.611772 242.050335 372.657964 241.89006 372.75035 241.960748 372.796542 242.04037 372.842735 241.960076 372.888928 241.795936 372.935121 241.92598 373.027506 241.992415 373.212277 242.028236 373.304662 241.922226 373.350855 242.077286 373.397047 241.990108 373.489433 241.975438 373.581818 241.733465 373.581818 241.733465"></polyline>
            <g id="Group-42" transform="translate(53.000000, 14.000000)">
                <path d="M1,238 L1,20.56" id="Stroke-35" stroke="#000000" stroke-width="0.8" stroke-linecap="square"></path>
                <path d="M335.8,238 L335.8,20.56" id="Stroke-36" stroke="#000000" stroke-width="0.8" stroke-linecap="square"></path>
                <path d="M1,238 L335.8,238" id="Stroke-37" stroke="#000000" stroke-width="0.8" stroke-linecap="square"></path>
                <path d="M1,20.56 L335.8,20.56" id="Stroke-38" stroke="#000000" stroke-width="0.8" stroke-linecap="square"></path>
                <text id="Loss-curve" font-family="LucidaGrande, Lucida Grande" font-size="12" font-weight="normal" fill="#000000">
                    <tspan x="136.532813" y="12.4271875">Loss curve</tspan>
                </text>
                <path d="M277.45625,43.231875 L328.8,43.231875 C330.133333,43.231875 330.8,42.565208 330.8,41.231875 L330.8,27.56 C330.8,26.226667 330.133333,25.56 328.8,25.56 L277.45625,25.56 C276.122917,25.56 275.45625,26.226667 275.45625,27.56 L275.45625,41.231875 C275.45625,42.565208 276.122917,43.231875 277.45625,43.231875 Z" id="Fill-39" fill-opacity="0.8" fill="#FFFFFF"></path>
                <path d="M277.45625,43.231875 L328.8,43.231875 C330.133333,43.231875 330.8,42.565208 330.8,41.231875 L330.8,27.56 C330.8,26.226667 330.133333,25.56 328.8,25.56 L277.45625,25.56 C276.122917,25.56 275.45625,26.226667 275.45625,27.56 L275.45625,41.231875 C275.45625,42.565208 276.122917,43.231875 277.45625,43.231875 Z" id="Stroke-40" stroke-opacity="0.8" stroke="#D6D6D6"></path>
                <path d="M279.45625,33.65375 L299.45625,33.65375" id="Stroke-41" stroke="#1F77B4" stroke-width="1.5" stroke-linecap="square" stroke-linejoin="round"></path>
                <text id="loss" font-family="LucidaGrande, Lucida Grande" font-size="10" font-weight="normal" fill="#000000">
                    <tspan x="307.45625" y="35.3764062">loss</tspan>
                </text>
            </g>
        </g>
    </g>
</svg>